M48
;Layer_Color=6321
;FILE_FORMAT=2:5
INCH,LZ
;TYPE=PLATED
T1F00S00C0.01600
T2F00S00C0.03700
T3F00S00C0.10000
;TYPE=NON_PLATED
T4F00S00C0.01968
%
T01
X0149Y012
X0153
Y0124
X0142193Y01355
X0159Y01555
X0165
X0171
X0178Y0145
X01785Y0129
X01845Y01165
X0194Y0143
X0252Y0156
X02605Y01375
X02635Y01175
X02695Y01195
X028Y013
X02775Y01495
X02765Y0164
X02825Y0166
X02853Y01633
X02835Y01835
X02805Y0205
X02695Y02075
X0264146Y0207354
X0259Y01965
Y01838
X02605Y01795
X0252Y016
X02085
X02115Y01635
X0201Y0168
X0198Y01725
Y01775
X0201Y01865
X01915Y02085
Y02145
Y02185
X01935Y02355
X0205
X02235Y0233
X0230976Y0243976
X02375Y0244
X0244
X02503Y02422
X02505Y0248
X02595Y02435
X02655Y0242
X02695
X0257Y0225
X02465Y0215
X0183Y0204
X0177646Y0204354
X0171Y01935
X01745Y02705
X01785
X01825
X01868
X01907Y0283
X0195
X02595Y0312
X0126Y0285
X0133Y02235
X0132144Y0214144
Y0204644
X01465Y02047
X01305Y0171
X01355Y0159
X0142
X0239Y03265
Y03305
X02885Y0333
X0288Y03145
T02
X0108921Y0133622
X0118921
Y0143622
X0108921
Y0153622
X0118921
X02965Y0147
X03065
Y0157
Y0167
Y0177
Y0187
Y0197
Y0207
Y0217
Y0227
Y0237
X02965
Y0227
Y0217
Y0207
Y0197
Y0187
Y0177
Y0167
Y0157
X02165Y01705
Y01805
Y01905
Y02005
Y02105
Y02205
Y02305
Y02405
Y02505
Y02605
Y02705
Y02805
Y02905
Y03005
Y03105
X02025Y0311
X01925
Y0301
X02025
X01565Y03005
Y03105
Y02905
Y02805
Y02705
Y02605
Y02505
Y02405
Y02305
Y02205
Y02105
Y02005
Y01905
Y01805
Y01705
X0118921Y0173622
Y0163622
X0108921
Y0173622
Y0183622
X0118921
Y0193622
X0108921
Y0203622
X0118921
Y0213622
X0108921
Y0223622
X0118921
Y0233622
X0108921
Y0243622
X0118921
Y0253622
X0108921
Y0263622
X0118921
Y0273622
X0108921
Y0283622
X0118921
Y0293622
X0108921
Y0303622
X0118921
Y0313622
X0108921
Y0323622
X0118921
X01565Y03205
Y03305
Y03405
Y03505
Y03605
X02165
Y03505
Y03405
Y03305
Y03205
X02025Y0321
X01925
T03
X0114Y01145
X0306913
X02855Y0252634
Y0304366
X0114Y0342846
T04
X0306535Y0321626
Y0337374
M30
