G04 Layer_Color=8150272*
%FSLAX25Y25*%
%MOIN*%
G70*
G01*
G75*
%ADD88O,0.08100X0.05600*%
%ADD89C,0.25010*%
%ADD90C,0.14600*%
%ADD91O,0.08100X0.05600*%
%ADD92R,0.08100X0.05600*%
%ADD93C,0.03400*%
D88*
X118921Y133622D02*
D03*
X108921D02*
D03*
X118921Y143622D02*
D03*
X108921D02*
D03*
X118921Y153622D02*
D03*
X108921D02*
D03*
X118921Y163622D02*
D03*
X108921D02*
D03*
X118921Y173622D02*
D03*
X108921D02*
D03*
X118921Y183622D02*
D03*
X108921D02*
D03*
X118921Y193622D02*
D03*
X108921D02*
D03*
X118921Y203622D02*
D03*
X108921D02*
D03*
X118921Y213622D02*
D03*
X108921D02*
D03*
X118921Y223622D02*
D03*
X108921D02*
D03*
X118921Y233622D02*
D03*
X108921D02*
D03*
X118921Y243622D02*
D03*
X108921D02*
D03*
X118921Y253622D02*
D03*
X108921D02*
D03*
X118921Y263622D02*
D03*
X108921D02*
D03*
X118921Y273622D02*
D03*
X108921D02*
D03*
X118921Y283622D02*
D03*
X108921D02*
D03*
X118921Y293622D02*
D03*
X108921D02*
D03*
X118921Y303622D02*
D03*
X108921D02*
D03*
X118921Y313622D02*
D03*
X108921D02*
D03*
X118921Y323622D02*
D03*
X108921D02*
D03*
D89*
X114000Y114500D02*
D03*
Y342846D02*
D03*
X306913Y114500D02*
D03*
D90*
X285500Y252634D02*
D03*
Y304366D02*
D03*
D91*
X306500Y147000D02*
D03*
Y157000D02*
D03*
Y167000D02*
D03*
Y177000D02*
D03*
Y187000D02*
D03*
Y197000D02*
D03*
Y207000D02*
D03*
Y217000D02*
D03*
Y227000D02*
D03*
Y237000D02*
D03*
X296500Y147000D02*
D03*
Y157000D02*
D03*
Y167000D02*
D03*
Y177000D02*
D03*
Y187000D02*
D03*
Y197000D02*
D03*
Y207000D02*
D03*
Y217000D02*
D03*
Y227000D02*
D03*
X156500Y350500D02*
D03*
Y340500D02*
D03*
Y330500D02*
D03*
Y320500D02*
D03*
Y310500D02*
D03*
Y300500D02*
D03*
Y290500D02*
D03*
Y280500D02*
D03*
Y270500D02*
D03*
Y260500D02*
D03*
Y250500D02*
D03*
Y240500D02*
D03*
Y230500D02*
D03*
Y220500D02*
D03*
Y210500D02*
D03*
Y200500D02*
D03*
Y190500D02*
D03*
Y180500D02*
D03*
Y170500D02*
D03*
X216500Y360500D02*
D03*
Y350500D02*
D03*
Y340500D02*
D03*
Y330500D02*
D03*
Y320500D02*
D03*
Y310500D02*
D03*
Y300500D02*
D03*
Y290500D02*
D03*
Y280500D02*
D03*
Y270500D02*
D03*
Y260500D02*
D03*
Y250500D02*
D03*
Y240500D02*
D03*
Y230500D02*
D03*
Y220500D02*
D03*
Y210500D02*
D03*
Y200500D02*
D03*
Y190500D02*
D03*
Y180500D02*
D03*
Y170500D02*
D03*
X192500Y311000D02*
D03*
Y301000D02*
D03*
X202500Y321000D02*
D03*
Y311000D02*
D03*
Y301000D02*
D03*
D92*
X296500Y237000D02*
D03*
X156500Y360500D02*
D03*
X192500Y321000D02*
D03*
D93*
X132144Y204644D02*
D03*
X133000Y223500D02*
D03*
X132144Y214144D02*
D03*
X174500Y270500D02*
D03*
X178500D02*
D03*
X182500D02*
D03*
X186800D02*
D03*
X190700Y283000D02*
D03*
X195000D02*
D03*
M02*
