G04 Layer_Physical_Order=2*
G04 Layer_Color=11436288*
%FSLAX25Y25*%
%MOIN*%
G70*
G01*
G75*
%ADD40C,0.01600*%
%ADD41C,0.01000*%
%ADD44C,0.01200*%
%ADD45C,0.02000*%
%ADD46O,0.07500X0.05000*%
%ADD47C,0.24410*%
%ADD48C,0.14000*%
%ADD49O,0.07500X0.05000*%
%ADD50R,0.07500X0.05000*%
%ADD51C,0.02800*%
G36*
X166422Y369847D02*
X160775Y364200D01*
X151550D01*
Y356800D01*
X158254D01*
X158875Y355300D01*
X157789Y354214D01*
X157750Y354218D01*
X155250D01*
X154525Y354147D01*
X153827Y353935D01*
X153184Y353591D01*
X152621Y353129D01*
X152159Y352566D01*
X151815Y351923D01*
X151603Y351225D01*
X151532Y350500D01*
X151603Y349775D01*
X151815Y349077D01*
X152159Y348434D01*
X152621Y347871D01*
X153184Y347409D01*
X153827Y347065D01*
X154525Y346853D01*
X155250Y346782D01*
X157750D01*
X158289Y346835D01*
X158633Y346454D01*
X159029Y345454D01*
X157789Y344214D01*
X157750Y344218D01*
X155250D01*
X154525Y344146D01*
X153827Y343935D01*
X153184Y343591D01*
X152621Y343129D01*
X152159Y342565D01*
X151815Y341923D01*
X151603Y341225D01*
X151532Y340500D01*
X151603Y339775D01*
X151815Y339077D01*
X152159Y338435D01*
X152621Y337871D01*
X153184Y337409D01*
X153827Y337065D01*
X154525Y336854D01*
X155250Y336782D01*
X157750D01*
X158475Y336854D01*
X159173Y337065D01*
X159816Y337409D01*
X160379Y337871D01*
X160841Y338435D01*
X161185Y339077D01*
X161397Y339775D01*
X161468Y340500D01*
X161397Y341225D01*
X161185Y341923D01*
X160893Y342468D01*
X165212Y346788D01*
X165295Y346895D01*
X165485Y347143D01*
X165585Y347385D01*
X165656Y347556D01*
X165685Y347778D01*
X165715Y348000D01*
Y359199D01*
X171701Y365185D01*
X213471D01*
X213904Y363749D01*
X213296Y363424D01*
X212763Y362987D01*
X212326Y362454D01*
X212001Y361846D01*
X211801Y361186D01*
X211792Y361100D01*
X221208D01*
X221199Y361186D01*
X220999Y361846D01*
X220674Y362454D01*
X220237Y362987D01*
X219704Y363424D01*
X219096Y363749D01*
X219529Y365185D01*
X235799D01*
X237185Y363799D01*
Y355509D01*
X237215Y355287D01*
X237244Y355065D01*
X237365Y354773D01*
X237415Y354651D01*
X237688Y354296D01*
X243096Y348888D01*
X243132Y348860D01*
X243272Y348653D01*
X243489Y347473D01*
X243495Y347277D01*
X243451Y347058D01*
X238688Y342295D01*
X238415Y341940D01*
X238365Y341818D01*
X238244Y341526D01*
X238215Y341304D01*
X238185Y341082D01*
Y332970D01*
X238000Y332914D01*
X237548Y332672D01*
X237153Y332347D01*
X236828Y331951D01*
X236586Y331500D01*
X236438Y331010D01*
X236387Y330500D01*
X236438Y329990D01*
X236586Y329500D01*
X236828Y329048D01*
X237082Y328500D01*
X236828Y327952D01*
X236586Y327500D01*
X236438Y327010D01*
X236387Y326500D01*
X236438Y325990D01*
X236586Y325500D01*
X236828Y325048D01*
X237153Y324653D01*
X237548Y324328D01*
X238000Y324086D01*
X238490Y323938D01*
X239000Y323887D01*
X239510Y323938D01*
X240000Y324086D01*
X240452Y324328D01*
X240847Y324653D01*
X241172Y325048D01*
X241414Y325500D01*
X241562Y325990D01*
X241613Y326500D01*
X241580Y326836D01*
X242913Y328169D01*
X243067Y328370D01*
X243185Y328524D01*
X243256Y328696D01*
X243356Y328938D01*
X243415Y329382D01*
Y339627D01*
X248573Y344785D01*
X307062D01*
X308905Y342942D01*
Y340200D01*
X308213Y339699D01*
X307405Y339378D01*
X307106Y339502D01*
X306535Y339577D01*
X305965Y339502D01*
X305434Y339282D01*
X304978Y338932D01*
X304627Y338476D01*
X304407Y337944D01*
X304332Y337374D01*
X304407Y336804D01*
X304627Y336272D01*
X304978Y335816D01*
X305434Y335466D01*
X305965Y335246D01*
X306535Y335171D01*
X307106Y335246D01*
X307405Y335370D01*
X308213Y335049D01*
X308905Y334548D01*
Y324452D01*
X308213Y323951D01*
X307405Y323630D01*
X307106Y323754D01*
X306535Y323829D01*
X305965Y323754D01*
X305434Y323534D01*
X304978Y323184D01*
X304627Y322728D01*
X304407Y322196D01*
X304332Y321626D01*
X304407Y321056D01*
X304627Y320524D01*
X304978Y320068D01*
X305434Y319718D01*
X305965Y319498D01*
X306535Y319423D01*
X307106Y319498D01*
X307405Y319622D01*
X308213Y319301D01*
X308905Y318800D01*
Y241830D01*
X307789Y240714D01*
X307750Y240718D01*
X305250D01*
X304525Y240647D01*
X303827Y240435D01*
X303185Y240091D01*
X302950Y239899D01*
X301842Y240253D01*
X301450Y240566D01*
Y240700D01*
X300915D01*
Y258346D01*
X300863Y258738D01*
X300856Y258789D01*
X300817Y258883D01*
X300685Y259203D01*
X300495Y259451D01*
X300412Y259558D01*
X292424Y267546D01*
X292069Y267819D01*
X291948Y267869D01*
X291655Y267990D01*
X291434Y268019D01*
X291212Y268049D01*
X270955D01*
X264291Y274712D01*
X263935Y274985D01*
X263522Y275156D01*
X263078Y275215D01*
X233756D01*
X221458Y287512D01*
X221118Y288021D01*
X221185Y289077D01*
X221396Y289775D01*
X221468Y290500D01*
X221396Y291225D01*
X221185Y291923D01*
X220841Y292565D01*
X220379Y293129D01*
X219815Y293591D01*
X219173Y293935D01*
X218475Y294146D01*
X217750Y294218D01*
X215250D01*
X214525Y294146D01*
X213827Y293935D01*
X213184Y293591D01*
X212621Y293129D01*
X212159Y292565D01*
X211815Y291923D01*
X211603Y291225D01*
X211532Y290500D01*
X211603Y289775D01*
X211682Y289515D01*
X211100Y288407D01*
X210682Y288015D01*
X194000D01*
X193778Y287985D01*
X193556Y287956D01*
X193385Y287885D01*
X193143Y287785D01*
X192895Y287595D01*
X192788Y287512D01*
X190871Y285596D01*
X190700Y285613D01*
X190190Y285562D01*
X189700Y285414D01*
X189249Y285172D01*
X188853Y284847D01*
X188528Y284452D01*
X188286Y284000D01*
X188138Y283510D01*
X188087Y283000D01*
X188138Y282490D01*
X188286Y282000D01*
X188528Y281549D01*
X188853Y281153D01*
X189249Y280828D01*
X189700Y280586D01*
X190190Y280438D01*
X190700Y280387D01*
X191210Y280438D01*
X191700Y280586D01*
X192151Y280828D01*
X192547Y281153D01*
X193153D01*
X193549Y280828D01*
X194000Y280586D01*
X194490Y280438D01*
X195000Y280387D01*
X195510Y280438D01*
X196000Y280586D01*
X196451Y280828D01*
X196847Y281153D01*
X197172Y281549D01*
X197414Y282000D01*
X197562Y282490D01*
X197572Y282585D01*
X210488D01*
X210614Y282522D01*
X211551Y281294D01*
X211590Y281085D01*
X211532Y280500D01*
X211603Y279775D01*
X211743Y279315D01*
X211404Y278571D01*
X210789Y277815D01*
X184100D01*
X183656Y277756D01*
X183414Y277656D01*
X183243Y277585D01*
X183089Y277467D01*
X182888Y277312D01*
X178671Y273096D01*
X178500Y273113D01*
X177990Y273062D01*
X177500Y272914D01*
X177049Y272672D01*
X176500Y272418D01*
X175952Y272672D01*
X175500Y272914D01*
X175010Y273062D01*
X174500Y273113D01*
X173990Y273062D01*
X173500Y272914D01*
X173048Y272672D01*
X172653Y272347D01*
X172328Y271952D01*
X172086Y271500D01*
X171938Y271010D01*
X171887Y270500D01*
X171938Y269990D01*
X172086Y269500D01*
X172328Y269049D01*
X172653Y268653D01*
X173048Y268328D01*
X173500Y268086D01*
X173990Y267938D01*
X174500Y267887D01*
X174836Y267920D01*
X179469Y263287D01*
X179824Y263015D01*
X180238Y262844D01*
X180682Y262785D01*
X210575D01*
X210839Y262602D01*
X211622Y261285D01*
X211603Y261225D01*
X211532Y260500D01*
X211603Y259775D01*
X211815Y259077D01*
X212159Y258435D01*
X212621Y257871D01*
X213184Y257409D01*
X213827Y257065D01*
X214525Y256854D01*
X215250Y256782D01*
X217750D01*
X218475Y256854D01*
X219173Y257065D01*
X219815Y257409D01*
X220379Y257871D01*
X220841Y258435D01*
X221185Y259077D01*
X221396Y259775D01*
X221468Y260500D01*
X221396Y261225D01*
X221378Y261285D01*
X222161Y262602D01*
X222425Y262785D01*
X258640D01*
X282535Y238890D01*
Y208334D01*
X282070Y207871D01*
X281100Y207379D01*
Y205000D01*
Y202622D01*
X282070Y202129D01*
X282535Y201666D01*
Y199250D01*
X282564Y199028D01*
X282594Y198806D01*
X282715Y198514D01*
X282765Y198393D01*
X283038Y198038D01*
X292107Y188968D01*
X291815Y188423D01*
X291603Y187725D01*
X291532Y187000D01*
X291603Y186275D01*
X291794Y185647D01*
X291815Y185567D01*
X291755Y184348D01*
X291388Y183812D01*
X289890Y182315D01*
X287425D01*
X287129Y182461D01*
X286113Y183500D01*
X286062Y184010D01*
X285914Y184500D01*
X285672Y184951D01*
X285347Y185347D01*
X284951Y185672D01*
X284500Y185914D01*
X284010Y186062D01*
X283500Y186113D01*
X282990Y186062D01*
X282500Y185914D01*
X282049Y185672D01*
X281860Y185517D01*
X264017D01*
Y203254D01*
X264146Y204742D01*
X264655Y204792D01*
X265146Y204941D01*
X265597Y205182D01*
X265993Y205507D01*
X266084Y205617D01*
X266427Y205750D01*
X267405Y205823D01*
X267597Y205809D01*
X267889Y205717D01*
X268160Y205495D01*
X268577Y205272D01*
X268900Y205174D01*
Y207500D01*
Y209826D01*
X268577Y209728D01*
X268160Y209505D01*
X267795Y209205D01*
X267498Y209125D01*
X266991Y209369D01*
X266017Y210355D01*
Y239440D01*
X266500Y239586D01*
X266951Y239828D01*
X267795Y240295D01*
X268160Y239995D01*
X268577Y239772D01*
X268900Y239674D01*
Y242000D01*
Y244326D01*
X268577Y244228D01*
X268160Y244005D01*
X267795Y243705D01*
X266951Y244172D01*
X266500Y244414D01*
X266010Y244562D01*
X265767Y244586D01*
X260926Y249426D01*
X260509Y249747D01*
X260022Y249949D01*
X259500Y250017D01*
X252140D01*
X251952Y250172D01*
X251500Y250414D01*
X251010Y250562D01*
X250500Y250613D01*
X249990Y250562D01*
X249500Y250414D01*
X249048Y250172D01*
X248653Y249847D01*
X248628Y249817D01*
X247800D01*
X247278Y249748D01*
X246791Y249547D01*
X246374Y249226D01*
X243734Y246586D01*
X243490Y246562D01*
X243000Y246414D01*
X242548Y246172D01*
X242153Y245847D01*
X241828Y245451D01*
X241586Y245000D01*
X241438Y244510D01*
X241403Y244160D01*
X239896D01*
X239865Y244471D01*
X239728Y244923D01*
X239505Y245340D01*
X239205Y245705D01*
X238840Y246005D01*
X238423Y246228D01*
X238100Y246326D01*
Y244000D01*
X236900D01*
Y246326D01*
X236577Y246228D01*
X236160Y246005D01*
X235795Y245705D01*
X235495Y245340D01*
X235272Y244923D01*
X233707Y244824D01*
X233424Y244959D01*
X233359Y245033D01*
X233148Y245427D01*
X232823Y245823D01*
X232427Y246148D01*
X231975Y246389D01*
X231485Y246538D01*
X230976Y246588D01*
X230466Y246538D01*
X229976Y246389D01*
X229524Y246148D01*
X229128Y245823D01*
X228803Y245427D01*
X228562Y244975D01*
X228413Y244485D01*
X228363Y243976D01*
X228413Y243466D01*
X228562Y242976D01*
X228803Y242524D01*
X229128Y242128D01*
X229096Y241468D01*
X228983Y240994D01*
X228901Y240758D01*
X228770Y240538D01*
X228643Y240485D01*
X228395Y240295D01*
X228288Y240212D01*
X223671Y235596D01*
X223500Y235613D01*
X222990Y235562D01*
X222500Y235414D01*
X222048Y235172D01*
X221653Y234847D01*
X221328Y234452D01*
X221268Y234340D01*
X220392Y233888D01*
X219545Y233752D01*
X219500Y233760D01*
X219173Y233935D01*
X218475Y234146D01*
X217750Y234218D01*
X215250D01*
X214525Y234146D01*
X213827Y233935D01*
X213184Y233591D01*
X212621Y233129D01*
X212159Y232565D01*
X211815Y231923D01*
X211603Y231225D01*
X211532Y230500D01*
X211603Y229775D01*
X211815Y229077D01*
X212107Y228532D01*
X203790Y220215D01*
X193456D01*
X193347Y220347D01*
X192952Y220672D01*
X192500Y220914D01*
X192010Y221062D01*
X191500Y221113D01*
X190990Y221062D01*
X190500Y220914D01*
X190049Y220672D01*
X189653Y220347D01*
X189328Y219952D01*
X189086Y219500D01*
X188938Y219010D01*
X188887Y218500D01*
X188938Y217990D01*
X189086Y217500D01*
X189328Y217049D01*
X189582Y216500D01*
X189328Y215951D01*
X189086Y215500D01*
X188938Y215010D01*
X188887Y214500D01*
X188938Y213990D01*
X189086Y213500D01*
X189328Y213049D01*
X189653Y212653D01*
X190049Y212328D01*
X190153Y212001D01*
Y210999D01*
X190049Y210672D01*
X189653Y210347D01*
X189328Y209951D01*
X189086Y209500D01*
X188938Y209010D01*
X188887Y208500D01*
X188938Y207990D01*
X189086Y207500D01*
X189328Y207049D01*
X189653Y206653D01*
X190049Y206328D01*
X190500Y206086D01*
X190990Y205938D01*
X191500Y205887D01*
X192010Y205938D01*
X192500Y206086D01*
X192952Y206328D01*
X193347Y206653D01*
X193456Y206785D01*
X214500D01*
X214722Y206815D01*
X214807Y206826D01*
X215250Y206782D01*
X217750D01*
X218475Y206854D01*
X219173Y207065D01*
X219815Y207409D01*
X220379Y207871D01*
X220841Y208435D01*
X221185Y209077D01*
X221396Y209775D01*
X221468Y210500D01*
X221396Y211225D01*
X221185Y211923D01*
X220841Y212565D01*
X220379Y213129D01*
X219815Y213591D01*
X219173Y213935D01*
X218475Y214146D01*
X217750Y214218D01*
X215250D01*
X214711Y214165D01*
X214367Y214546D01*
X213971Y215546D01*
X215211Y216786D01*
X215250Y216782D01*
X217750D01*
X218475Y216853D01*
X219173Y217065D01*
X219815Y217409D01*
X220379Y217871D01*
X220841Y218435D01*
X221185Y219077D01*
X221396Y219775D01*
X221468Y220500D01*
X221396Y221225D01*
X221185Y221923D01*
X220841Y222566D01*
X220379Y223129D01*
X219815Y223591D01*
X219173Y223935D01*
X218475Y224147D01*
X217750Y224218D01*
X215250D01*
X214711Y224165D01*
X214367Y224546D01*
X213971Y225546D01*
X215211Y226786D01*
X215250Y226782D01*
X217750D01*
X218475Y226853D01*
X219173Y227065D01*
X219815Y227409D01*
X220379Y227871D01*
X220841Y228434D01*
X221185Y229077D01*
X221322Y229529D01*
X221792Y229950D01*
X222929Y230456D01*
X222990Y230438D01*
X223500Y230387D01*
X224010Y230438D01*
X224500Y230586D01*
X224952Y230828D01*
X225347Y231153D01*
X225672Y231549D01*
X225914Y232000D01*
X226062Y232490D01*
X226113Y233000D01*
X226096Y233171D01*
X230210Y237285D01*
X248290D01*
X251785Y233790D01*
Y224000D01*
X251815Y223778D01*
X251844Y223556D01*
X251965Y223264D01*
X252015Y223143D01*
X252288Y222788D01*
X254285Y220790D01*
Y180182D01*
X254314Y179960D01*
X254344Y179738D01*
X254465Y179445D01*
X254515Y179324D01*
X254788Y178969D01*
X258169Y175587D01*
X258524Y175315D01*
X258633Y175270D01*
X259024Y174299D01*
X259094Y173610D01*
X250788Y165304D01*
X250515Y164948D01*
X250465Y164827D01*
X250344Y164535D01*
X250314Y164313D01*
X250285Y164091D01*
Y161956D01*
X250153Y161847D01*
X249828Y161451D01*
X249586Y161000D01*
X249438Y160510D01*
X249387Y160000D01*
X249438Y159490D01*
X248075Y158816D01*
X247838Y158768D01*
X240394Y166212D01*
X240039Y166485D01*
X239625Y166656D01*
X239182Y166715D01*
X229215D01*
Y177000D01*
X229156Y177444D01*
X228985Y177857D01*
X228867Y178012D01*
X228713Y178212D01*
X220697Y186228D01*
X220379Y187871D01*
X220841Y188434D01*
X221185Y189077D01*
X221396Y189775D01*
X221468Y190500D01*
X221396Y191225D01*
X221185Y191923D01*
X220841Y192566D01*
X220379Y193129D01*
X219815Y193591D01*
X219173Y193935D01*
X218475Y194147D01*
X217750Y194218D01*
X215250D01*
X214525Y194147D01*
X213827Y193935D01*
X213184Y193591D01*
X212621Y193129D01*
X212159Y192566D01*
X211815Y191923D01*
X211603Y191225D01*
X211532Y190500D01*
X211603Y189775D01*
X211622Y189715D01*
X210839Y188398D01*
X210575Y188215D01*
X202956D01*
X202847Y188347D01*
X202451Y188672D01*
X202000Y188914D01*
X201510Y189062D01*
X201000Y189113D01*
X200490Y189062D01*
X200000Y188914D01*
X199548Y188672D01*
X199153Y188347D01*
X198828Y187952D01*
X198586Y187500D01*
X198438Y187010D01*
X198387Y186500D01*
X198438Y185990D01*
X198586Y185500D01*
X198828Y185048D01*
X199153Y184653D01*
X199548Y184328D01*
X200000Y184086D01*
X200490Y183938D01*
X201000Y183887D01*
X201510Y183938D01*
X202000Y184086D01*
X202451Y184328D01*
X202847Y184653D01*
X202956Y184785D01*
X212347D01*
X212812Y183285D01*
X212621Y183129D01*
X212159Y182566D01*
X211815Y181923D01*
X211603Y181225D01*
X211532Y180500D01*
X211603Y179775D01*
X211815Y179077D01*
X212107Y178532D01*
X204145Y170570D01*
X202847Y169847D01*
X202451Y170172D01*
X202000Y170414D01*
X201599Y170535D01*
X201444Y170618D01*
X201363Y170688D01*
X200623Y171799D01*
X200584Y171923D01*
X200571Y172078D01*
X200613Y172500D01*
X200562Y173010D01*
X200414Y173500D01*
X200172Y173951D01*
X200138Y173994D01*
X199847Y174558D01*
Y175442D01*
X200138Y176006D01*
X200172Y176049D01*
X200414Y176500D01*
X200562Y176990D01*
X200613Y177500D01*
X200562Y178010D01*
X200414Y178500D01*
X200172Y178952D01*
X199847Y179347D01*
X199451Y179672D01*
X199000Y179914D01*
X198510Y180062D01*
X198000Y180113D01*
X197490Y180062D01*
X197000Y179914D01*
X196548Y179672D01*
X196153Y179347D01*
X195828Y178952D01*
X195586Y178500D01*
X195438Y178010D01*
X195387Y177500D01*
X195404Y177329D01*
X193788Y175712D01*
X193515Y175357D01*
X193465Y175236D01*
X193344Y174944D01*
X193315Y174722D01*
X193285Y174500D01*
Y167454D01*
X193315Y167233D01*
X193344Y167011D01*
X193465Y166718D01*
X193515Y166597D01*
X193788Y166242D01*
X199542Y160488D01*
X199720Y160351D01*
X199897Y160215D01*
X200311Y160044D01*
X200754Y159985D01*
X205889D01*
X205938Y159490D01*
X206086Y159000D01*
X206328Y158548D01*
X206653Y158153D01*
X207049Y157828D01*
X207500Y157586D01*
X207990Y157438D01*
X208500Y157387D01*
X209010Y157438D01*
X209500Y157586D01*
X209951Y157828D01*
X210347Y158153D01*
X210469Y158301D01*
X210672Y158548D01*
X210672Y158549D01*
X210914Y159000D01*
X210914Y159001D01*
X211062Y159490D01*
X211066Y159530D01*
X211069Y159553D01*
X211069D01*
X211693Y160794D01*
X212010Y160938D01*
X212500Y161086D01*
X212951Y161328D01*
X213347Y161653D01*
X213672Y162048D01*
X213914Y162500D01*
X214062Y162990D01*
X214113Y163500D01*
X214062Y164010D01*
X213914Y164500D01*
X213672Y164952D01*
X213347Y165347D01*
X212951Y165672D01*
X212500Y165914D01*
X212010Y166062D01*
X211500Y166113D01*
X210990Y166062D01*
X210500Y165914D01*
X210049Y165672D01*
X209653Y165347D01*
X209544Y165215D01*
X205517D01*
X205285Y165671D01*
X205118Y166715D01*
X205212Y166788D01*
X210204Y171779D01*
X211204Y171384D01*
X211585Y171039D01*
X211532Y170500D01*
X211603Y169775D01*
X211815Y169077D01*
X212159Y168434D01*
X212621Y167871D01*
X213184Y167409D01*
X213827Y167065D01*
X214525Y166853D01*
X215250Y166782D01*
X217750D01*
X218475Y166853D01*
X219173Y167065D01*
X219815Y167409D01*
X220379Y167871D01*
X220841Y168434D01*
X221185Y169077D01*
X221396Y169775D01*
X221468Y170500D01*
X221396Y171225D01*
X221185Y171923D01*
X220841Y172566D01*
X220379Y173129D01*
X219815Y173591D01*
X219173Y173935D01*
X218475Y174146D01*
X217750Y174218D01*
X215250D01*
X214711Y174165D01*
X214367Y174546D01*
X213971Y175546D01*
X215211Y176786D01*
X215250Y176782D01*
X217750D01*
X218475Y176854D01*
X219173Y177065D01*
X219815Y177409D01*
X220379Y177871D01*
X220841Y178434D01*
X221077Y178876D01*
X221792Y179148D01*
X222810Y179266D01*
X225785Y176290D01*
Y165000D01*
X225844Y164556D01*
X226015Y164143D01*
X226288Y163788D01*
X226643Y163515D01*
X227056Y163344D01*
X227500Y163285D01*
X238471D01*
X249669Y152087D01*
X250024Y151815D01*
X250438Y151644D01*
X250882Y151585D01*
X253118D01*
X253562Y151644D01*
X253976Y151815D01*
X254331Y152088D01*
X257713Y155469D01*
X257867Y155670D01*
X257985Y155824D01*
X258035Y155945D01*
X258156Y156238D01*
X258215Y156682D01*
Y162790D01*
X268710Y173285D01*
X287790D01*
X292107Y168968D01*
X291815Y168423D01*
X291603Y167725D01*
X291532Y167000D01*
X291603Y166275D01*
X291815Y165577D01*
X292159Y164934D01*
X292621Y164371D01*
X293184Y163909D01*
X293827Y163565D01*
X294525Y163354D01*
X295250Y163282D01*
X297750D01*
X298475Y163354D01*
X299173Y163565D01*
X299816Y163909D01*
X300379Y164371D01*
X300609Y164652D01*
X301500Y164814D01*
X302391Y164652D01*
X302621Y164371D01*
X303185Y163909D01*
X303827Y163565D01*
X304525Y163354D01*
X305250Y163282D01*
X307750D01*
X308475Y163354D01*
X309173Y163565D01*
X309816Y163909D01*
X310379Y164371D01*
X310841Y164934D01*
X311185Y165577D01*
X311397Y166275D01*
X311468Y167000D01*
X311397Y167725D01*
X311185Y168423D01*
X310841Y169066D01*
X310379Y169629D01*
X309816Y170091D01*
X309173Y170435D01*
X308475Y170647D01*
X307750Y170718D01*
X305250D01*
X304525Y170647D01*
X303827Y170435D01*
X303185Y170091D01*
X302621Y169629D01*
X302391Y169349D01*
X301500Y169186D01*
X300609Y169349D01*
X300379Y169629D01*
X299816Y170091D01*
X299173Y170435D01*
X298475Y170647D01*
X297750Y170718D01*
X295250D01*
X295211Y170714D01*
X293971Y171954D01*
X294367Y172954D01*
X294711Y173335D01*
X295250Y173282D01*
X297750D01*
X298475Y173354D01*
X299173Y173565D01*
X299816Y173909D01*
X300379Y174371D01*
X300609Y174652D01*
X301500Y174814D01*
X302391Y174652D01*
X302621Y174371D01*
X303185Y173909D01*
X303827Y173565D01*
X304525Y173354D01*
X305250Y173282D01*
X307750D01*
X308475Y173354D01*
X309173Y173565D01*
X309816Y173909D01*
X310379Y174371D01*
X310841Y174934D01*
X311185Y175577D01*
X311397Y176275D01*
X311468Y177000D01*
X311397Y177725D01*
X311185Y178423D01*
X310841Y179066D01*
X310379Y179629D01*
X309816Y180091D01*
X309173Y180435D01*
X308475Y180647D01*
X307750Y180718D01*
X305250D01*
X304711Y180665D01*
X304366Y181046D01*
X303971Y182046D01*
X305211Y183286D01*
X305250Y183282D01*
X307750D01*
X308475Y183353D01*
X309173Y183565D01*
X309816Y183909D01*
X310379Y184371D01*
X310841Y184934D01*
X311185Y185577D01*
X311397Y186275D01*
X311468Y187000D01*
X311397Y187725D01*
X311185Y188423D01*
X310841Y189066D01*
X310379Y189629D01*
X309816Y190091D01*
X309173Y190435D01*
X308475Y190647D01*
X307750Y190718D01*
X305250D01*
X304525Y190647D01*
X303827Y190435D01*
X303185Y190091D01*
X302621Y189629D01*
X302391Y189348D01*
X301500Y189186D01*
X300609Y189348D01*
X300379Y189629D01*
X299816Y190091D01*
X299173Y190435D01*
X298475Y190647D01*
X297750Y190718D01*
X295250D01*
X295211Y190714D01*
X293971Y191954D01*
X294367Y192954D01*
X294711Y193335D01*
X295250Y193282D01*
X297750D01*
X298475Y193353D01*
X299173Y193565D01*
X299816Y193909D01*
X300379Y194371D01*
X300609Y194651D01*
X301500Y194814D01*
X302391Y194651D01*
X302621Y194371D01*
X303185Y193909D01*
X303827Y193565D01*
X304525Y193353D01*
X305250Y193282D01*
X307750D01*
X308475Y193353D01*
X309173Y193565D01*
X309816Y193909D01*
X310379Y194371D01*
X310841Y194934D01*
X311185Y195577D01*
X311397Y196275D01*
X311468Y197000D01*
X311464Y197039D01*
X317733Y203308D01*
X319233Y202687D01*
Y122909D01*
X317733Y122414D01*
X317288Y123014D01*
X316403Y123990D01*
X315427Y124874D01*
X314370Y125659D01*
X313240Y126336D01*
X312049Y126899D01*
X310809Y127343D01*
X309532Y127663D01*
X308229Y127856D01*
X306913Y127921D01*
X305598Y127856D01*
X304295Y127663D01*
X303017Y127343D01*
X301777Y126899D01*
X300587Y126336D01*
X299457Y125659D01*
X298399Y124874D01*
X297423Y123990D01*
X296539Y123014D01*
X295754Y121956D01*
X295077Y120827D01*
X294514Y119636D01*
X294070Y118396D01*
X293750Y117118D01*
X293557Y115815D01*
X293493Y114500D01*
X293557Y113184D01*
X293750Y111882D01*
X294070Y110604D01*
X294514Y109364D01*
X295077Y108173D01*
X295754Y107044D01*
X296539Y105986D01*
X297423Y105010D01*
X298243Y104267D01*
X298182Y103696D01*
X297713Y102767D01*
X275152D01*
X274578Y104153D01*
X292212Y121788D01*
X292295Y121895D01*
X292485Y122143D01*
X292617Y122462D01*
X292656Y122556D01*
X292663Y122608D01*
X292715Y123000D01*
Y142686D01*
X293315Y143223D01*
X294215Y143657D01*
X294564Y143551D01*
X295250Y143483D01*
X295900D01*
Y147000D01*
Y150517D01*
X295250D01*
X294564Y150449D01*
X293904Y150249D01*
X293296Y149924D01*
X292763Y149487D01*
X292671Y149375D01*
X291287Y149102D01*
X290745Y149179D01*
X280241Y159684D01*
Y161316D01*
X280510Y161585D01*
X283344D01*
X283453Y161453D01*
X283849Y161128D01*
X284300Y160886D01*
X284790Y160738D01*
X285300Y160687D01*
X285810Y160738D01*
X286300Y160886D01*
X286752Y161128D01*
X287147Y161453D01*
X287472Y161848D01*
X287714Y162300D01*
X287862Y162790D01*
X287913Y163300D01*
X287862Y163810D01*
X287714Y164300D01*
X287472Y164752D01*
X287147Y165147D01*
X287048Y165229D01*
X286752Y165472D01*
X286751Y165472D01*
X286300Y165714D01*
X285810Y165862D01*
Y165862D01*
X285810D01*
X284916Y166992D01*
X284914Y167000D01*
X284672Y167452D01*
X284347Y167847D01*
X283951Y168172D01*
X283500Y168414D01*
X283010Y168562D01*
X282500Y168613D01*
X281990Y168562D01*
X281503Y168415D01*
X275382D01*
X275160Y168385D01*
X274938Y168356D01*
X274645Y168235D01*
X274524Y168185D01*
X274169Y167912D01*
X272588Y166331D01*
X272315Y165976D01*
X272265Y165855D01*
X272144Y165562D01*
X272114Y165340D01*
X272085Y165118D01*
Y157700D01*
X272115Y157478D01*
X272144Y157256D01*
X272265Y156964D01*
X272315Y156843D01*
X272588Y156488D01*
X275834Y153241D01*
X275906Y152717D01*
X275653Y151347D01*
X275328Y150952D01*
X275086Y150500D01*
X274938Y150010D01*
X274887Y149500D01*
X274938Y148990D01*
X275086Y148500D01*
X275257Y148181D01*
X266290Y139215D01*
X262456D01*
X262347Y139347D01*
X261951Y139672D01*
X261500Y139914D01*
X261010Y140062D01*
X260500Y140113D01*
X259990Y140062D01*
X259500Y139914D01*
X259049Y139672D01*
X258653Y139347D01*
X258328Y138952D01*
X258086Y138500D01*
X257938Y138010D01*
X257887Y137500D01*
X257938Y136990D01*
X258086Y136500D01*
X258328Y136048D01*
X258653Y135653D01*
X259049Y135328D01*
X259500Y135086D01*
X259990Y134938D01*
X260500Y134887D01*
X261010Y134938D01*
X261500Y135086D01*
X261951Y135328D01*
X262347Y135653D01*
X262456Y135785D01*
X267000D01*
X267222Y135814D01*
X267444Y135844D01*
X267736Y135965D01*
X267857Y136015D01*
X268212Y136288D01*
X278712Y146788D01*
X278795Y146895D01*
X278985Y147143D01*
X279085Y147385D01*
X279118Y147465D01*
X279347Y147653D01*
X280717Y147906D01*
X281241Y147834D01*
X285285Y143790D01*
Y125710D01*
X268290Y108715D01*
X264599D01*
X264025Y110100D01*
X264712Y110787D01*
X264795Y110895D01*
X264985Y111143D01*
X265085Y111385D01*
X265156Y111556D01*
X265185Y111778D01*
X265215Y112000D01*
Y115544D01*
X265347Y115653D01*
X265672Y116049D01*
X265914Y116500D01*
X266062Y116990D01*
X266090Y117271D01*
X266406Y117470D01*
X266659Y117580D01*
X267598Y117719D01*
X267653Y117653D01*
X268049Y117328D01*
X268500Y117086D01*
X268990Y116938D01*
X269500Y116887D01*
X270010Y116938D01*
X270500Y117086D01*
X270952Y117328D01*
X271347Y117653D01*
X271672Y118049D01*
X271914Y118500D01*
X272062Y118990D01*
X272113Y119500D01*
X272062Y120010D01*
X271914Y120500D01*
X271672Y120951D01*
X271347Y121347D01*
X270952Y121672D01*
X270500Y121914D01*
X270418Y121939D01*
X270357Y121985D01*
X269944Y122156D01*
X269500Y122215D01*
X262682D01*
X262460Y122186D01*
X262238Y122156D01*
X262031Y122071D01*
X261824Y121985D01*
X261623Y121831D01*
X261469Y121712D01*
X252271Y112515D01*
X193399D01*
X192825Y113900D01*
X195212Y116288D01*
X195295Y116395D01*
X195485Y116643D01*
X195585Y116885D01*
X195656Y117056D01*
X195686Y117278D01*
X195715Y117500D01*
Y141044D01*
X195847Y141153D01*
X196172Y141549D01*
X196414Y142000D01*
X196562Y142490D01*
X196613Y143000D01*
X196562Y143510D01*
X196414Y144000D01*
X196172Y144451D01*
X195847Y144847D01*
X195451Y145172D01*
X195000Y145414D01*
X194510Y145562D01*
X194000Y145613D01*
X193490Y145562D01*
X193000Y145414D01*
X192549Y145172D01*
X192153Y144847D01*
X191828Y144451D01*
X191586Y144000D01*
X191438Y143510D01*
X191387Y143000D01*
X191438Y142490D01*
X191586Y142000D01*
X191828Y141549D01*
X192153Y141153D01*
X192285Y141044D01*
Y118210D01*
X189067Y114992D01*
X187481Y115176D01*
X186980Y115870D01*
X186972Y115900D01*
X182028D01*
X182020Y115870D01*
X181343Y114931D01*
X181032Y114715D01*
X157718D01*
X157231Y115705D01*
X157170Y116215D01*
X162213Y121257D01*
X162367Y121458D01*
X162485Y121613D01*
X162656Y122026D01*
X162715Y122470D01*
Y144790D01*
X170829Y152904D01*
X171000Y152887D01*
X171510Y152938D01*
X172000Y153086D01*
X172451Y153328D01*
X172847Y153653D01*
X173172Y154049D01*
X173414Y154500D01*
X173562Y154990D01*
X173613Y155500D01*
X173562Y156010D01*
X173414Y156500D01*
X173172Y156951D01*
X172847Y157347D01*
X172451Y157672D01*
X172000Y157914D01*
X171510Y158062D01*
X171000Y158113D01*
X170490Y158062D01*
X170000Y157914D01*
X169548Y157672D01*
X169153Y157347D01*
X168828Y156951D01*
X168501Y156847D01*
X167499D01*
X167172Y156951D01*
X166847Y157347D01*
X166452Y157672D01*
X166000Y157914D01*
X165510Y158062D01*
X165000Y158113D01*
X164490Y158062D01*
X164000Y157914D01*
X163549Y157672D01*
X163153Y157347D01*
X162828Y156951D01*
X162501Y156847D01*
X161499D01*
X161172Y156951D01*
X160847Y157347D01*
X160451Y157672D01*
X160000Y157914D01*
X159510Y158062D01*
X159000Y158113D01*
X158490Y158062D01*
X158000Y157914D01*
X157548Y157672D01*
X157153Y157347D01*
X156828Y156951D01*
X156586Y156500D01*
X156438Y156010D01*
X156387Y155500D01*
X156404Y155329D01*
X154305Y153230D01*
X152919Y153804D01*
Y163781D01*
X155920Y166782D01*
X157750D01*
X158475Y166853D01*
X159173Y167065D01*
X159816Y167409D01*
X160379Y167871D01*
X160841Y168434D01*
X161185Y169077D01*
X161397Y169775D01*
X161468Y170500D01*
X161397Y171225D01*
X161185Y171923D01*
X160841Y172566D01*
X160379Y173129D01*
X159816Y173591D01*
X159173Y173935D01*
X158475Y174146D01*
X157750Y174218D01*
X155250D01*
X154525Y174146D01*
X153827Y173935D01*
X153184Y173591D01*
X152621Y173129D01*
X152159Y172566D01*
X151815Y171923D01*
X151603Y171225D01*
X151532Y170500D01*
X151603Y169775D01*
X151815Y169077D01*
X151858Y168996D01*
X149131Y166269D01*
X148778Y165810D01*
X148557Y165274D01*
X148481Y164700D01*
X148481Y164700D01*
Y144926D01*
X141916Y138362D01*
X140547Y138820D01*
X140315Y139145D01*
Y151863D01*
X140286Y152085D01*
X140256Y152307D01*
X140185Y152478D01*
X140085Y152720D01*
X139895Y152968D01*
X139812Y153075D01*
X137274Y155614D01*
X137319Y157130D01*
X137347Y157153D01*
X137672Y157548D01*
X137798Y157783D01*
X137873Y157925D01*
X137914Y158000D01*
X137919Y158008D01*
X137920Y158009D01*
X137980Y158092D01*
X139694Y158167D01*
X139811Y158004D01*
X139858Y157916D01*
X139924Y157792D01*
X139995Y157660D01*
X140295Y157295D01*
X140660Y156995D01*
X141077Y156772D01*
X141400Y156674D01*
Y159000D01*
Y161326D01*
X141077Y161228D01*
X140660Y161005D01*
X140295Y160705D01*
X139995Y160340D01*
X139924Y160208D01*
X139858Y160084D01*
X139811Y159995D01*
X139694Y159833D01*
X137980Y159908D01*
X137920Y159992D01*
X137919Y159992D01*
X137914Y160000D01*
X137873Y160075D01*
X137798Y160216D01*
X137672Y160451D01*
X137347Y160847D01*
X136951Y161172D01*
X136500Y161414D01*
X136010Y161562D01*
X135500Y161613D01*
X134990Y161562D01*
X134500Y161414D01*
X134048Y161172D01*
X133653Y160847D01*
X133328Y160451D01*
X133086Y160000D01*
X132938Y159510D01*
X131654Y158938D01*
X131417Y158925D01*
X127786Y162556D01*
Y168242D01*
X128747Y168769D01*
X129286Y168928D01*
X129577Y168772D01*
X129900Y168674D01*
Y171000D01*
Y173326D01*
X129577Y173228D01*
X129286Y173072D01*
X128747Y173231D01*
X127786Y173758D01*
Y183379D01*
X127727Y183823D01*
X127556Y184236D01*
X127438Y184390D01*
X127284Y184591D01*
X122663Y189212D01*
X122800Y190993D01*
X123263Y191556D01*
X123606Y192199D01*
X123818Y192897D01*
X123889Y193622D01*
X123818Y194347D01*
X123606Y195045D01*
X123263Y195688D01*
X122800Y196251D01*
X122237Y196713D01*
X121594Y197057D01*
X120896Y197268D01*
X120171Y197340D01*
X117671D01*
X116946Y197268D01*
X116248Y197057D01*
X115606Y196713D01*
X115042Y196251D01*
X114675Y195803D01*
X113834Y195680D01*
X112928Y195780D01*
X112658Y196109D01*
X112125Y196546D01*
X111517Y196871D01*
X110857Y197071D01*
X110171Y197139D01*
X109521D01*
Y193622D01*
X108321D01*
Y197139D01*
X107671D01*
X106985Y197071D01*
X105803Y197945D01*
X105696Y198426D01*
X105813Y199081D01*
X106946Y199976D01*
X107671Y199904D01*
X110171D01*
X110897Y199976D01*
X111594Y200187D01*
X112237Y200531D01*
X112800Y200993D01*
X113030Y201273D01*
X113921Y201436D01*
X114812Y201273D01*
X115042Y200993D01*
X115606Y200531D01*
X116248Y200187D01*
X116946Y199976D01*
X117671Y199904D01*
X120171D01*
X120896Y199976D01*
X121594Y200187D01*
X122237Y200531D01*
X122800Y200993D01*
X123263Y201556D01*
X123606Y202199D01*
X123818Y202897D01*
X123889Y203622D01*
X123818Y204347D01*
X123606Y205045D01*
X123263Y205688D01*
X122800Y206251D01*
X122237Y206713D01*
X121594Y207057D01*
X120896Y207269D01*
X120171Y207340D01*
X117671D01*
X116946Y207269D01*
X116248Y207057D01*
X115606Y206713D01*
X115042Y206251D01*
X114812Y205971D01*
X113921Y205808D01*
X113030Y205971D01*
X112800Y206251D01*
X112237Y206713D01*
X111594Y207057D01*
X110897Y207269D01*
X110171Y207340D01*
X107671D01*
X106946Y207269D01*
X106886Y207250D01*
X106066Y207737D01*
X105869Y208322D01*
Y208922D01*
X106066Y209507D01*
X106886Y209994D01*
X106946Y209976D01*
X107671Y209904D01*
X110171D01*
X110897Y209976D01*
X111594Y210187D01*
X112237Y210531D01*
X112800Y210993D01*
X113030Y211274D01*
X113921Y211436D01*
X114812Y211274D01*
X115042Y210993D01*
X115606Y210531D01*
X116248Y210187D01*
X116946Y209976D01*
X117671Y209904D01*
X120171D01*
X120896Y209976D01*
X121594Y210187D01*
X122237Y210531D01*
X122800Y210993D01*
X123263Y211556D01*
X123459Y211925D01*
X129925D01*
Y206008D01*
X129730Y205644D01*
X129581Y205153D01*
X129531Y204644D01*
X129581Y204134D01*
X129730Y203644D01*
X129971Y203192D01*
X130296Y202796D01*
X130692Y202471D01*
X131144Y202230D01*
X131634Y202081D01*
X132144Y202031D01*
X132653Y202081D01*
X133143Y202230D01*
X133595Y202471D01*
X133991Y202796D01*
X134316Y203192D01*
X134557Y203644D01*
X134706Y204134D01*
X134756Y204644D01*
X134706Y205153D01*
X134557Y205644D01*
X134363Y206008D01*
Y212780D01*
X134557Y213144D01*
X134706Y213634D01*
X134756Y214144D01*
X134706Y214653D01*
X134557Y215143D01*
X134316Y215595D01*
X133991Y215991D01*
X133595Y216316D01*
X133143Y216557D01*
X132653Y216706D01*
X132144Y216756D01*
X131634Y216706D01*
X131144Y216557D01*
X130780Y216363D01*
X122664D01*
X122237Y216713D01*
X121594Y217057D01*
X120896Y217268D01*
X120171Y217340D01*
X117671D01*
X116946Y217268D01*
X116248Y217057D01*
X115606Y216713D01*
X115042Y216251D01*
X114812Y215970D01*
X113921Y215808D01*
X113030Y215970D01*
X112800Y216251D01*
X112237Y216713D01*
X111594Y217057D01*
X110897Y217268D01*
X110171Y217340D01*
X107671D01*
X106946Y217268D01*
X105813Y218163D01*
X105696Y218818D01*
X105803Y219299D01*
X106985Y220173D01*
X107671Y220105D01*
X108321D01*
Y223622D01*
Y227139D01*
X107671D01*
X106985Y227071D01*
X105803Y227945D01*
X105696Y228426D01*
X105813Y229081D01*
X106946Y229976D01*
X107671Y229904D01*
X110171D01*
X110897Y229976D01*
X111594Y230187D01*
X112237Y230531D01*
X112800Y230993D01*
X113030Y231274D01*
X113921Y231436D01*
X114812Y231274D01*
X115042Y230993D01*
X115606Y230531D01*
X116248Y230187D01*
X116946Y229976D01*
X117671Y229904D01*
X120171D01*
X120896Y229976D01*
X121594Y230187D01*
X122237Y230531D01*
X122800Y230993D01*
X123263Y231556D01*
X123606Y232199D01*
X123818Y232897D01*
X123889Y233622D01*
X123818Y234347D01*
X123606Y235045D01*
X123263Y235688D01*
X122800Y236251D01*
X122237Y236713D01*
X121594Y237057D01*
X120896Y237268D01*
X120171Y237340D01*
X117671D01*
X116946Y237268D01*
X116248Y237057D01*
X115606Y236713D01*
X115042Y236251D01*
X114812Y235970D01*
X113921Y235808D01*
X113030Y235970D01*
X112800Y236251D01*
X112237Y236713D01*
X111594Y237057D01*
X110897Y237268D01*
X110171Y237340D01*
X107671D01*
X106946Y237268D01*
X106886Y237250D01*
X106066Y237737D01*
X105869Y238322D01*
Y238922D01*
X106066Y239507D01*
X106886Y239994D01*
X106946Y239976D01*
X107671Y239904D01*
X110171D01*
X110897Y239976D01*
X111594Y240187D01*
X112237Y240531D01*
X112800Y240993D01*
X113030Y241273D01*
X113921Y241436D01*
X114812Y241273D01*
X115042Y240993D01*
X115606Y240531D01*
X116248Y240187D01*
X116946Y239976D01*
X117671Y239904D01*
X120171D01*
X120896Y239976D01*
X121594Y240187D01*
X122237Y240531D01*
X122800Y240993D01*
X123263Y241556D01*
X123606Y242199D01*
X123818Y242897D01*
X123889Y243622D01*
X123818Y244347D01*
X123606Y245045D01*
X123263Y245688D01*
X122800Y246251D01*
X122237Y246713D01*
X121594Y247057D01*
X120896Y247269D01*
X120171Y247340D01*
X117671D01*
X116946Y247269D01*
X116248Y247057D01*
X115606Y246713D01*
X115042Y246251D01*
X114812Y245971D01*
X113921Y245808D01*
X113030Y245971D01*
X112800Y246251D01*
X112237Y246713D01*
X111594Y247057D01*
X110897Y247269D01*
X110171Y247340D01*
X107671D01*
X106946Y247269D01*
X106886Y247250D01*
X106066Y247737D01*
X105869Y248322D01*
Y248922D01*
X106066Y249507D01*
X106886Y249994D01*
X106946Y249975D01*
X107671Y249904D01*
X110171D01*
X110897Y249975D01*
X111594Y250187D01*
X112237Y250531D01*
X112800Y250993D01*
X113168Y251441D01*
X114008Y251564D01*
X114914Y251464D01*
X115184Y251135D01*
X115717Y250698D01*
X116325Y250373D01*
X116985Y250173D01*
X117671Y250105D01*
X118321D01*
Y253622D01*
Y257139D01*
X117671D01*
X116985Y257071D01*
X116325Y256871D01*
X115717Y256546D01*
X115184Y256109D01*
X114914Y255780D01*
X114008Y255680D01*
X113168Y255803D01*
X112800Y256251D01*
X112237Y256713D01*
X111594Y257057D01*
X110897Y257269D01*
X110171Y257340D01*
X107671D01*
X106946Y257269D01*
X106886Y257250D01*
X106066Y257737D01*
X105869Y258322D01*
Y258922D01*
X106066Y259507D01*
X106886Y259994D01*
X106946Y259976D01*
X107671Y259904D01*
X110171D01*
X110897Y259976D01*
X111594Y260187D01*
X112237Y260531D01*
X112800Y260993D01*
X113030Y261274D01*
X113921Y261436D01*
X114812Y261274D01*
X115042Y260993D01*
X115606Y260531D01*
X116248Y260187D01*
X116946Y259976D01*
X117671Y259904D01*
X120171D01*
X120896Y259976D01*
X121594Y260187D01*
X122237Y260531D01*
X122800Y260993D01*
X123263Y261556D01*
X123606Y262199D01*
X123818Y262897D01*
X123889Y263622D01*
X123818Y264347D01*
X123606Y265045D01*
X123263Y265688D01*
X122800Y266251D01*
X122237Y266713D01*
X121594Y267057D01*
X120896Y267268D01*
X120171Y267340D01*
X117671D01*
X116946Y267268D01*
X116248Y267057D01*
X115606Y266713D01*
X115042Y266251D01*
X114812Y265970D01*
X113921Y265808D01*
X113030Y265970D01*
X112800Y266251D01*
X112237Y266713D01*
X111594Y267057D01*
X110897Y267268D01*
X110171Y267340D01*
X107671D01*
X106946Y267268D01*
X106886Y267250D01*
X106066Y267737D01*
X105869Y268322D01*
Y268922D01*
X106066Y269507D01*
X106886Y269994D01*
X106946Y269975D01*
X107671Y269904D01*
X110171D01*
X110897Y269975D01*
X111594Y270187D01*
X112237Y270531D01*
X112800Y270993D01*
X113030Y271273D01*
X113921Y271436D01*
X114812Y271273D01*
X115042Y270993D01*
X115606Y270531D01*
X116248Y270187D01*
X116946Y269975D01*
X117671Y269904D01*
X120171D01*
X120896Y269975D01*
X121594Y270187D01*
X122237Y270531D01*
X122800Y270993D01*
X123263Y271556D01*
X123606Y272199D01*
X123818Y272897D01*
X123889Y273622D01*
X123818Y274347D01*
X123606Y275045D01*
X123263Y275688D01*
X122800Y276251D01*
X122756Y276287D01*
X122491Y277838D01*
X122579Y278231D01*
X126906Y282558D01*
X127000Y282586D01*
X127452Y282828D01*
X127847Y283153D01*
X128172Y283548D01*
X128414Y284000D01*
X128562Y284490D01*
X128613Y285000D01*
X128562Y285510D01*
X128414Y286000D01*
X128172Y286452D01*
X127847Y286847D01*
X127452Y287172D01*
X127000Y287414D01*
X126510Y287562D01*
X126000Y287613D01*
X125490Y287562D01*
X125000Y287414D01*
X124548Y287172D01*
X124212Y286896D01*
X124096Y286822D01*
X123403Y286517D01*
X122262Y286693D01*
X122237Y286713D01*
X121594Y287057D01*
X120896Y287268D01*
X120171Y287340D01*
X117671D01*
X116946Y287268D01*
X116248Y287057D01*
X115606Y286713D01*
X115042Y286251D01*
X114812Y285970D01*
X113921Y285808D01*
X113030Y285970D01*
X112800Y286251D01*
X112237Y286713D01*
X111594Y287057D01*
X110897Y287268D01*
X110171Y287340D01*
X107671D01*
X106946Y287268D01*
X106248Y287057D01*
X105606Y286713D01*
X105042Y286251D01*
X104580Y285688D01*
X104236Y285045D01*
X102767Y285368D01*
Y291766D01*
X103739Y292864D01*
X104238Y292884D01*
X104311Y292641D01*
X104422Y292276D01*
X104747Y291668D01*
X104747Y291668D01*
X104792Y291613D01*
X105184Y291135D01*
X105717Y290698D01*
X106325Y290373D01*
X106985Y290173D01*
X107671Y290105D01*
X108321D01*
Y293622D01*
Y297139D01*
X107671D01*
X106985Y297071D01*
X106325Y296871D01*
X105717Y296546D01*
X105184Y296109D01*
X104792Y295631D01*
X104747Y295576D01*
X104747Y295576D01*
X104422Y294968D01*
X104311Y294603D01*
X104238Y294360D01*
X103739Y294380D01*
X102767Y295478D01*
Y301876D01*
X104236Y302199D01*
X104580Y301556D01*
X105042Y300993D01*
X105606Y300531D01*
X106248Y300187D01*
X106946Y299975D01*
X107671Y299904D01*
X110171D01*
X110897Y299975D01*
X111594Y300187D01*
X112237Y300531D01*
X112800Y300993D01*
X113030Y301273D01*
X113921Y301436D01*
X114812Y301273D01*
X115042Y300993D01*
X115606Y300531D01*
X116248Y300187D01*
X116946Y299975D01*
X117671Y299904D01*
X120171D01*
X120896Y299975D01*
X121594Y300187D01*
X122237Y300531D01*
X122800Y300993D01*
X123263Y301556D01*
X123606Y302199D01*
X123818Y302897D01*
X123889Y303622D01*
X123818Y304347D01*
X123606Y305045D01*
X123263Y305688D01*
X122800Y306251D01*
X122237Y306713D01*
X121594Y307057D01*
X120896Y307269D01*
X120171Y307340D01*
X117671D01*
X116946Y307269D01*
X116248Y307057D01*
X115606Y306713D01*
X115042Y306251D01*
X114812Y305971D01*
X113921Y305808D01*
X113030Y305971D01*
X112800Y306251D01*
X112237Y306713D01*
X111594Y307057D01*
X110897Y307269D01*
X110171Y307340D01*
X107671D01*
X106946Y307269D01*
X106248Y307057D01*
X105606Y306713D01*
X105042Y306251D01*
X104580Y305688D01*
X104236Y305045D01*
X102767Y305368D01*
Y311876D01*
X104236Y312199D01*
X104580Y311556D01*
X105042Y310993D01*
X105606Y310531D01*
X106248Y310187D01*
X106946Y309976D01*
X107671Y309904D01*
X110171D01*
X110897Y309976D01*
X111594Y310187D01*
X112237Y310531D01*
X112800Y310993D01*
X113030Y311274D01*
X113921Y311436D01*
X114812Y311274D01*
X115042Y310993D01*
X115606Y310531D01*
X116248Y310187D01*
X116946Y309976D01*
X117671Y309904D01*
X120171D01*
X120896Y309976D01*
X121594Y310187D01*
X122237Y310531D01*
X122800Y310993D01*
X123263Y311556D01*
X123606Y312199D01*
X123818Y312897D01*
X123889Y313622D01*
X123818Y314347D01*
X123606Y315045D01*
X123263Y315688D01*
X122800Y316251D01*
X122237Y316713D01*
X121594Y317057D01*
X120896Y317268D01*
X120171Y317340D01*
X117671D01*
X116946Y317268D01*
X116248Y317057D01*
X115606Y316713D01*
X115042Y316251D01*
X114812Y315970D01*
X113921Y315808D01*
X113030Y315970D01*
X112800Y316251D01*
X112237Y316713D01*
X111594Y317057D01*
X110897Y317268D01*
X110171Y317340D01*
X107671D01*
X106946Y317268D01*
X106248Y317057D01*
X105606Y316713D01*
X105042Y316251D01*
X104580Y315688D01*
X104236Y315045D01*
X102767Y315368D01*
Y321876D01*
X104236Y322199D01*
X104580Y321556D01*
X105042Y320993D01*
X105606Y320531D01*
X106248Y320187D01*
X106946Y319975D01*
X107671Y319904D01*
X110171D01*
X110897Y319975D01*
X111594Y320187D01*
X112237Y320531D01*
X112800Y320993D01*
X113168Y321441D01*
X114008Y321564D01*
X114914Y321464D01*
X115184Y321135D01*
X115717Y320698D01*
X116325Y320373D01*
X116985Y320173D01*
X117671Y320105D01*
X118321D01*
Y323622D01*
Y327139D01*
X117671D01*
X116985Y327071D01*
X116325Y326871D01*
X115717Y326546D01*
X115184Y326109D01*
X114914Y325780D01*
X114008Y325680D01*
X113168Y325803D01*
X112800Y326251D01*
X112237Y326713D01*
X111594Y327057D01*
X110897Y327269D01*
X110171Y327340D01*
X107671D01*
X106946Y327269D01*
X106248Y327057D01*
X105606Y326713D01*
X105042Y326251D01*
X104580Y325688D01*
X104236Y325045D01*
X102767Y325368D01*
Y333046D01*
X104267Y333625D01*
X104510Y333356D01*
X105486Y332472D01*
X106544Y331687D01*
X107673Y331010D01*
X108864Y330447D01*
X110104Y330003D01*
X111382Y329683D01*
X112685Y329490D01*
X114000Y329426D01*
X115315Y329490D01*
X116618Y329683D01*
X117896Y330003D01*
X119136Y330447D01*
X120327Y331010D01*
X121456Y331687D01*
X122514Y332472D01*
X123490Y333356D01*
X124374Y334332D01*
X125159Y335390D01*
X125836Y336520D01*
X126399Y337710D01*
X126843Y338950D01*
X127163Y340228D01*
X127356Y341531D01*
X127421Y342846D01*
X127356Y344162D01*
X127163Y345465D01*
X126843Y346742D01*
X126399Y347982D01*
X125836Y349173D01*
X125159Y350303D01*
X124374Y351361D01*
X123490Y352336D01*
X122514Y353221D01*
X121456Y354006D01*
X120327Y354683D01*
X119136Y355246D01*
X117896Y355689D01*
X116618Y356009D01*
X115315Y356203D01*
X114000Y356267D01*
X112685Y356203D01*
X111382Y356009D01*
X110104Y355689D01*
X108864Y355246D01*
X107673Y354683D01*
X106544Y354006D01*
X105486Y353221D01*
X104510Y352336D01*
X104267Y352068D01*
X102767Y352647D01*
Y363840D01*
X102758Y363907D01*
X102819Y364833D01*
X103013Y365809D01*
X103333Y366751D01*
X103773Y367643D01*
X104325Y368471D01*
X104938Y369168D01*
X104991Y369209D01*
X105027Y369256D01*
X105663Y369814D01*
X106416Y370318D01*
X107228Y370718D01*
X108086Y371009D01*
X108441Y371080D01*
X109877Y371233D01*
X109877D01*
Y371233D01*
X109877Y371233D01*
X165848D01*
X166422Y369847D01*
D02*
G37*
G36*
X104580Y161556D02*
X105042Y160993D01*
X105606Y160531D01*
X106248Y160187D01*
X106946Y159976D01*
X107671Y159904D01*
X110171D01*
X110897Y159976D01*
X111594Y160187D01*
X112237Y160531D01*
X112800Y160993D01*
X113030Y161274D01*
X113921Y161436D01*
X114812Y161274D01*
X115042Y160993D01*
X115606Y160531D01*
X116248Y160187D01*
X116946Y159976D01*
X117671Y159904D01*
X120171D01*
X120210Y159908D01*
X121450Y158668D01*
X121055Y157668D01*
X120710Y157287D01*
X120171Y157340D01*
X117671D01*
X116946Y157269D01*
X116248Y157057D01*
X115606Y156713D01*
X115042Y156251D01*
X114675Y155803D01*
X113834Y155681D01*
X112928Y155780D01*
X112658Y156109D01*
X112125Y156546D01*
X111517Y156871D01*
X110857Y157071D01*
X110171Y157139D01*
X109521D01*
Y153622D01*
Y150105D01*
X110171D01*
X110857Y150173D01*
X111517Y150373D01*
X112125Y150698D01*
X112658Y151135D01*
X112928Y151464D01*
X113834Y151564D01*
X114675Y151441D01*
X115042Y150993D01*
X115606Y150531D01*
X116248Y150187D01*
X116946Y149976D01*
X117671Y149904D01*
X120171D01*
X120210Y149908D01*
X121450Y148668D01*
X121055Y147668D01*
X120710Y147287D01*
X120171Y147340D01*
X117671D01*
X116946Y147268D01*
X116248Y147057D01*
X115606Y146713D01*
X115042Y146251D01*
X114812Y145970D01*
X113921Y145808D01*
X113030Y145970D01*
X112800Y146251D01*
X112237Y146713D01*
X111594Y147057D01*
X110897Y147268D01*
X110171Y147340D01*
X107671D01*
X106946Y147268D01*
X106248Y147057D01*
X105606Y146713D01*
X105042Y146251D01*
X104580Y145688D01*
X104236Y145045D01*
X102767Y145368D01*
Y152718D01*
X104222Y152936D01*
X104422Y152276D01*
X104747Y151668D01*
X105184Y151135D01*
X105717Y150698D01*
X106325Y150373D01*
X106985Y150173D01*
X107671Y150105D01*
X108321D01*
Y153622D01*
Y157139D01*
X107671D01*
X106985Y157071D01*
X106325Y156871D01*
X105717Y156546D01*
X105184Y156109D01*
X104747Y155576D01*
X104422Y154968D01*
X104222Y154308D01*
X102767Y154526D01*
Y161876D01*
X104236Y162199D01*
X104580Y161556D01*
D02*
G37*
G36*
X114812Y181273D02*
X115042Y180993D01*
X115606Y180531D01*
X116248Y180187D01*
X116946Y179975D01*
X117671Y179904D01*
X120171D01*
X120896Y179975D01*
X122029Y179081D01*
X122146Y178426D01*
X122040Y177945D01*
X120857Y177071D01*
X120171Y177139D01*
X119521D01*
Y173622D01*
X118321D01*
Y177139D01*
X117671D01*
X116985Y177071D01*
X116325Y176871D01*
X115717Y176546D01*
X115184Y176109D01*
X114914Y175780D01*
X114008Y175680D01*
X113168Y175803D01*
X112800Y176251D01*
X112237Y176713D01*
X111594Y177057D01*
X110897Y177269D01*
X110171Y177340D01*
X107671D01*
X106946Y177269D01*
X106886Y177250D01*
X106066Y177737D01*
X105869Y178322D01*
Y178922D01*
X106066Y179507D01*
X106886Y179994D01*
X106946Y179975D01*
X107671Y179904D01*
X110171D01*
X110897Y179975D01*
X111594Y180187D01*
X112237Y180531D01*
X112800Y180993D01*
X113030Y181273D01*
X113921Y181436D01*
X114812Y181273D01*
D02*
G37*
%LPC*%
G36*
X279900Y204400D02*
X278174D01*
X278272Y204077D01*
X278495Y203660D01*
X278795Y203295D01*
X279160Y202995D01*
X279577Y202772D01*
X279900Y202674D01*
Y204400D01*
D02*
G37*
G36*
X133000Y226113D02*
X132490Y226062D01*
X132000Y225914D01*
X131549Y225672D01*
X131153Y225347D01*
X130828Y224952D01*
X130586Y224500D01*
X130438Y224010D01*
X130387Y223500D01*
X130438Y222990D01*
X130586Y222500D01*
X130828Y222048D01*
X131153Y221653D01*
X131549Y221328D01*
X132000Y221086D01*
X132490Y220938D01*
X133000Y220887D01*
X133171Y220904D01*
X144785Y209290D01*
Y206656D01*
X144653Y206547D01*
X144328Y206152D01*
X144086Y205700D01*
X143938Y205210D01*
X143887Y204700D01*
X143938Y204190D01*
X144086Y203700D01*
X144328Y203249D01*
X144653Y202853D01*
X145048Y202528D01*
X145500Y202286D01*
X145990Y202138D01*
X146500Y202087D01*
X147010Y202138D01*
X147500Y202286D01*
X147951Y202528D01*
X148347Y202853D01*
X148672Y203249D01*
X148914Y203700D01*
X149062Y204190D01*
X149113Y204700D01*
X149062Y205210D01*
X148914Y205700D01*
X148672Y206152D01*
X148347Y206547D01*
X148215Y206656D01*
Y210000D01*
X148185Y210222D01*
X148156Y210444D01*
X148085Y210615D01*
X147985Y210857D01*
X147795Y211105D01*
X147712Y211212D01*
X135596Y223329D01*
X135613Y223500D01*
X135562Y224010D01*
X135414Y224500D01*
X135172Y224952D01*
X134847Y225347D01*
X134451Y225672D01*
X134000Y225914D01*
X133510Y226062D01*
X133000Y226113D01*
D02*
G37*
G36*
X183600Y206326D02*
Y204600D01*
X185326D01*
X185228Y204923D01*
X185005Y205340D01*
X184705Y205705D01*
X184340Y206005D01*
X183923Y206228D01*
X183600Y206326D01*
D02*
G37*
G36*
X279900Y207326D02*
X279577Y207228D01*
X279160Y207005D01*
X278795Y206705D01*
X278495Y206340D01*
X278272Y205923D01*
X278174Y205600D01*
X279900D01*
Y207326D01*
D02*
G37*
G36*
X271826Y206900D02*
X270100D01*
Y205174D01*
X270423Y205272D01*
X270840Y205495D01*
X271205Y205795D01*
X271505Y206160D01*
X271728Y206577D01*
X271826Y206900D01*
D02*
G37*
G36*
X185326Y203400D02*
X183600D01*
Y201674D01*
X183923Y201772D01*
X184340Y201995D01*
X184705Y202295D01*
X185005Y202660D01*
X185228Y203077D01*
X185326Y203400D01*
D02*
G37*
G36*
X157750Y194218D02*
X155250D01*
X154525Y194147D01*
X153827Y193935D01*
X153184Y193591D01*
X152621Y193129D01*
X152159Y192566D01*
X151815Y191923D01*
X151603Y191225D01*
X151532Y190500D01*
X151603Y189775D01*
X151815Y189077D01*
X152159Y188434D01*
X152621Y187871D01*
X153184Y187409D01*
X153827Y187065D01*
X154525Y186854D01*
X155250Y186782D01*
X157750D01*
X158475Y186854D01*
X159173Y187065D01*
X159816Y187409D01*
X160379Y187871D01*
X160841Y188434D01*
X161185Y189077D01*
X161397Y189775D01*
X161468Y190500D01*
X161397Y191225D01*
X161185Y191923D01*
X160841Y192566D01*
X160379Y193129D01*
X159816Y193591D01*
X159173Y193935D01*
X158475Y194147D01*
X157750Y194218D01*
D02*
G37*
G36*
Y184017D02*
X157100D01*
Y181100D01*
X161208D01*
X161199Y181186D01*
X160999Y181846D01*
X160674Y182454D01*
X160237Y182987D01*
X159704Y183424D01*
X159096Y183749D01*
X158436Y183949D01*
X157750Y184017D01*
D02*
G37*
G36*
Y204218D02*
X155250D01*
X154525Y204147D01*
X153827Y203935D01*
X153184Y203591D01*
X152621Y203129D01*
X152159Y202566D01*
X151815Y201923D01*
X151603Y201225D01*
X151532Y200500D01*
X151603Y199775D01*
X151815Y199077D01*
X152159Y198434D01*
X152621Y197871D01*
X153184Y197409D01*
X153827Y197065D01*
X154525Y196853D01*
X155250Y196782D01*
X157750D01*
X158475Y196853D01*
X159173Y197065D01*
X159816Y197409D01*
X160379Y197871D01*
X160841Y198434D01*
X161185Y199077D01*
X161397Y199775D01*
X161468Y200500D01*
X161397Y201225D01*
X161185Y201923D01*
X160841Y202566D01*
X160379Y203129D01*
X159816Y203591D01*
X159173Y203935D01*
X158475Y204147D01*
X157750Y204218D01*
D02*
G37*
G36*
X177646Y206967D02*
X177136Y206917D01*
X176646Y206768D01*
X176194Y206527D01*
X175798Y206202D01*
X175473Y205806D01*
X175232Y205354D01*
X175083Y204864D01*
X175033Y204354D01*
X175037Y204313D01*
X169716Y198993D01*
X169428Y198617D01*
X169322Y198360D01*
X169246Y198179D01*
X169239Y198124D01*
X169185Y197709D01*
Y195373D01*
X169153Y195347D01*
X168828Y194951D01*
X168586Y194500D01*
X168438Y194010D01*
X168387Y193500D01*
X168438Y192990D01*
X168586Y192500D01*
X168828Y192049D01*
X169153Y191653D01*
X169548Y191328D01*
X170000Y191086D01*
X170490Y190938D01*
X171000Y190887D01*
X171510Y190938D01*
X172000Y191086D01*
X172451Y191328D01*
X172847Y191653D01*
X173172Y192049D01*
X173414Y192500D01*
X173562Y192990D01*
X173613Y193500D01*
X173562Y194010D01*
X173414Y194500D01*
X173172Y194951D01*
X172847Y195347D01*
X172816Y195373D01*
Y196957D01*
X177605Y201746D01*
X177646Y201742D01*
X178155Y201792D01*
X178645Y201941D01*
X179097Y202182D01*
X179493Y202507D01*
X180038Y202563D01*
X180879Y202503D01*
X181234Y202369D01*
X181295Y202295D01*
X181660Y201995D01*
X182077Y201772D01*
X182400Y201674D01*
Y204000D01*
Y206326D01*
X182077Y206228D01*
X181660Y206005D01*
X181456Y205837D01*
X181344Y205799D01*
X180590Y205802D01*
X179866Y205902D01*
X179651Y206009D01*
X179493Y206202D01*
X179097Y206527D01*
X178645Y206768D01*
X178155Y206917D01*
X177646Y206967D01*
D02*
G37*
G36*
X217750Y204218D02*
X215250D01*
X214525Y204147D01*
X213827Y203935D01*
X213184Y203591D01*
X212621Y203129D01*
X212159Y202566D01*
X211815Y201923D01*
X211603Y201225D01*
X211532Y200500D01*
X211603Y199775D01*
X211815Y199077D01*
X212159Y198434D01*
X212621Y197871D01*
X213184Y197409D01*
X213827Y197065D01*
X214525Y196853D01*
X215250Y196782D01*
X217750D01*
X218475Y196853D01*
X219173Y197065D01*
X219815Y197409D01*
X220379Y197871D01*
X220841Y198434D01*
X221185Y199077D01*
X221396Y199775D01*
X221468Y200500D01*
X221396Y201225D01*
X221185Y201923D01*
X220841Y202566D01*
X220379Y203129D01*
X219815Y203591D01*
X219173Y203935D01*
X218475Y204147D01*
X217750Y204218D01*
D02*
G37*
G36*
X157750Y214218D02*
X155250D01*
X154525Y214146D01*
X153827Y213935D01*
X153184Y213591D01*
X152621Y213129D01*
X152159Y212565D01*
X151815Y211923D01*
X151603Y211225D01*
X151532Y210500D01*
X151603Y209775D01*
X151815Y209077D01*
X152159Y208435D01*
X152621Y207871D01*
X153184Y207409D01*
X153827Y207065D01*
X154525Y206854D01*
X155250Y206782D01*
X157750D01*
X158475Y206854D01*
X159173Y207065D01*
X159816Y207409D01*
X160379Y207871D01*
X160841Y208435D01*
X161185Y209077D01*
X161397Y209775D01*
X161468Y210500D01*
X161397Y211225D01*
X161185Y211923D01*
X160841Y212565D01*
X160379Y213129D01*
X159816Y213591D01*
X159173Y213935D01*
X158475Y214146D01*
X157750Y214218D01*
D02*
G37*
G36*
Y234218D02*
X155250D01*
X154525Y234146D01*
X153827Y233935D01*
X153184Y233591D01*
X152621Y233129D01*
X152159Y232565D01*
X151815Y231923D01*
X151603Y231225D01*
X151532Y230500D01*
X151603Y229775D01*
X151815Y229077D01*
X152159Y228434D01*
X152621Y227871D01*
X153184Y227409D01*
X153827Y227065D01*
X154525Y226853D01*
X155250Y226782D01*
X157750D01*
X158475Y226853D01*
X159173Y227065D01*
X159816Y227409D01*
X160379Y227871D01*
X160841Y228434D01*
X161185Y229077D01*
X161397Y229775D01*
X161468Y230500D01*
X161397Y231225D01*
X161185Y231923D01*
X160841Y232565D01*
X160379Y233129D01*
X159816Y233591D01*
X159173Y233935D01*
X158475Y234146D01*
X157750Y234218D01*
D02*
G37*
G36*
X120171Y227340D02*
X117671D01*
X116946Y227269D01*
X116248Y227057D01*
X115606Y226713D01*
X115042Y226251D01*
X114675Y225803D01*
X113834Y225680D01*
X112928Y225780D01*
X112658Y226109D01*
X112125Y226546D01*
X111517Y226871D01*
X110857Y227071D01*
X110171Y227139D01*
X109521D01*
Y223622D01*
Y220105D01*
X110171D01*
X110857Y220173D01*
X111517Y220373D01*
X112125Y220698D01*
X112658Y221135D01*
X112928Y221464D01*
X113834Y221564D01*
X114675Y221441D01*
X115042Y220993D01*
X115606Y220531D01*
X116248Y220187D01*
X116946Y219975D01*
X117671Y219904D01*
X120171D01*
X120896Y219975D01*
X121594Y220187D01*
X122237Y220531D01*
X122800Y220993D01*
X123263Y221556D01*
X123606Y222199D01*
X123818Y222897D01*
X123889Y223622D01*
X123818Y224347D01*
X123606Y225045D01*
X123263Y225688D01*
X122800Y226251D01*
X122237Y226713D01*
X121594Y227057D01*
X120896Y227269D01*
X120171Y227340D01*
D02*
G37*
G36*
X157750Y244218D02*
X155250D01*
X154525Y244146D01*
X153827Y243935D01*
X153184Y243591D01*
X152621Y243129D01*
X152159Y242565D01*
X151815Y241923D01*
X151603Y241225D01*
X151532Y240500D01*
X151603Y239775D01*
X151815Y239077D01*
X152159Y238435D01*
X152621Y237871D01*
X153184Y237409D01*
X153827Y237065D01*
X154525Y236854D01*
X155250Y236782D01*
X157750D01*
X158475Y236854D01*
X159173Y237065D01*
X159816Y237409D01*
X160379Y237871D01*
X160841Y238435D01*
X161185Y239077D01*
X161397Y239775D01*
X161468Y240500D01*
X161397Y241225D01*
X161185Y241923D01*
X160841Y242565D01*
X160379Y243129D01*
X159816Y243591D01*
X159173Y243935D01*
X158475Y244146D01*
X157750Y244218D01*
D02*
G37*
G36*
X205000Y238113D02*
X204490Y238062D01*
X204000Y237914D01*
X203549Y237672D01*
X203153Y237347D01*
X203044Y237215D01*
X195456D01*
X195347Y237347D01*
X194951Y237672D01*
X194500Y237914D01*
X194010Y238062D01*
X193500Y238113D01*
X192990Y238062D01*
X192500Y237914D01*
X192049Y237672D01*
X191653Y237347D01*
X191328Y236951D01*
X191086Y236500D01*
X190938Y236010D01*
X190887Y235500D01*
X190938Y234990D01*
X191086Y234500D01*
X191328Y234049D01*
X191653Y233653D01*
X192049Y233328D01*
X192500Y233086D01*
X192990Y232938D01*
X193500Y232887D01*
X194010Y232938D01*
X194500Y233086D01*
X194951Y233328D01*
X195347Y233653D01*
X195456Y233785D01*
X203044D01*
X203153Y233653D01*
X203549Y233328D01*
X204000Y233086D01*
X204490Y232938D01*
X205000Y232887D01*
X205510Y232938D01*
X206000Y233086D01*
X206452Y233328D01*
X206847Y233653D01*
X207172Y234049D01*
X207414Y234500D01*
X207562Y234990D01*
X207613Y235500D01*
X207562Y236010D01*
X207414Y236500D01*
X207172Y236951D01*
X206847Y237347D01*
X206452Y237672D01*
X206000Y237914D01*
X205510Y238062D01*
X205000Y238113D01*
D02*
G37*
G36*
X217750Y244218D02*
X215250D01*
X214525Y244146D01*
X213827Y243935D01*
X213184Y243591D01*
X212621Y243129D01*
X212159Y242565D01*
X211815Y241923D01*
X211603Y241225D01*
X211532Y240500D01*
X211603Y239775D01*
X211815Y239077D01*
X212159Y238435D01*
X212621Y237871D01*
X213184Y237409D01*
X213827Y237065D01*
X214525Y236854D01*
X215250Y236782D01*
X217750D01*
X218475Y236854D01*
X219173Y237065D01*
X219815Y237409D01*
X220379Y237871D01*
X220841Y238435D01*
X221185Y239077D01*
X221396Y239775D01*
X221468Y240500D01*
X221396Y241225D01*
X221185Y241923D01*
X220841Y242565D01*
X220379Y243129D01*
X219815Y243591D01*
X219173Y243935D01*
X218475Y244146D01*
X217750Y244218D01*
D02*
G37*
G36*
X157750Y224218D02*
X155250D01*
X154525Y224147D01*
X153827Y223935D01*
X153184Y223591D01*
X152621Y223129D01*
X152159Y222566D01*
X151815Y221923D01*
X151603Y221225D01*
X151532Y220500D01*
X151603Y219775D01*
X151815Y219077D01*
X152159Y218435D01*
X152621Y217871D01*
X153184Y217409D01*
X153827Y217065D01*
X154525Y216853D01*
X155250Y216782D01*
X157750D01*
X158475Y216853D01*
X159173Y217065D01*
X159816Y217409D01*
X160379Y217871D01*
X160841Y218435D01*
X161185Y219077D01*
X161397Y219775D01*
X161468Y220500D01*
X161397Y221225D01*
X161185Y221923D01*
X160841Y222566D01*
X160379Y223129D01*
X159816Y223591D01*
X159173Y223935D01*
X158475Y224147D01*
X157750Y224218D01*
D02*
G37*
G36*
X245900Y214400D02*
X244174D01*
X244272Y214077D01*
X244495Y213660D01*
X244795Y213295D01*
X245160Y212995D01*
X245577Y212772D01*
X245900Y212674D01*
Y214400D01*
D02*
G37*
G36*
X270100Y209826D02*
Y208100D01*
X271826D01*
X271728Y208423D01*
X271505Y208840D01*
X271205Y209205D01*
X270840Y209505D01*
X270423Y209728D01*
X270100Y209826D01*
D02*
G37*
G36*
X248826Y214400D02*
X247100D01*
Y212674D01*
X247423Y212772D01*
X247840Y212995D01*
X248205Y213295D01*
X248505Y213660D01*
X248728Y214077D01*
X248826Y214400D01*
D02*
G37*
G36*
X247100Y217326D02*
Y215600D01*
X248826D01*
X248728Y215923D01*
X248505Y216340D01*
X248205Y216705D01*
X247840Y217005D01*
X247423Y217228D01*
X247100Y217326D01*
D02*
G37*
G36*
X245900D02*
X245577Y217228D01*
X245160Y217005D01*
X244795Y216705D01*
X244495Y216340D01*
X244272Y215923D01*
X244174Y215600D01*
X245900D01*
Y217326D01*
D02*
G37*
G36*
X280600Y132326D02*
Y130600D01*
X282326D01*
X282228Y130923D01*
X282005Y131340D01*
X281705Y131705D01*
X281340Y132005D01*
X280923Y132228D01*
X280600Y132326D01*
D02*
G37*
G36*
X279400D02*
X279077Y132228D01*
X278660Y132005D01*
X278295Y131705D01*
X277995Y131340D01*
X277772Y130923D01*
X277674Y130600D01*
X279400D01*
Y132326D01*
D02*
G37*
G36*
X177400Y144400D02*
X175674D01*
X175772Y144077D01*
X175995Y143660D01*
X176295Y143295D01*
X176660Y142995D01*
X177077Y142772D01*
X177400Y142674D01*
Y144400D01*
D02*
G37*
G36*
Y147326D02*
X177077Y147228D01*
X176660Y147005D01*
X176295Y146705D01*
X175995Y146340D01*
X175772Y145923D01*
X175674Y145600D01*
X177400D01*
Y147326D01*
D02*
G37*
G36*
X180326Y144400D02*
X178600D01*
Y142674D01*
X178923Y142772D01*
X179340Y142995D01*
X179705Y143295D01*
X180005Y143660D01*
X180228Y144077D01*
X180326Y144400D01*
D02*
G37*
G36*
X179100Y131326D02*
Y129600D01*
X180826D01*
X180728Y129923D01*
X180505Y130340D01*
X180205Y130705D01*
X179840Y131005D01*
X179423Y131228D01*
X179100Y131326D01*
D02*
G37*
G36*
X279400Y129400D02*
X277674D01*
X277772Y129077D01*
X277995Y128660D01*
X278295Y128295D01*
X278660Y127995D01*
X279077Y127772D01*
X279400Y127674D01*
Y129400D01*
D02*
G37*
G36*
X180826Y128400D02*
X179100D01*
Y126674D01*
X179423Y126772D01*
X179840Y126995D01*
X180205Y127295D01*
X180505Y127660D01*
X180728Y128077D01*
X180826Y128400D01*
D02*
G37*
G36*
X282326Y129400D02*
X280600D01*
Y127674D01*
X280923Y127772D01*
X281340Y127995D01*
X281705Y128295D01*
X282005Y128660D01*
X282228Y129077D01*
X282326Y129400D01*
D02*
G37*
G36*
X177900Y131326D02*
X177577Y131228D01*
X177160Y131005D01*
X176795Y130705D01*
X176495Y130340D01*
X176272Y129923D01*
X176174Y129600D01*
X177900D01*
Y131326D01*
D02*
G37*
G36*
Y128400D02*
X176174D01*
X176272Y128077D01*
X176495Y127660D01*
X176795Y127295D01*
X177160Y126995D01*
X177577Y126772D01*
X177900Y126674D01*
Y128400D01*
D02*
G37*
G36*
X178600Y147326D02*
Y145600D01*
X180326D01*
X180228Y145923D01*
X180005Y146340D01*
X179705Y146705D01*
X179340Y147005D01*
X178923Y147228D01*
X178600Y147326D01*
D02*
G37*
G36*
X155900Y179900D02*
X151792D01*
X151801Y179814D01*
X152001Y179154D01*
X152326Y178546D01*
X152763Y178013D01*
X153296Y177576D01*
X153904Y177251D01*
X154564Y177051D01*
X155250Y176983D01*
X155900D01*
Y179900D01*
D02*
G37*
G36*
X131100Y173326D02*
Y171600D01*
X132826D01*
X132728Y171923D01*
X132505Y172340D01*
X132205Y172705D01*
X131840Y173005D01*
X131423Y173228D01*
X131100Y173326D01*
D02*
G37*
G36*
X161208Y179900D02*
X157100D01*
Y176983D01*
X157750D01*
X158436Y177051D01*
X159096Y177251D01*
X159704Y177576D01*
X160237Y178013D01*
X160674Y178546D01*
X160999Y179154D01*
X161199Y179814D01*
X161208Y179900D01*
D02*
G37*
G36*
X155900Y184017D02*
X155250D01*
X154564Y183949D01*
X153904Y183749D01*
X153296Y183424D01*
X152763Y182987D01*
X152326Y182454D01*
X152001Y181846D01*
X151801Y181186D01*
X151792Y181100D01*
X155900D01*
Y184017D01*
D02*
G37*
G36*
X183900Y118826D02*
X183577Y118728D01*
X183160Y118505D01*
X182795Y118205D01*
X182495Y117840D01*
X182272Y117423D01*
X182174Y117100D01*
X183900D01*
Y118826D01*
D02*
G37*
G36*
X132826Y170400D02*
X131100D01*
Y168674D01*
X131423Y168772D01*
X131840Y168995D01*
X132205Y169295D01*
X132505Y169660D01*
X132728Y170077D01*
X132826Y170400D01*
D02*
G37*
G36*
X144326Y158400D02*
X142600D01*
Y156674D01*
X142923Y156772D01*
X143340Y156995D01*
X143705Y157295D01*
X144005Y157660D01*
X144228Y158077D01*
X144326Y158400D01*
D02*
G37*
G36*
X307750Y150718D02*
X305250D01*
X304525Y150646D01*
X303827Y150435D01*
X303185Y150091D01*
X302621Y149629D01*
X302254Y149181D01*
X301413Y149058D01*
X300507Y149158D01*
X300237Y149487D01*
X299704Y149924D01*
X299096Y150249D01*
X298436Y150449D01*
X297750Y150517D01*
X297100D01*
Y147000D01*
Y143483D01*
X297750D01*
X298436Y143551D01*
X299096Y143751D01*
X299704Y144076D01*
X300237Y144513D01*
X300507Y144842D01*
X301413Y144941D01*
X302254Y144819D01*
X302621Y144371D01*
X303185Y143909D01*
X303827Y143565D01*
X304525Y143353D01*
X305250Y143282D01*
X307750D01*
X308475Y143353D01*
X309173Y143565D01*
X309816Y143909D01*
X310379Y144371D01*
X310841Y144934D01*
X311185Y145577D01*
X311397Y146275D01*
X311468Y147000D01*
X311397Y147725D01*
X311185Y148423D01*
X310841Y149066D01*
X310379Y149629D01*
X309816Y150091D01*
X309173Y150435D01*
X308475Y150646D01*
X307750Y150718D01*
D02*
G37*
G36*
X185100Y118826D02*
Y117100D01*
X186826D01*
X186728Y117423D01*
X186505Y117840D01*
X186205Y118205D01*
X185840Y118505D01*
X185423Y118728D01*
X185100Y118826D01*
D02*
G37*
G36*
X142600Y161326D02*
Y159600D01*
X144326D01*
X144228Y159923D01*
X144005Y160340D01*
X143705Y160705D01*
X143340Y161005D01*
X142923Y161228D01*
X142600Y161326D01*
D02*
G37*
G36*
X307750Y160718D02*
X305250D01*
X304525Y160646D01*
X303827Y160435D01*
X303185Y160091D01*
X302621Y159629D01*
X302391Y159348D01*
X301500Y159186D01*
X300609Y159348D01*
X300379Y159629D01*
X299816Y160091D01*
X299173Y160435D01*
X298475Y160646D01*
X297750Y160718D01*
X295250D01*
X294525Y160646D01*
X293827Y160435D01*
X293184Y160091D01*
X292621Y159629D01*
X292159Y159066D01*
X291815Y158423D01*
X291603Y157725D01*
X291532Y157000D01*
X291603Y156275D01*
X291815Y155577D01*
X292159Y154934D01*
X292621Y154371D01*
X293184Y153909D01*
X293827Y153565D01*
X294525Y153354D01*
X295250Y153282D01*
X297750D01*
X298475Y153354D01*
X299173Y153565D01*
X299816Y153909D01*
X300379Y154371D01*
X300609Y154651D01*
X301500Y154814D01*
X302391Y154651D01*
X302621Y154371D01*
X303185Y153909D01*
X303827Y153565D01*
X304525Y153354D01*
X305250Y153282D01*
X307750D01*
X308475Y153354D01*
X309173Y153565D01*
X309816Y153909D01*
X310379Y154371D01*
X310841Y154934D01*
X311185Y155577D01*
X311397Y156275D01*
X311468Y157000D01*
X311397Y157725D01*
X311185Y158423D01*
X310841Y159066D01*
X310379Y159629D01*
X309816Y160091D01*
X309173Y160435D01*
X308475Y160646D01*
X307750Y160718D01*
D02*
G37*
G36*
X203750Y324517D02*
X203100D01*
Y321600D01*
X207208D01*
X207199Y321686D01*
X206999Y322346D01*
X206674Y322954D01*
X206237Y323487D01*
X205704Y323924D01*
X205096Y324249D01*
X204436Y324449D01*
X203750Y324517D01*
D02*
G37*
G36*
X191900Y324500D02*
X187750D01*
Y321600D01*
X191900D01*
Y324500D01*
D02*
G37*
G36*
X123629Y323022D02*
X119521D01*
Y320105D01*
X120171D01*
X120857Y320173D01*
X121517Y320373D01*
X122125Y320698D01*
X122658Y321135D01*
X123095Y321668D01*
X123420Y322276D01*
X123621Y322936D01*
X123629Y323022D01*
D02*
G37*
G36*
X157750Y334218D02*
X155250D01*
X154525Y334146D01*
X153827Y333935D01*
X153184Y333591D01*
X152621Y333129D01*
X152159Y332565D01*
X151815Y331923D01*
X151603Y331225D01*
X151532Y330500D01*
X151603Y329775D01*
X151815Y329077D01*
X152159Y328434D01*
X152621Y327871D01*
X153184Y327409D01*
X153827Y327065D01*
X154525Y326853D01*
X155250Y326782D01*
X157750D01*
X158475Y326853D01*
X159173Y327065D01*
X159816Y327409D01*
X160379Y327871D01*
X160841Y328434D01*
X161185Y329077D01*
X161397Y329775D01*
X161468Y330500D01*
X161397Y331225D01*
X161185Y331923D01*
X160841Y332565D01*
X160379Y333129D01*
X159816Y333591D01*
X159173Y333935D01*
X158475Y334146D01*
X157750Y334218D01*
D02*
G37*
G36*
X120171Y327139D02*
X119521D01*
Y324222D01*
X123629D01*
X123621Y324308D01*
X123420Y324968D01*
X123095Y325576D01*
X122658Y326109D01*
X122125Y326546D01*
X121517Y326871D01*
X120857Y327071D01*
X120171Y327139D01*
D02*
G37*
G36*
X201900Y324517D02*
X201250D01*
X200564Y324449D01*
X199904Y324249D01*
X199296Y323924D01*
X198763Y323487D01*
X198750Y323471D01*
X197250Y324008D01*
Y324500D01*
X193100D01*
Y321000D01*
Y317500D01*
X197250D01*
Y317992D01*
X198750Y318529D01*
X198763Y318513D01*
X199296Y318076D01*
X199904Y317751D01*
X200564Y317551D01*
X201250Y317483D01*
X201900D01*
Y321000D01*
Y324517D01*
D02*
G37*
G36*
X157750Y324218D02*
X155250D01*
X154525Y324147D01*
X153827Y323935D01*
X153184Y323591D01*
X152621Y323129D01*
X152159Y322566D01*
X151815Y321923D01*
X151603Y321225D01*
X151532Y320500D01*
X151603Y319775D01*
X151815Y319077D01*
X152159Y318435D01*
X152621Y317871D01*
X153184Y317409D01*
X153827Y317065D01*
X154525Y316853D01*
X155250Y316782D01*
X157750D01*
X158475Y316853D01*
X159173Y317065D01*
X159816Y317409D01*
X160379Y317871D01*
X160841Y318435D01*
X161185Y319077D01*
X161397Y319775D01*
X161468Y320500D01*
X161397Y321225D01*
X161185Y321923D01*
X160841Y322566D01*
X160379Y323129D01*
X159816Y323591D01*
X159173Y323935D01*
X158475Y324147D01*
X157750Y324218D01*
D02*
G37*
G36*
X288600Y316826D02*
Y315100D01*
X290326D01*
X290228Y315423D01*
X290005Y315840D01*
X289705Y316205D01*
X289340Y316505D01*
X288923Y316728D01*
X288600Y316826D01*
D02*
G37*
G36*
X287400D02*
X287077Y316728D01*
X286660Y316505D01*
X286295Y316205D01*
X285995Y315840D01*
X285772Y315423D01*
X285674Y315100D01*
X287400D01*
Y316826D01*
D02*
G37*
G36*
X191900Y320400D02*
X187750D01*
Y317500D01*
X191900D01*
Y320400D01*
D02*
G37*
G36*
X207208D02*
X203100D01*
Y317483D01*
X203750D01*
X204436Y317551D01*
X205096Y317751D01*
X205704Y318076D01*
X206237Y318513D01*
X206674Y319046D01*
X206999Y319654D01*
X207199Y320314D01*
X207208Y320400D01*
D02*
G37*
G36*
X217750Y324218D02*
X215250D01*
X214525Y324147D01*
X213827Y323935D01*
X213184Y323591D01*
X212621Y323129D01*
X212159Y322566D01*
X211815Y321923D01*
X211603Y321225D01*
X211532Y320500D01*
X211603Y319775D01*
X211815Y319077D01*
X212159Y318435D01*
X212621Y317871D01*
X213184Y317409D01*
X213827Y317065D01*
X214525Y316853D01*
X215250Y316782D01*
X217750D01*
X218475Y316853D01*
X219173Y317065D01*
X219815Y317409D01*
X220379Y317871D01*
X220841Y318435D01*
X221185Y319077D01*
X221396Y319775D01*
X221468Y320500D01*
X221396Y321225D01*
X221185Y321923D01*
X220841Y322566D01*
X220379Y323129D01*
X219815Y323591D01*
X219173Y323935D01*
X218475Y324147D01*
X217750Y324218D01*
D02*
G37*
G36*
X215900Y354017D02*
X215250D01*
X214564Y353949D01*
X213904Y353749D01*
X213296Y353424D01*
X212763Y352987D01*
X212326Y352454D01*
X212001Y351846D01*
X211801Y351186D01*
X211792Y351100D01*
X215900D01*
Y354017D01*
D02*
G37*
G36*
X221208Y349900D02*
X217100D01*
Y346983D01*
X217750D01*
X218436Y347051D01*
X219096Y347251D01*
X219704Y347576D01*
X220237Y348013D01*
X220674Y348546D01*
X220999Y349154D01*
X221199Y349814D01*
X221208Y349900D01*
D02*
G37*
G36*
X215900D02*
X211792D01*
X211801Y349814D01*
X212001Y349154D01*
X212326Y348546D01*
X212763Y348013D01*
X213296Y347576D01*
X213904Y347251D01*
X214564Y347051D01*
X215250Y346983D01*
X215900D01*
Y349900D01*
D02*
G37*
G36*
X221208Y359900D02*
X217100D01*
Y356983D01*
X217750D01*
X218436Y357051D01*
X219096Y357251D01*
X219704Y357576D01*
X220237Y358013D01*
X220674Y358546D01*
X220999Y359154D01*
X221199Y359814D01*
X221208Y359900D01*
D02*
G37*
G36*
X215900D02*
X211792D01*
X211801Y359814D01*
X212001Y359154D01*
X212326Y358546D01*
X212763Y358013D01*
X213296Y357576D01*
X213904Y357251D01*
X214564Y357051D01*
X215250Y356983D01*
X215900D01*
Y359900D01*
D02*
G37*
G36*
X217750Y354017D02*
X217100D01*
Y351100D01*
X221208D01*
X221199Y351186D01*
X220999Y351846D01*
X220674Y352454D01*
X220237Y352987D01*
X219704Y353424D01*
X219096Y353749D01*
X218436Y353949D01*
X217750Y354017D01*
D02*
G37*
G36*
X290826Y332400D02*
X289100D01*
Y330674D01*
X289423Y330772D01*
X289840Y330995D01*
X290205Y331295D01*
X290505Y331660D01*
X290728Y332077D01*
X290826Y332400D01*
D02*
G37*
G36*
X287900D02*
X286174D01*
X286272Y332077D01*
X286495Y331660D01*
X286795Y331295D01*
X287160Y330995D01*
X287577Y330772D01*
X287900Y330674D01*
Y332400D01*
D02*
G37*
G36*
X217750Y334218D02*
X215250D01*
X214525Y334146D01*
X213827Y333935D01*
X213184Y333591D01*
X212621Y333129D01*
X212159Y332565D01*
X211815Y331923D01*
X211603Y331225D01*
X211532Y330500D01*
X211603Y329775D01*
X211815Y329077D01*
X212159Y328434D01*
X212621Y327871D01*
X213184Y327409D01*
X213827Y327065D01*
X214525Y326853D01*
X215250Y326782D01*
X217750D01*
X218475Y326853D01*
X219173Y327065D01*
X219815Y327409D01*
X220379Y327871D01*
X220841Y328434D01*
X221185Y329077D01*
X221396Y329775D01*
X221468Y330500D01*
X221396Y331225D01*
X221185Y331923D01*
X220841Y332565D01*
X220379Y333129D01*
X219815Y333591D01*
X219173Y333935D01*
X218475Y334146D01*
X217750Y334218D01*
D02*
G37*
G36*
Y344218D02*
X215250D01*
X214525Y344146D01*
X213827Y343935D01*
X213184Y343591D01*
X212621Y343129D01*
X212159Y342565D01*
X211815Y341923D01*
X211603Y341225D01*
X211532Y340500D01*
X211603Y339775D01*
X211815Y339077D01*
X212159Y338435D01*
X212621Y337871D01*
X213184Y337409D01*
X213827Y337065D01*
X214525Y336854D01*
X215250Y336782D01*
X217750D01*
X218475Y336854D01*
X219173Y337065D01*
X219815Y337409D01*
X220379Y337871D01*
X220841Y338435D01*
X221185Y339077D01*
X221396Y339775D01*
X221468Y340500D01*
X221396Y341225D01*
X221185Y341923D01*
X220841Y342565D01*
X220379Y343129D01*
X219815Y343591D01*
X219173Y343935D01*
X218475Y344146D01*
X217750Y344218D01*
D02*
G37*
G36*
X289100Y335326D02*
Y333600D01*
X290826D01*
X290728Y333923D01*
X290505Y334340D01*
X290205Y334705D01*
X289840Y335005D01*
X289423Y335228D01*
X289100Y335326D01*
D02*
G37*
G36*
X287900D02*
X287577Y335228D01*
X287160Y335005D01*
X286795Y334705D01*
X286495Y334340D01*
X286272Y333923D01*
X286174Y333600D01*
X287900D01*
Y335326D01*
D02*
G37*
G36*
X157750Y284218D02*
X155250D01*
X154525Y284146D01*
X153827Y283935D01*
X153184Y283591D01*
X152621Y283129D01*
X152159Y282565D01*
X151815Y281923D01*
X151603Y281225D01*
X151532Y280500D01*
X151603Y279775D01*
X151815Y279077D01*
X152159Y278434D01*
X152621Y277871D01*
X153184Y277409D01*
X153827Y277065D01*
X154525Y276853D01*
X155250Y276782D01*
X157750D01*
X158475Y276853D01*
X159173Y277065D01*
X159816Y277409D01*
X160379Y277871D01*
X160841Y278434D01*
X161185Y279077D01*
X161397Y279775D01*
X161468Y280500D01*
X161397Y281225D01*
X161185Y281923D01*
X160841Y282565D01*
X160379Y283129D01*
X159816Y283591D01*
X159173Y283935D01*
X158475Y284146D01*
X157750Y284218D01*
D02*
G37*
G36*
Y274218D02*
X155250D01*
X154525Y274147D01*
X153827Y273935D01*
X153184Y273591D01*
X152621Y273129D01*
X152159Y272566D01*
X151815Y271923D01*
X151603Y271225D01*
X151532Y270500D01*
X151603Y269775D01*
X151815Y269077D01*
X152159Y268435D01*
X152621Y267871D01*
X153184Y267409D01*
X153827Y267065D01*
X154525Y266853D01*
X155250Y266782D01*
X157750D01*
X158475Y266853D01*
X159173Y267065D01*
X159816Y267409D01*
X160379Y267871D01*
X160841Y268435D01*
X161185Y269077D01*
X161397Y269775D01*
X161468Y270500D01*
X161397Y271225D01*
X161185Y271923D01*
X160841Y272566D01*
X160379Y273129D01*
X159816Y273591D01*
X159173Y273935D01*
X158475Y274147D01*
X157750Y274218D01*
D02*
G37*
G36*
Y264218D02*
X155250D01*
X154525Y264146D01*
X153827Y263935D01*
X153184Y263591D01*
X152621Y263129D01*
X152159Y262565D01*
X151815Y261923D01*
X151603Y261225D01*
X151532Y260500D01*
X151603Y259775D01*
X151815Y259077D01*
X152159Y258435D01*
X152621Y257871D01*
X153184Y257409D01*
X153827Y257065D01*
X154525Y256854D01*
X155250Y256782D01*
X157750D01*
X158475Y256854D01*
X159173Y257065D01*
X159816Y257409D01*
X160379Y257871D01*
X160841Y258435D01*
X161185Y259077D01*
X161397Y259775D01*
X161468Y260500D01*
X161397Y261225D01*
X161185Y261923D01*
X160841Y262565D01*
X160379Y263129D01*
X159816Y263591D01*
X159173Y263935D01*
X158475Y264146D01*
X157750Y264218D01*
D02*
G37*
G36*
X284900Y303766D02*
X277522D01*
X277551Y303320D01*
X277756Y302291D01*
X278093Y301298D01*
X278557Y300358D01*
X279140Y299486D01*
X279831Y298697D01*
X280620Y298006D01*
X281491Y297423D01*
X282432Y296959D01*
X283425Y296622D01*
X284454Y296418D01*
X284900Y296388D01*
Y303766D01*
D02*
G37*
G36*
X120171Y297340D02*
X117671D01*
X116946Y297269D01*
X116248Y297057D01*
X115606Y296713D01*
X115042Y296251D01*
X114675Y295803D01*
X113834Y295680D01*
X112928Y295780D01*
X112658Y296109D01*
X112125Y296546D01*
X111517Y296871D01*
X110857Y297071D01*
X110171Y297139D01*
X109521D01*
Y293622D01*
Y290105D01*
X110171D01*
X110857Y290173D01*
X111517Y290373D01*
X112125Y290698D01*
X112658Y291135D01*
X112928Y291464D01*
X113834Y291564D01*
X114675Y291441D01*
X115042Y290993D01*
X115606Y290531D01*
X116248Y290187D01*
X116946Y289976D01*
X117671Y289904D01*
X120171D01*
X120896Y289976D01*
X121594Y290187D01*
X122237Y290531D01*
X122800Y290993D01*
X123263Y291556D01*
X123606Y292199D01*
X123818Y292897D01*
X123889Y293622D01*
X123818Y294347D01*
X123606Y295045D01*
X123263Y295688D01*
X122800Y296251D01*
X122237Y296713D01*
X121594Y297057D01*
X120896Y297269D01*
X120171Y297340D01*
D02*
G37*
G36*
X157750Y294218D02*
X155250D01*
X154525Y294146D01*
X153827Y293935D01*
X153184Y293591D01*
X152621Y293129D01*
X152159Y292565D01*
X151815Y291923D01*
X151603Y291225D01*
X151532Y290500D01*
X151603Y289775D01*
X151815Y289077D01*
X152159Y288435D01*
X152621Y287871D01*
X153184Y287409D01*
X153827Y287065D01*
X154525Y286854D01*
X155250Y286782D01*
X157750D01*
X158475Y286854D01*
X159173Y287065D01*
X159816Y287409D01*
X160379Y287871D01*
X160841Y288435D01*
X161185Y289077D01*
X161397Y289775D01*
X161468Y290500D01*
X161397Y291225D01*
X161185Y291923D01*
X160841Y292565D01*
X160379Y293129D01*
X159816Y293591D01*
X159173Y293935D01*
X158475Y294146D01*
X157750Y294218D01*
D02*
G37*
G36*
Y254218D02*
X155250D01*
X154525Y254147D01*
X153827Y253935D01*
X153184Y253591D01*
X152621Y253129D01*
X152159Y252566D01*
X151815Y251923D01*
X151603Y251225D01*
X151532Y250500D01*
X151603Y249775D01*
X151815Y249077D01*
X152159Y248434D01*
X152621Y247871D01*
X153184Y247409D01*
X153827Y247065D01*
X154525Y246853D01*
X155250Y246782D01*
X157750D01*
X158475Y246853D01*
X159173Y247065D01*
X159816Y247409D01*
X160379Y247871D01*
X160841Y248434D01*
X161185Y249077D01*
X161397Y249775D01*
X161468Y250500D01*
X161397Y251225D01*
X161185Y251923D01*
X160841Y252566D01*
X160379Y253129D01*
X159816Y253591D01*
X159173Y253935D01*
X158475Y254147D01*
X157750Y254218D01*
D02*
G37*
G36*
X270100Y244326D02*
Y242600D01*
X271826D01*
X271728Y242923D01*
X271505Y243340D01*
X271205Y243705D01*
X270840Y244005D01*
X270423Y244228D01*
X270100Y244326D01*
D02*
G37*
G36*
X271826Y241400D02*
X270100D01*
Y239674D01*
X270423Y239772D01*
X270840Y239995D01*
X271205Y240295D01*
X271505Y240660D01*
X271728Y241077D01*
X271826Y241400D01*
D02*
G37*
G36*
X120171Y257139D02*
X119521D01*
Y254222D01*
X123629D01*
X123621Y254308D01*
X123420Y254968D01*
X123095Y255576D01*
X122658Y256109D01*
X122125Y256546D01*
X121517Y256871D01*
X120857Y257071D01*
X120171Y257139D01*
D02*
G37*
G36*
X123629Y253022D02*
X119521D01*
Y250105D01*
X120171D01*
X120857Y250173D01*
X121517Y250373D01*
X122125Y250698D01*
X122658Y251135D01*
X123095Y251668D01*
X123420Y252276D01*
X123621Y252936D01*
X123629Y253022D01*
D02*
G37*
G36*
X217750Y254218D02*
X215250D01*
X214525Y254147D01*
X213827Y253935D01*
X213184Y253591D01*
X212621Y253129D01*
X212159Y252566D01*
X211815Y251923D01*
X211603Y251225D01*
X211532Y250500D01*
X211603Y249775D01*
X211815Y249077D01*
X212159Y248434D01*
X212621Y247871D01*
X213184Y247409D01*
X213827Y247065D01*
X214525Y246853D01*
X215250Y246782D01*
X217750D01*
X218475Y246853D01*
X219173Y247065D01*
X219815Y247409D01*
X220379Y247871D01*
X220841Y248434D01*
X221185Y249077D01*
X221396Y249775D01*
X221468Y250500D01*
X221396Y251225D01*
X221185Y251923D01*
X220841Y252566D01*
X220379Y253129D01*
X219815Y253591D01*
X219173Y253935D01*
X218475Y254147D01*
X217750Y254218D01*
D02*
G37*
G36*
X261826Y311400D02*
X260100D01*
Y309674D01*
X260423Y309772D01*
X260840Y309995D01*
X261205Y310295D01*
X261505Y310660D01*
X261728Y311077D01*
X261826Y311400D01*
D02*
G37*
G36*
X258900D02*
X257174D01*
X257272Y311077D01*
X257495Y310660D01*
X257795Y310295D01*
X258160Y309995D01*
X258577Y309772D01*
X258900Y309674D01*
Y311400D01*
D02*
G37*
G36*
X217750Y314218D02*
X215250D01*
X214525Y314146D01*
X213827Y313935D01*
X213184Y313591D01*
X212621Y313129D01*
X212159Y312565D01*
X211815Y311923D01*
X211603Y311225D01*
X211532Y310500D01*
X211603Y309775D01*
X211815Y309077D01*
X212159Y308435D01*
X212621Y307871D01*
X213184Y307409D01*
X213827Y307065D01*
X214525Y306854D01*
X215250Y306782D01*
X217750D01*
X218475Y306854D01*
X219173Y307065D01*
X219815Y307409D01*
X220379Y307871D01*
X220841Y308435D01*
X221185Y309077D01*
X221396Y309775D01*
X221468Y310500D01*
X221396Y311225D01*
X221185Y311923D01*
X220841Y312565D01*
X220379Y313129D01*
X219815Y313591D01*
X219173Y313935D01*
X218475Y314146D01*
X217750Y314218D01*
D02*
G37*
G36*
X203750Y314718D02*
X201250D01*
X200525Y314647D01*
X199827Y314435D01*
X199184Y314091D01*
X198621Y313629D01*
X198391Y313349D01*
X197500Y313186D01*
X196609Y313349D01*
X196379Y313629D01*
X195816Y314091D01*
X195173Y314435D01*
X194475Y314647D01*
X193750Y314718D01*
X191250D01*
X190525Y314647D01*
X189827Y314435D01*
X189184Y314091D01*
X188621Y313629D01*
X188159Y313066D01*
X187815Y312423D01*
X187603Y311725D01*
X187532Y311000D01*
X187603Y310275D01*
X187815Y309577D01*
X188159Y308934D01*
X188621Y308371D01*
X189184Y307909D01*
X189827Y307565D01*
X190525Y307353D01*
X191250Y307282D01*
X193750D01*
X194475Y307353D01*
X195173Y307565D01*
X195816Y307909D01*
X196379Y308371D01*
X196609Y308651D01*
X197500Y308814D01*
X198391Y308651D01*
X198621Y308371D01*
X199184Y307909D01*
X199827Y307565D01*
X200525Y307353D01*
X201250Y307282D01*
X203750D01*
X204475Y307353D01*
X205173Y307565D01*
X205816Y307909D01*
X206379Y308371D01*
X206841Y308934D01*
X207185Y309577D01*
X207397Y310275D01*
X207468Y311000D01*
X207397Y311725D01*
X207185Y312423D01*
X206841Y313066D01*
X206379Y313629D01*
X205816Y314091D01*
X205173Y314435D01*
X204475Y314647D01*
X203750Y314718D01*
D02*
G37*
G36*
X260100Y314326D02*
Y312600D01*
X261826D01*
X261728Y312923D01*
X261505Y313340D01*
X261205Y313705D01*
X260840Y314005D01*
X260423Y314228D01*
X260100Y314326D01*
D02*
G37*
G36*
X258900D02*
X258577Y314228D01*
X258160Y314005D01*
X257795Y313705D01*
X257495Y313340D01*
X257272Y312923D01*
X257174Y312600D01*
X258900D01*
Y314326D01*
D02*
G37*
G36*
X217750Y304218D02*
X215250D01*
X214525Y304147D01*
X213827Y303935D01*
X213184Y303591D01*
X212621Y303129D01*
X212159Y302566D01*
X211815Y301923D01*
X211603Y301225D01*
X211532Y300500D01*
X211603Y299775D01*
X211815Y299077D01*
X212159Y298434D01*
X212621Y297871D01*
X213184Y297409D01*
X213827Y297065D01*
X214525Y296853D01*
X215250Y296782D01*
X217750D01*
X218475Y296853D01*
X219173Y297065D01*
X219815Y297409D01*
X220379Y297871D01*
X220841Y298434D01*
X221185Y299077D01*
X221396Y299775D01*
X221468Y300500D01*
X221396Y301225D01*
X221185Y301923D01*
X220841Y302566D01*
X220379Y303129D01*
X219815Y303591D01*
X219173Y303935D01*
X218475Y304147D01*
X217750Y304218D01*
D02*
G37*
G36*
X157750D02*
X155250D01*
X154525Y304147D01*
X153827Y303935D01*
X153184Y303591D01*
X152621Y303129D01*
X152159Y302566D01*
X151815Y301923D01*
X151603Y301225D01*
X151532Y300500D01*
X151603Y299775D01*
X151815Y299077D01*
X152159Y298434D01*
X152621Y297871D01*
X153184Y297409D01*
X153827Y297065D01*
X154525Y296853D01*
X155250Y296782D01*
X157750D01*
X158475Y296853D01*
X159173Y297065D01*
X159816Y297409D01*
X160379Y297871D01*
X160841Y298434D01*
X161185Y299077D01*
X161397Y299775D01*
X161468Y300500D01*
X161397Y301225D01*
X161185Y301923D01*
X160841Y302566D01*
X160379Y303129D01*
X159816Y303591D01*
X159173Y303935D01*
X158475Y304147D01*
X157750Y304218D01*
D02*
G37*
G36*
X293478Y303766D02*
X286100D01*
Y296388D01*
X286546Y296418D01*
X287575Y296622D01*
X288568Y296959D01*
X289509Y297423D01*
X290381Y298006D01*
X291169Y298697D01*
X291860Y299486D01*
X292443Y300358D01*
X292907Y301298D01*
X293244Y302291D01*
X293449Y303320D01*
X293478Y303766D01*
D02*
G37*
G36*
X157750Y314218D02*
X155250D01*
X154525Y314146D01*
X153827Y313935D01*
X153184Y313591D01*
X152621Y313129D01*
X152159Y312565D01*
X151815Y311923D01*
X151603Y311225D01*
X151532Y310500D01*
X151603Y309775D01*
X151815Y309077D01*
X152159Y308435D01*
X152621Y307871D01*
X153184Y307409D01*
X153827Y307065D01*
X154525Y306854D01*
X155250Y306782D01*
X157750D01*
X158475Y306854D01*
X159173Y307065D01*
X159816Y307409D01*
X160379Y307871D01*
X160841Y308435D01*
X161185Y309077D01*
X161397Y309775D01*
X161468Y310500D01*
X161397Y311225D01*
X161185Y311923D01*
X160841Y312565D01*
X160379Y313129D01*
X159816Y313591D01*
X159173Y313935D01*
X158475Y314146D01*
X157750Y314218D01*
D02*
G37*
G36*
X290326Y313900D02*
X285674D01*
X285682Y313875D01*
X285656Y313665D01*
X285304Y312973D01*
X284828Y312359D01*
X284796Y312337D01*
X284454Y312315D01*
X283425Y312110D01*
X282432Y311773D01*
X281491Y311309D01*
X280620Y310727D01*
X279831Y310035D01*
X279140Y309247D01*
X278557Y308375D01*
X278093Y307434D01*
X277756Y306441D01*
X277551Y305413D01*
X277522Y304966D01*
X293478D01*
X293449Y305413D01*
X293244Y306441D01*
X292907Y307434D01*
X292443Y308375D01*
X291860Y309247D01*
X291169Y310035D01*
X290381Y310727D01*
X289862Y311073D01*
X289696Y311526D01*
X289634Y312255D01*
X289701Y312762D01*
X289758Y312859D01*
X290005Y313160D01*
X290228Y313577D01*
X290326Y313900D01*
D02*
G37*
G36*
X203750Y304718D02*
X201250D01*
X200525Y304646D01*
X199827Y304435D01*
X199184Y304091D01*
X198621Y303629D01*
X198391Y303348D01*
X197500Y303186D01*
X196609Y303348D01*
X196379Y303629D01*
X195816Y304091D01*
X195173Y304435D01*
X194475Y304646D01*
X193750Y304718D01*
X191250D01*
X190525Y304646D01*
X189827Y304435D01*
X189184Y304091D01*
X188621Y303629D01*
X188159Y303065D01*
X187815Y302423D01*
X187603Y301725D01*
X187532Y301000D01*
X187603Y300275D01*
X187815Y299577D01*
X188159Y298935D01*
X188621Y298371D01*
X189184Y297909D01*
X189827Y297565D01*
X190525Y297354D01*
X191250Y297282D01*
X193750D01*
X194475Y297354D01*
X195173Y297565D01*
X195816Y297909D01*
X196379Y298371D01*
X196609Y298652D01*
X197500Y298814D01*
X198391Y298652D01*
X198621Y298371D01*
X199184Y297909D01*
X199827Y297565D01*
X200525Y297354D01*
X201250Y297282D01*
X203750D01*
X204475Y297354D01*
X205173Y297565D01*
X205816Y297909D01*
X206379Y298371D01*
X206841Y298935D01*
X207185Y299577D01*
X207397Y300275D01*
X207468Y301000D01*
X207397Y301725D01*
X207185Y302423D01*
X206841Y303065D01*
X206379Y303629D01*
X205816Y304091D01*
X205173Y304435D01*
X204475Y304646D01*
X203750Y304718D01*
D02*
G37*
%LPD*%
D40*
X250300Y247800D02*
X250500Y248000D01*
X247800Y247800D02*
X250300D01*
X244000Y244000D02*
X247800Y247800D01*
X259500Y248000D02*
X265500Y242000D01*
X250500Y248000D02*
X259500D01*
X260500Y180900D02*
X263100Y183500D01*
X260500Y179500D02*
Y180900D01*
X262000Y184600D02*
Y205500D01*
Y184600D02*
X263100Y183500D01*
X283500D01*
X262000Y205500D02*
X264000Y207500D01*
Y240500D01*
X265500Y242000D01*
D41*
X263500Y112000D02*
Y117500D01*
X260400Y108900D02*
X263500Y112000D01*
X143787Y108900D02*
X260400D01*
X144574Y110800D02*
X252982D01*
X262682Y120500D02*
X269500D01*
X252982Y110800D02*
X262682Y120500D01*
X133000Y223500D02*
X146500Y210000D01*
Y204700D02*
Y210000D01*
Y204700D02*
X146700D01*
X195000Y167454D02*
X200754Y161700D01*
X252000Y156000D02*
X252500D01*
X254700Y158200D01*
Y164246D01*
X195000Y167454D02*
Y174500D01*
X200754Y161700D02*
X206800D01*
X195000Y174500D02*
X198000Y177500D01*
X206800Y161700D02*
X208500Y160000D01*
X254700Y164246D02*
X267454Y177000D01*
X296500D01*
X174500Y270500D02*
X175000D01*
X175800Y269700D01*
X178500Y270500D02*
X184100Y276100D01*
X182500Y270500D02*
X186300Y274300D01*
X186800Y270500D02*
X191000Y266300D01*
X175800Y269382D02*
X180682Y264500D01*
X175800Y269382D02*
Y269700D01*
X279800Y163300D02*
X285300D01*
X281800Y166700D02*
X282500Y166000D01*
X276500Y158000D02*
Y164000D01*
X273800Y157700D02*
Y165118D01*
X275382Y166700D02*
X281800D01*
X273800Y165118D02*
X275382Y166700D01*
X276500Y158000D02*
X289000Y145500D01*
X273800Y157700D02*
X287000Y144500D01*
X156500Y340500D02*
X164000Y348000D01*
Y359909D01*
X170991Y366900D01*
X156500Y350500D02*
X162000Y356000D01*
Y360454D01*
X170246Y368700D01*
X237254D01*
X169500Y370500D02*
X238000D01*
X159500Y360500D02*
X169500Y370500D01*
X156500Y360500D02*
X159500D01*
X170991Y366900D02*
X236509D01*
X126000Y285000D02*
X126321D01*
X126622Y284699D01*
X120423Y278500D02*
X126622Y284699D01*
X180682Y264500D02*
X259350D01*
X186300Y274300D02*
X219324D01*
X184100Y276100D02*
X220070D01*
X191000Y266300D02*
X260096D01*
X190700Y283000D02*
X194000Y286300D01*
X195000Y283000D02*
X196300Y284300D01*
X219700D02*
X232300Y271700D01*
X196300Y284300D02*
X219700D01*
X220246Y286300D02*
X233046Y273500D01*
X194000Y286300D02*
X220246D01*
X233046Y273500D02*
X263078D01*
X270244Y266334D01*
X291212D01*
X299200Y258346D01*
X220070Y276100D02*
X226270Y269900D01*
X219324Y274300D02*
X225524Y268100D01*
X260841D01*
X232300Y271700D02*
X262333D01*
X269499Y264534D01*
X290429D01*
X291963Y263000D01*
X292000D01*
X226270Y269900D02*
X261587D01*
X268753Y262734D01*
X289684D01*
X260841Y268100D02*
X268008Y260934D01*
X288938D01*
X260096Y266300D02*
X286050Y240346D01*
X289650Y223850D02*
X296500Y217000D01*
X289650Y223850D02*
Y242500D01*
X295500Y197000D02*
X296500D01*
X286050Y206450D02*
X295500Y197000D01*
X286050Y206450D02*
Y240346D01*
X259350Y264500D02*
X284250Y239600D01*
Y199250D02*
Y239600D01*
Y199250D02*
X296500Y187000D01*
X287850Y215650D02*
Y243246D01*
X293800Y249196D01*
Y256072D01*
X295600Y248450D02*
Y256817D01*
X289650Y242500D02*
X295600Y248450D01*
X297400Y247705D02*
Y257600D01*
X291450Y241755D02*
X297400Y247705D01*
X291450Y232050D02*
Y241755D01*
X299200Y239700D02*
Y258346D01*
X289684Y262734D02*
X295600Y256817D01*
X292000Y263000D02*
X297400Y257600D01*
X296500Y237000D02*
X299200Y239700D01*
X288938Y260934D02*
X293800Y256072D01*
X291450Y232050D02*
X296500Y227000D01*
X287850Y215650D02*
X296500Y207000D01*
X317820Y205820D02*
Y346635D01*
X309000Y197000D02*
X317820Y205820D01*
X265418Y180600D02*
X290600D01*
X266709Y178800D02*
X291676D01*
X288500Y175000D02*
X296500Y167000D01*
X268000Y175000D02*
X288500D01*
X278300Y161800D02*
X279800Y163300D01*
X278300Y159200D02*
Y161800D01*
Y159200D02*
X291000Y146500D01*
X261618Y176800D02*
X265418Y180600D01*
X256000Y180182D02*
Y221500D01*
Y180182D02*
X259382Y176800D01*
X261618D01*
X252000Y164091D02*
X266709Y178800D01*
X256500Y163500D02*
X268000Y175000D01*
X105500Y278500D02*
X120423D01*
X103671Y276671D02*
X105500Y278500D01*
X223500Y233000D02*
X229500Y239000D01*
X249000D01*
X253500Y234500D01*
Y224000D02*
Y234500D01*
Y224000D02*
X256000Y221500D01*
X145000Y113000D02*
X145400Y112600D01*
X138600Y119400D02*
X145000Y113000D01*
X194000Y117500D02*
Y143000D01*
X189500Y113000D02*
X194000Y117500D01*
X145000Y113000D02*
X189500D01*
X153000Y120000D02*
X155985D01*
X149000D02*
X151700Y117300D01*
X155830D01*
X161000Y122470D01*
X155985Y120000D02*
X159200Y123215D01*
X143000Y107000D02*
X269000D01*
X142000Y105000D02*
X270000D01*
X141000Y103000D02*
X271000D01*
X136800Y118574D02*
X144574Y110800D01*
X134900Y117787D02*
X143787Y108900D01*
X133000Y117000D02*
X143000Y107000D01*
X269000D02*
X287000Y125000D01*
X131000Y116000D02*
X142000Y105000D01*
X270000D02*
X289000Y124000D01*
X129000Y115000D02*
X141000Y103000D01*
X271000D02*
X291000Y123000D01*
X138600Y119400D02*
Y151863D01*
X135500Y154963D02*
X138600Y151863D01*
X135500Y154963D02*
Y159000D01*
X126071Y161846D02*
Y183379D01*
X124171Y161059D02*
Y181329D01*
Y161059D02*
X134900Y150330D01*
X126071Y161846D02*
X136800Y151117D01*
X153000Y149500D02*
X159000Y155500D01*
X153000Y124000D02*
Y149500D01*
X159200Y149700D02*
X165000Y155500D01*
X159200Y123215D02*
Y149700D01*
X247863Y346500D02*
X307772D01*
X241700Y340337D02*
X247863Y346500D01*
X241700Y329382D02*
Y340337D01*
X239000Y326682D02*
X241700Y329382D01*
X312420Y229420D02*
Y344398D01*
X308518Y348300D02*
X312420Y344398D01*
X247118Y348300D02*
X308518D01*
X314220Y221720D02*
Y345144D01*
X309263Y350100D02*
X314220Y345144D01*
X244309Y350100D02*
X309263D01*
X316020Y214020D02*
Y345889D01*
X310009Y351900D02*
X316020Y345889D01*
X245054Y351900D02*
X310009D01*
X310754Y353700D02*
X317820Y346635D01*
X245800Y353700D02*
X310754D01*
X239000Y330500D02*
X239500D01*
X310620Y241120D02*
Y343652D01*
X239900Y341082D02*
X247118Y348300D01*
X239900Y330900D02*
Y341082D01*
X239500Y330500D02*
X239900Y330900D01*
X239000Y326500D02*
Y326682D01*
X257000Y225000D02*
Y235500D01*
X250300Y242200D02*
X257000Y235500D01*
X245118Y241300D02*
X249018Y245200D01*
X257800D01*
X259500Y243500D01*
X230976Y243976D02*
X233651Y241300D01*
X245118D01*
X238900Y355509D02*
Y364509D01*
X236509Y366900D02*
X238900Y364509D01*
Y355509D02*
X244309Y350100D01*
X156500Y350500D02*
Y352000D01*
X237254Y368700D02*
X240700Y365254D01*
Y356254D02*
Y365254D01*
X242500Y357000D02*
Y366000D01*
X238000Y370500D02*
X242500Y366000D01*
X240700Y356254D02*
X245054Y351900D01*
X239182Y165000D02*
X250882Y153300D01*
X227500Y165000D02*
X239182D01*
X193500Y235500D02*
X205000D01*
X242500Y357000D02*
X245800Y353700D01*
X204500Y218500D02*
X216500Y230500D01*
X191500Y218500D02*
X204500D01*
X191500Y208500D02*
X214500D01*
X216500Y210500D01*
X201000Y186500D02*
X218000D01*
X227500Y177000D01*
Y165000D02*
Y177000D01*
X250882Y153300D02*
X253118D01*
X256500Y156682D01*
Y163500D01*
X183000Y204000D02*
Y204500D01*
X252000Y160000D02*
Y164091D01*
X210500Y214500D02*
X216500Y220500D01*
X191500Y214500D02*
X210500D01*
X290600Y180600D02*
X292600Y182600D01*
X302100D01*
X306500Y187000D01*
X301550Y178574D02*
X303500Y176624D01*
X301550Y178574D02*
Y178574D01*
X299324Y180800D02*
X301550Y178574D01*
X293676Y180800D02*
X299324D01*
X291676Y178800D02*
X293676Y180800D01*
X269500Y119500D02*
Y120500D01*
X136800Y118574D02*
Y151117D01*
X118921Y190529D02*
X126071Y183379D01*
X118921Y190529D02*
Y193622D01*
X287000Y125000D02*
Y144500D01*
X133000Y117000D02*
Y149543D01*
X118921Y163622D02*
X133000Y149543D01*
X134900Y117787D02*
Y150330D01*
X121878Y183622D02*
X124171Y181329D01*
X118921Y183622D02*
X121878D01*
X161000Y145500D02*
X171000Y155500D01*
X161000Y122470D02*
Y145500D01*
X291000Y123000D02*
Y146500D01*
X129000Y115000D02*
Y133543D01*
X118921Y143622D02*
X129000Y133543D01*
X289000Y124000D02*
Y145500D01*
X131000Y116000D02*
Y141543D01*
X118921Y153622D02*
X131000Y141543D01*
X204000Y168000D02*
X216500Y180500D01*
X201000Y168000D02*
X204000D01*
X103671Y171965D02*
Y276671D01*
Y171965D02*
X108921Y166715D01*
Y163622D02*
Y166715D01*
X267000Y137500D02*
X277500Y148000D01*
X260500Y137500D02*
X267000D01*
X277500Y148000D02*
Y149500D01*
X306500Y207000D02*
X309000D01*
X316020Y214020D01*
X306500Y217000D02*
X309500D01*
X314220Y221720D01*
X306500Y227000D02*
X310000D01*
X312420Y229420D01*
X306500Y197000D02*
X309000D01*
X306500Y237000D02*
X310620Y241120D01*
X307772Y346500D02*
X310620Y343652D01*
X198000Y167000D02*
Y172500D01*
Y167000D02*
X201500Y163500D01*
X211500D01*
X303500Y177000D02*
X306500D01*
X303500Y176624D02*
Y177000D01*
D44*
X141846Y135000D02*
Y135846D01*
X259000Y183800D02*
Y196500D01*
X295000Y158500D02*
X296500Y157000D01*
X171000Y193500D02*
Y197709D01*
X177646Y204354D01*
X154500Y168500D02*
X156500Y170500D01*
D45*
X132144Y204644D02*
Y214144D01*
X119443D02*
X132144D01*
X118921Y213622D02*
X119443Y214144D01*
X150700Y164700D02*
X154500Y168500D01*
X150700Y144007D02*
Y164700D01*
X142193Y135500D02*
X150700Y144007D01*
D46*
X118921Y133622D02*
D03*
X108921D02*
D03*
X118921Y143622D02*
D03*
X108921D02*
D03*
X118921Y153622D02*
D03*
X108921D02*
D03*
X118921Y163622D02*
D03*
X108921D02*
D03*
X118921Y173622D02*
D03*
X108921D02*
D03*
X118921Y183622D02*
D03*
X108921D02*
D03*
X118921Y193622D02*
D03*
X108921D02*
D03*
X118921Y203622D02*
D03*
X108921D02*
D03*
X118921Y213622D02*
D03*
X108921D02*
D03*
X118921Y223622D02*
D03*
X108921D02*
D03*
X118921Y233622D02*
D03*
X108921D02*
D03*
X118921Y243622D02*
D03*
X108921D02*
D03*
X118921Y253622D02*
D03*
X108921D02*
D03*
X118921Y263622D02*
D03*
X108921D02*
D03*
X118921Y273622D02*
D03*
X108921D02*
D03*
X118921Y283622D02*
D03*
X108921D02*
D03*
X118921Y293622D02*
D03*
X108921D02*
D03*
X118921Y303622D02*
D03*
X108921D02*
D03*
X118921Y313622D02*
D03*
X108921D02*
D03*
X118921Y323622D02*
D03*
X108921D02*
D03*
D47*
X114000Y114500D02*
D03*
Y342846D02*
D03*
X306913Y114500D02*
D03*
D48*
X285500Y252634D02*
D03*
Y304366D02*
D03*
D49*
X306500Y147000D02*
D03*
Y157000D02*
D03*
Y167000D02*
D03*
Y177000D02*
D03*
Y187000D02*
D03*
Y197000D02*
D03*
Y207000D02*
D03*
Y217000D02*
D03*
Y227000D02*
D03*
Y237000D02*
D03*
X296500Y147000D02*
D03*
Y157000D02*
D03*
Y167000D02*
D03*
Y177000D02*
D03*
Y187000D02*
D03*
Y197000D02*
D03*
Y207000D02*
D03*
Y217000D02*
D03*
Y227000D02*
D03*
X156500Y350500D02*
D03*
Y340500D02*
D03*
Y330500D02*
D03*
Y320500D02*
D03*
Y310500D02*
D03*
Y300500D02*
D03*
Y290500D02*
D03*
Y280500D02*
D03*
Y270500D02*
D03*
Y260500D02*
D03*
Y250500D02*
D03*
Y240500D02*
D03*
Y230500D02*
D03*
Y220500D02*
D03*
Y210500D02*
D03*
Y200500D02*
D03*
Y190500D02*
D03*
Y180500D02*
D03*
Y170500D02*
D03*
X216500Y360500D02*
D03*
Y350500D02*
D03*
Y340500D02*
D03*
Y330500D02*
D03*
Y320500D02*
D03*
Y310500D02*
D03*
Y300500D02*
D03*
Y290500D02*
D03*
Y280500D02*
D03*
Y270500D02*
D03*
Y260500D02*
D03*
Y250500D02*
D03*
Y240500D02*
D03*
Y230500D02*
D03*
Y220500D02*
D03*
Y210500D02*
D03*
Y200500D02*
D03*
Y190500D02*
D03*
Y180500D02*
D03*
Y170500D02*
D03*
X192500Y311000D02*
D03*
Y301000D02*
D03*
X202500Y321000D02*
D03*
Y311000D02*
D03*
Y301000D02*
D03*
D50*
X296500Y237000D02*
D03*
X156500Y360500D02*
D03*
X192500Y321000D02*
D03*
D51*
X178000Y145000D02*
D03*
X263500Y117500D02*
D03*
X132144Y204644D02*
D03*
X133000Y223500D02*
D03*
X132144Y214144D02*
D03*
X146500Y204700D02*
D03*
X208500Y160000D02*
D03*
X252000Y156000D02*
D03*
X198000Y177500D02*
D03*
X174500Y270500D02*
D03*
X178500D02*
D03*
X182500D02*
D03*
X186800D02*
D03*
X285300Y163300D02*
D03*
X282500Y166000D02*
D03*
X276500Y164000D02*
D03*
X126000Y285000D02*
D03*
X190700Y283000D02*
D03*
X195000D02*
D03*
X260500Y179500D02*
D03*
X178500Y129000D02*
D03*
X130500Y171000D02*
D03*
X280500Y205000D02*
D03*
X153000Y120000D02*
D03*
X149000D02*
D03*
X153000Y124000D02*
D03*
X142193Y135500D02*
D03*
X239000Y330500D02*
D03*
Y326500D02*
D03*
X257000Y225000D02*
D03*
X250300Y242200D02*
D03*
X259500Y243500D02*
D03*
X250500Y248000D02*
D03*
X193500Y235500D02*
D03*
X205000D02*
D03*
X191500Y218500D02*
D03*
Y208500D02*
D03*
X201000Y186500D02*
D03*
X223500Y233000D02*
D03*
X183000Y204000D02*
D03*
X252000Y160000D02*
D03*
X191500Y214500D02*
D03*
X230976Y243976D02*
D03*
X237500Y244000D02*
D03*
X259000Y183800D02*
D03*
X264146Y207354D02*
D03*
X269500Y207500D02*
D03*
X259000Y196500D02*
D03*
X288000Y314500D02*
D03*
X288500Y333000D02*
D03*
X259500Y312000D02*
D03*
X269500Y119500D02*
D03*
X194000Y143000D02*
D03*
X135500Y159000D02*
D03*
X165000Y155500D02*
D03*
X171000D02*
D03*
X159000D02*
D03*
X201000Y168000D02*
D03*
X277500Y149500D02*
D03*
X260500Y137500D02*
D03*
X280000Y130000D02*
D03*
X246500Y215000D02*
D03*
X269500Y242000D02*
D03*
X142000Y159000D02*
D03*
X184500Y116500D02*
D03*
X198000Y172500D02*
D03*
X211500Y163500D02*
D03*
X265500Y242000D02*
D03*
X283500Y183500D02*
D03*
X244000Y244000D02*
D03*
X177646Y204354D02*
D03*
X171000Y193500D02*
D03*
M02*
