G04 Layer_Color=15132400*
%FSLAX25Y25*%
%MOIN*%
G70*
G01*
G75*
%ADD41C,0.01000*%
%ADD43C,0.01500*%
%ADD44C,0.01200*%
%ADD52C,0.00984*%
%ADD53C,0.00787*%
%ADD54C,0.00394*%
%ADD55C,0.00800*%
%ADD56C,0.00600*%
%ADD57C,0.00700*%
D41*
X283996Y218500D02*
G03*
X283996Y218504I502J5D01*
G01*
X244500Y158500D02*
G03*
X244500Y158500I-500J0D01*
G01*
X280496Y185000D02*
G03*
X280496Y185004I502J5D01*
G01*
X303556Y273400D02*
G03*
X303556Y273400I-1556J0D01*
G01*
X304524Y281300D02*
G03*
X304524Y281300I-224J0D01*
G01*
X305512Y281500D02*
G03*
X305512Y281500I-1612J0D01*
G01*
X297224Y282600D02*
G03*
X297224Y282600I-424J0D01*
G01*
X299855Y281700D02*
G03*
X299855Y281700I-2555J0D01*
G01*
X308973Y278100D02*
G03*
X308973Y278100I-8873J0D01*
G01*
X258000Y178500D02*
Y181500D01*
X285000Y178500D02*
Y181500D01*
Y139500D02*
Y143000D01*
X258000Y139500D02*
X285000D01*
X258000D02*
Y142500D01*
Y181500D02*
X285000D01*
X311500Y142000D02*
Y242000D01*
X291500Y142000D02*
Y242000D01*
Y142000D02*
X311500D01*
X291500Y242000D02*
X311500D01*
X149500Y165500D02*
Y365500D01*
Y165500D02*
X163500D01*
Y365500D01*
X149500D02*
X163500D01*
X195000Y326000D02*
X207500D01*
X187500D02*
X200000D01*
X187500Y296000D02*
Y326000D01*
Y296000D02*
X207500D01*
Y326000D01*
X209500Y365500D02*
X223500D01*
Y165500D02*
Y365500D01*
X209500Y165500D02*
X223500D01*
X209500D02*
Y365500D01*
X255500Y242000D02*
Y356000D01*
X291500Y103000D02*
Y142500D01*
X157000Y103000D02*
X291500D01*
X223500Y242000D02*
X247700D01*
X223500Y211500D02*
X291500D01*
X243000Y178000D02*
X255500D01*
X223500D02*
X229500D01*
X255500Y148500D02*
Y172500D01*
Y126000D02*
Y142500D01*
X127000Y165500D02*
X223500D01*
X157000Y103000D02*
Y126000D01*
X291500D01*
X185000Y103000D02*
Y126000D01*
X213000Y103000D02*
Y126000D01*
X241000Y103000D02*
Y126000D01*
X266000Y103000D02*
Y126000D01*
X175500D02*
Y165500D01*
X163765Y206000D02*
X209500D01*
X127000Y126000D02*
Y165500D01*
Y126000D02*
X166500D01*
X223500Y160300D02*
Y166500D01*
Y160300D02*
X240000D01*
X188900Y206065D02*
Y238900D01*
X209500D01*
X252800Y242000D02*
X257500D01*
X261300D02*
X263000D01*
X271800D02*
X296000D01*
X103800Y328000D02*
X127000D01*
X103800Y126000D02*
Y328000D01*
X127000Y165000D02*
Y282500D01*
Y287500D02*
Y328000D01*
X104000Y126000D02*
X107500D01*
X120500D02*
X160000D01*
X188765Y188499D02*
Y185167D01*
X189432Y184500D01*
X190764D01*
X191431Y185167D01*
Y188499D01*
X195430D02*
X194097Y187832D01*
X192764Y186499D01*
Y185167D01*
X193430Y184500D01*
X194763D01*
X195430Y185167D01*
Y185833D01*
X194763Y186499D01*
X192764D01*
X209500Y151499D02*
Y148167D01*
X210166Y147500D01*
X211499D01*
X212166Y148167D01*
Y151499D01*
X213499Y147500D02*
X214832D01*
X214165D01*
Y151499D01*
X213499Y150832D01*
X278500Y350999D02*
Y347666D01*
X279166Y347000D01*
X280499D01*
X281166Y347666D01*
Y350999D01*
X285164Y347000D02*
X282499D01*
X285164Y349666D01*
Y350332D01*
X284498Y350999D01*
X283165D01*
X282499Y350332D01*
X234000Y216999D02*
Y213666D01*
X234666Y213000D01*
X235999D01*
X236666Y213666D01*
Y216999D01*
X237999Y216332D02*
X238665Y216999D01*
X239998D01*
X240665Y216332D01*
Y215666D01*
X239998Y214999D01*
X239332D01*
X239998D01*
X240665Y214333D01*
Y213666D01*
X239998Y213000D01*
X238665D01*
X237999Y213666D01*
X248000Y206000D02*
Y209999D01*
X249999D01*
X250666Y209332D01*
Y207999D01*
X249999Y207333D01*
X248000D01*
X249333D02*
X250666Y206000D01*
X251999Y209999D02*
X254664D01*
Y209332D01*
X251999Y206666D01*
Y206000D01*
X252500Y235000D02*
Y238999D01*
X254499D01*
X255166Y238332D01*
Y236999D01*
X254499Y236333D01*
X252500D01*
X253833D02*
X255166Y235000D01*
X259165Y238999D02*
X257832Y238332D01*
X256499Y236999D01*
Y235666D01*
X257165Y235000D01*
X258498D01*
X259165Y235666D01*
Y236333D01*
X258498Y236999D01*
X256499D01*
X198500Y141000D02*
Y144999D01*
X200499D01*
X201166Y144332D01*
Y142999D01*
X200499Y142333D01*
X198500D01*
X199833D02*
X201166Y141000D01*
X202499Y144332D02*
X203165Y144999D01*
X204498D01*
X205165Y144332D01*
Y143666D01*
X204498Y142999D01*
X205165Y142333D01*
Y141666D01*
X204498Y141000D01*
X203165D01*
X202499Y141666D01*
Y142333D01*
X203165Y142999D01*
X202499Y143666D01*
Y144332D01*
X203165Y142999D02*
X204498D01*
X134666Y155332D02*
X133999Y155999D01*
X132667D01*
X132000Y155332D01*
Y152666D01*
X132667Y152000D01*
X133999D01*
X134666Y152666D01*
X135999Y152000D02*
X137332D01*
X136665D01*
Y155999D01*
X135999Y155332D01*
X139331Y152000D02*
X140664D01*
X139997D01*
Y155999D01*
X139331Y155332D01*
X274000Y217999D02*
Y214666D01*
X274666Y214000D01*
X275999D01*
X276666Y214666D01*
Y217999D01*
X279998Y214000D02*
Y217999D01*
X277999Y215999D01*
X280664D01*
X226666Y151999D02*
X225333D01*
X225999D01*
Y148667D01*
X225333Y148000D01*
X224666D01*
X224000Y148667D01*
X227999Y148000D02*
X229332D01*
X228665D01*
Y151999D01*
X227999Y151332D01*
X279000Y137999D02*
Y134000D01*
Y135333D01*
X281666Y137999D01*
X279666Y135999D01*
X281666Y134000D01*
X282999D02*
X284332D01*
X283665D01*
Y137999D01*
X282999Y137332D01*
X192666Y128666D02*
Y131332D01*
X191999Y131999D01*
X190666D01*
X190000Y131332D01*
Y128666D01*
X190666Y128000D01*
X191999D01*
X191333Y129333D02*
X192666Y128000D01*
X191999D02*
X192666Y128666D01*
X196665Y128000D02*
X193999D01*
X196665Y130666D01*
Y131332D01*
X195998Y131999D01*
X194665D01*
X193999Y131332D01*
X200000Y114999D02*
Y111000D01*
X201999D01*
X202666Y111667D01*
Y114332D01*
X201999Y114999D01*
X200000D01*
X205998Y111000D02*
Y114999D01*
X203999Y112999D01*
X206664D01*
X304166Y350999D02*
X302833D01*
X303499D01*
Y347666D01*
X302833Y347000D01*
X302166D01*
X301500Y347666D01*
X308165Y347000D02*
X305499D01*
X308165Y349666D01*
Y350332D01*
X307498Y350999D01*
X306165D01*
X305499Y350332D01*
X131666Y327499D02*
X130333D01*
X130999D01*
Y324166D01*
X130333Y323500D01*
X129666D01*
X129000Y324166D01*
X134998Y323500D02*
Y327499D01*
X132999Y325499D01*
X135664D01*
X262166Y259999D02*
X260833D01*
X261499D01*
Y256666D01*
X260833Y256000D01*
X260166D01*
X259500Y256666D01*
X263499Y259332D02*
X264165Y259999D01*
X265498D01*
X266164Y259332D01*
Y258666D01*
X265498Y257999D01*
X264832D01*
X265498D01*
X266164Y257333D01*
Y256666D01*
X265498Y256000D01*
X264165D01*
X263499Y256666D01*
X195228Y211999D02*
Y208000D01*
X197228D01*
X197894Y208666D01*
Y211332D01*
X197228Y211999D01*
X195228D01*
X199227D02*
X201893D01*
Y211332D01*
X199227Y208666D01*
Y208000D01*
X222666Y129166D02*
Y131832D01*
X221999Y132499D01*
X220666D01*
X220000Y131832D01*
Y129166D01*
X220666Y128500D01*
X221999D01*
X221333Y129833D02*
X222666Y128500D01*
X221999D02*
X222666Y129166D01*
X223999Y131832D02*
X224665Y132499D01*
X225998D01*
X226664Y131832D01*
Y131166D01*
X225998Y130499D01*
X225332D01*
X225998D01*
X226664Y129833D01*
Y129166D01*
X225998Y128500D01*
X224665D01*
X223999Y129166D01*
X234000Y209999D02*
Y206000D01*
X235999D01*
X236666Y206666D01*
Y209332D01*
X235999Y209999D01*
X234000D01*
X240665D02*
X239332Y209332D01*
X237999Y207999D01*
Y206666D01*
X238665Y206000D01*
X239998D01*
X240665Y206666D01*
Y207333D01*
X239998Y207999D01*
X237999D01*
X315666Y238499D02*
X314333D01*
X314999D01*
Y235166D01*
X314333Y234500D01*
X313666D01*
X313000Y235166D01*
X319665Y238499D02*
X316999D01*
Y236499D01*
X318332Y237166D01*
X318998D01*
X319665Y236499D01*
Y235166D01*
X318998Y234500D01*
X317665D01*
X316999Y235166D01*
X229000Y114999D02*
Y111000D01*
X230999D01*
X231666Y111667D01*
Y114332D01*
X230999Y114999D01*
X229000D01*
X235665D02*
X232999D01*
Y112999D01*
X234332Y113666D01*
X234998D01*
X235665Y112999D01*
Y111667D01*
X234998Y111000D01*
X233665D01*
X232999Y111667D01*
X146166Y155332D02*
X145499Y155999D01*
X144167D01*
X143500Y155332D01*
Y152666D01*
X144167Y152000D01*
X145499D01*
X146166Y152666D01*
X147499Y152000D02*
X148832D01*
X148165D01*
Y155999D01*
X147499Y155332D01*
X153497Y152000D02*
X150831D01*
X153497Y154666D01*
Y155332D01*
X152830Y155999D01*
X151497D01*
X150831Y155332D01*
X146666Y131332D02*
X145999Y131999D01*
X144667D01*
X144000Y131332D01*
Y128666D01*
X144667Y128000D01*
X145999D01*
X146666Y128666D01*
X147999Y128000D02*
X149332D01*
X148665D01*
Y131999D01*
X147999Y131332D01*
X151331D02*
X151997Y131999D01*
X153330D01*
X153997Y131332D01*
Y130666D01*
X153330Y129999D01*
X152664D01*
X153330D01*
X153997Y129333D01*
Y128666D01*
X153330Y128000D01*
X151997D01*
X151331Y128666D01*
X169166Y363999D02*
X167833D01*
X168499D01*
Y360666D01*
X167833Y360000D01*
X167166D01*
X166500Y360666D01*
X173164Y363999D02*
X171832Y363332D01*
X170499Y361999D01*
Y360666D01*
X171165Y360000D01*
X172498D01*
X173164Y360666D01*
Y361333D01*
X172498Y361999D01*
X170499D01*
X246166Y238332D02*
X245499Y238999D01*
X244166D01*
X243500Y238332D01*
Y235666D01*
X244166Y235000D01*
X245499D01*
X246166Y235666D01*
X247499Y238332D02*
X248165Y238999D01*
X249498D01*
X250165Y238332D01*
Y237666D01*
X249498Y236999D01*
X250165Y236333D01*
Y235666D01*
X249498Y235000D01*
X248165D01*
X247499Y235666D01*
Y236333D01*
X248165Y236999D01*
X247499Y237666D01*
Y238332D01*
X248165Y236999D02*
X249498D01*
X282166Y237832D02*
X281499Y238499D01*
X280166D01*
X279500Y237832D01*
Y235166D01*
X280166Y234500D01*
X281499D01*
X282166Y235166D01*
X283499Y238499D02*
X286164D01*
Y237832D01*
X283499Y235166D01*
Y234500D01*
X267166Y217332D02*
X266499Y217999D01*
X265166D01*
X264500Y217332D01*
Y214666D01*
X265166Y214000D01*
X266499D01*
X267166Y214666D01*
X271164Y217999D02*
X269832Y217332D01*
X268499Y215999D01*
Y214666D01*
X269165Y214000D01*
X270498D01*
X271164Y214666D01*
Y215333D01*
X270498Y215999D01*
X268499D01*
X286666Y339332D02*
X285999Y339999D01*
X284666D01*
X284000Y339332D01*
Y336666D01*
X284666Y336000D01*
X285999D01*
X286666Y336666D01*
X287999Y339332D02*
X288665Y339999D01*
X289998D01*
X290665Y339332D01*
Y338666D01*
X289998Y337999D01*
X289332D01*
X289998D01*
X290665Y337333D01*
Y336666D01*
X289998Y336000D01*
X288665D01*
X287999Y336666D01*
X276666Y315332D02*
X275999Y315999D01*
X274666D01*
X274000Y315332D01*
Y312666D01*
X274666Y312000D01*
X275999D01*
X276666Y312666D01*
X279998Y312000D02*
Y315999D01*
X277999Y313999D01*
X280664D01*
X286666Y329332D02*
X285999Y329999D01*
X284666D01*
X284000Y329332D01*
Y326666D01*
X284666Y326000D01*
X285999D01*
X286666Y326666D01*
X290665Y329999D02*
X287999D01*
Y327999D01*
X289332Y328666D01*
X289998D01*
X290665Y327999D01*
Y326666D01*
X289998Y326000D01*
X288665D01*
X287999Y326666D01*
X187166Y150832D02*
X186499Y151499D01*
X185167D01*
X184500Y150832D01*
Y148167D01*
X185167Y147500D01*
X186499D01*
X187166Y148167D01*
X191165Y147500D02*
X188499D01*
X191165Y150166D01*
Y150832D01*
X190498Y151499D01*
X189165D01*
X188499Y150832D01*
X212166Y156832D02*
X211499Y157499D01*
X210166D01*
X209500Y156832D01*
Y154166D01*
X210166Y153500D01*
X211499D01*
X212166Y154166D01*
X213499Y153500D02*
X214832D01*
X214165D01*
Y157499D01*
X213499Y156832D01*
X191431Y199832D02*
X190764Y200499D01*
X189432D01*
X188765Y199832D01*
Y197167D01*
X189432Y196500D01*
X190764D01*
X191431Y197167D01*
X192764Y196500D02*
X194097D01*
X193430D01*
Y200499D01*
X192764Y199832D01*
X196096D02*
X196763Y200499D01*
X198095D01*
X198762Y199832D01*
Y197167D01*
X198095Y196500D01*
X196763D01*
X196096Y197167D01*
Y199832D01*
X191431Y176832D02*
X190764Y177499D01*
X189432D01*
X188765Y176832D01*
Y174167D01*
X189432Y173500D01*
X190764D01*
X191431Y174167D01*
X192764D02*
X193430Y173500D01*
X194763D01*
X195430Y174167D01*
Y176832D01*
X194763Y177499D01*
X193430D01*
X192764Y176832D01*
Y176166D01*
X193430Y175499D01*
X195430D01*
X195228Y231999D02*
Y228000D01*
X197228D01*
X197894Y228666D01*
Y231332D01*
X197228Y231999D01*
X195228D01*
X199227Y228666D02*
X199893Y228000D01*
X201226D01*
X201893Y228666D01*
Y231332D01*
X201226Y231999D01*
X199893D01*
X199227Y231332D01*
Y230666D01*
X199893Y229999D01*
X201893D01*
X195228Y221999D02*
Y218000D01*
X197228D01*
X197894Y218666D01*
Y221332D01*
X197228Y221999D01*
X195228D01*
X199227Y221332D02*
X199893Y221999D01*
X201226D01*
X201893Y221332D01*
Y220666D01*
X201226Y219999D01*
X201893Y219333D01*
Y218666D01*
X201226Y218000D01*
X199893D01*
X199227Y218666D01*
Y219333D01*
X199893Y219999D01*
X199227Y220666D01*
Y221332D01*
X199893Y219999D02*
X201226D01*
X281851Y115148D02*
Y111149D01*
X283850D01*
X284516Y111816D01*
Y114482D01*
X283850Y115148D01*
X281851D01*
X285849Y111149D02*
X287182D01*
X286516D01*
Y115148D01*
X285849Y114482D01*
X256851Y115148D02*
Y111149D01*
X258850D01*
X259516Y111816D01*
Y114482D01*
X258850Y115148D01*
X256851D01*
X263515Y111149D02*
X260849D01*
X263515Y113815D01*
Y114482D01*
X262849Y115148D01*
X261516D01*
X260849Y114482D01*
X173000Y114999D02*
Y111000D01*
X174999D01*
X175666Y111667D01*
Y114332D01*
X174999Y114999D01*
X173000D01*
X176999Y114332D02*
X177665Y114999D01*
X178998D01*
X179665Y114332D01*
Y113666D01*
X178998Y112999D01*
X178332D01*
X178998D01*
X179665Y112333D01*
Y111667D01*
X178998Y111000D01*
X177665D01*
X176999Y111667D01*
X259666Y131667D02*
Y134332D01*
X258999Y134999D01*
X257666D01*
X257000Y134332D01*
Y131667D01*
X257666Y131000D01*
X258999D01*
X258333Y132333D02*
X259666Y131000D01*
X258999D02*
X259666Y131667D01*
X260999Y131000D02*
X262332D01*
X261665D01*
Y134999D01*
X260999Y134332D01*
X241500Y172500D02*
Y176499D01*
X243499D01*
X244166Y175832D01*
Y174499D01*
X243499Y173833D01*
X241500D01*
X242833D02*
X244166Y172500D01*
X245499D02*
X246832D01*
X246165D01*
Y176499D01*
X245499Y175832D01*
X251497Y172500D02*
X248831D01*
X251497Y175166D01*
Y175832D01*
X250830Y176499D01*
X249497D01*
X248831Y175832D01*
X241500Y167000D02*
Y170999D01*
X243499D01*
X244166Y170332D01*
Y168999D01*
X243499Y168333D01*
X241500D01*
X242833D02*
X244166Y167000D01*
X245499D02*
X246832D01*
X246165D01*
Y170999D01*
X245499Y170332D01*
X248831Y167000D02*
X250164D01*
X249497D01*
Y170999D01*
X248831Y170332D01*
X241500Y161500D02*
Y165499D01*
X243499D01*
X244166Y164832D01*
Y163499D01*
X243499Y162833D01*
X241500D01*
X242833D02*
X244166Y161500D01*
X245499D02*
X246832D01*
X246165D01*
Y165499D01*
X245499Y164832D01*
X248831D02*
X249497Y165499D01*
X250830D01*
X251497Y164832D01*
Y162167D01*
X250830Y161500D01*
X249497D01*
X248831Y162167D01*
Y164832D01*
X189000Y167000D02*
Y170999D01*
X190999D01*
X191666Y170332D01*
Y168999D01*
X190999Y168333D01*
X189000D01*
X190333D02*
X191666Y167000D01*
X192999Y167666D02*
X193665Y167000D01*
X194998D01*
X195665Y167666D01*
Y170332D01*
X194998Y170999D01*
X193665D01*
X192999Y170332D01*
Y169666D01*
X193665Y168999D01*
X195665D01*
X281851Y105149D02*
Y109148D01*
X283850D01*
X284516Y108482D01*
Y107149D01*
X283850Y106482D01*
X281851D01*
X283184D02*
X284516Y105149D01*
X285849D02*
X287182D01*
X286516D01*
Y109148D01*
X285849Y108482D01*
X256851Y105149D02*
Y109148D01*
X258850D01*
X259516Y108482D01*
Y107149D01*
X258850Y106482D01*
X256851D01*
X258184D02*
X259516Y105149D01*
X263515D02*
X260849D01*
X263515Y107815D01*
Y108482D01*
X262849Y109148D01*
X261516D01*
X260849Y108482D01*
X173000Y105000D02*
Y108999D01*
X174999D01*
X175666Y108332D01*
Y106999D01*
X174999Y106333D01*
X173000D01*
X174333D02*
X175666Y105000D01*
X176999Y108332D02*
X177665Y108999D01*
X178998D01*
X179665Y108332D01*
Y107666D01*
X178998Y106999D01*
X178332D01*
X178998D01*
X179665Y106333D01*
Y105666D01*
X178998Y105000D01*
X177665D01*
X176999Y105666D01*
X200000Y105000D02*
Y108999D01*
X201999D01*
X202666Y108332D01*
Y106999D01*
X201999Y106333D01*
X200000D01*
X201333D02*
X202666Y105000D01*
X205998D02*
Y108999D01*
X203999Y106999D01*
X206664D01*
X229000Y105000D02*
Y108999D01*
X230999D01*
X231666Y108332D01*
Y106999D01*
X230999Y106333D01*
X229000D01*
X230333D02*
X231666Y105000D01*
X235665Y108999D02*
X232999D01*
Y106999D01*
X234332Y107666D01*
X234998D01*
X235665Y106999D01*
Y105666D01*
X234998Y105000D01*
X233665D01*
X232999Y105666D01*
X274000Y202499D02*
Y199167D01*
X274666Y198500D01*
X275999D01*
X276666Y199167D01*
Y202499D01*
X280664D02*
X277999D01*
Y200499D01*
X279332Y201166D01*
X279998D01*
X280664Y200499D01*
Y199167D01*
X279998Y198500D01*
X278665D01*
X277999Y199167D01*
X219999Y123998D02*
X216000D01*
Y120999D01*
X217999D01*
X216000D01*
Y118000D01*
X221998D02*
Y121999D01*
X223997Y123998D01*
X225997Y121999D01*
Y118000D01*
Y120999D01*
X221998D01*
X227996Y123998D02*
X229995D01*
X228996D01*
Y118000D01*
X227996D01*
X229995D01*
X232995Y123998D02*
Y118000D01*
X236993D01*
X273500Y124498D02*
Y119500D01*
X274500Y118500D01*
X276499D01*
X277499Y119500D01*
Y124498D01*
X283497Y123498D02*
X282497Y124498D01*
X280498D01*
X279498Y123498D01*
Y122499D01*
X280498Y121499D01*
X282497D01*
X283497Y120499D01*
Y119500D01*
X282497Y118500D01*
X280498D01*
X279498Y119500D01*
X285496Y124498D02*
Y118500D01*
X288495D01*
X289495Y119500D01*
Y120499D01*
X288495Y121499D01*
X285496D01*
X288495D01*
X289495Y122499D01*
Y123498D01*
X288495Y124498D01*
X285496D01*
X188000Y123998D02*
Y118000D01*
X189999Y119999D01*
X191999Y118000D01*
Y123998D01*
X193998Y118000D02*
Y121999D01*
X195997Y123998D01*
X197997Y121999D01*
Y118000D01*
Y120999D01*
X193998D01*
X199996Y118000D02*
Y123998D01*
X202995D01*
X203995Y122998D01*
Y120999D01*
X202995Y119999D01*
X199996D01*
X201995D02*
X203995Y118000D01*
X205994D02*
Y123998D01*
X209993Y118000D01*
Y123998D01*
X160000Y118000D02*
Y123998D01*
X162999D01*
X163999Y122998D01*
Y120999D01*
X162999Y119999D01*
X160000D01*
X165998Y118000D02*
Y121999D01*
X167997Y123998D01*
X169997Y121999D01*
Y118000D01*
Y120999D01*
X165998D01*
X175995Y122998D02*
X174995Y123998D01*
X172996D01*
X171996Y122998D01*
Y121999D01*
X172996Y120999D01*
X174995D01*
X175995Y119999D01*
Y119000D01*
X174995Y118000D01*
X172996D01*
X171996Y119000D01*
X181993Y122998D02*
X180993Y123998D01*
X178994D01*
X177994Y122998D01*
Y121999D01*
X178994Y120999D01*
X180993D01*
X181993Y119999D01*
Y119000D01*
X180993Y118000D01*
X178994D01*
X177994Y119000D01*
X247499Y123998D02*
X243500D01*
Y118000D01*
X247499D01*
X243500Y120999D02*
X245499D01*
X249498Y123998D02*
X253497Y118000D01*
Y123998D02*
X249498Y118000D01*
X255496Y123998D02*
X259495D01*
X257495D01*
Y118000D01*
X105500Y365999D02*
Y362000D01*
Y363333D01*
X108166Y365999D01*
X106167Y363999D01*
X108166Y362000D01*
X112164Y365999D02*
X109499D01*
Y362000D01*
X112164D01*
X109499Y363999D02*
X110832D01*
X113497Y365999D02*
Y363333D01*
X114830Y362000D01*
X116163Y363333D01*
Y365999D01*
X117496D02*
X118829D01*
X118163D01*
Y362000D01*
X117496D01*
X118829D01*
X120828D02*
Y365999D01*
X123494Y362000D01*
Y365999D01*
X128826D02*
Y362000D01*
X130159Y363333D01*
X131492Y362000D01*
Y365999D01*
X135490D02*
X132825D01*
Y362000D01*
X135490D01*
X132825Y363999D02*
X134157D01*
X136823Y365999D02*
X138156D01*
X137490D01*
Y362000D01*
X136823D01*
X138156D01*
X142821Y365332D02*
X142155Y365999D01*
X140822D01*
X140155Y365332D01*
Y364666D01*
X140822Y363999D01*
X142155D01*
X142821Y363333D01*
Y362666D01*
X142155Y362000D01*
X140822D01*
X140155Y362666D01*
X146820Y365332D02*
X146153Y365999D01*
X144821D01*
X144154Y365332D01*
Y364666D01*
X144821Y363999D01*
X146153D01*
X146820Y363333D01*
Y362666D01*
X146153Y362000D01*
X144821D01*
X144154Y362666D01*
X105500Y360499D02*
Y356500D01*
Y358499D01*
X108166D01*
Y360499D01*
Y356500D01*
X109499D02*
Y359166D01*
X110832Y360499D01*
X112164Y359166D01*
Y356500D01*
Y358499D01*
X109499D01*
X113497Y360499D02*
Y356500D01*
X114830Y357833D01*
X116163Y356500D01*
Y360499D01*
X121495D02*
Y356500D01*
Y358499D01*
X124161D01*
Y360499D01*
Y356500D01*
X125494D02*
Y359166D01*
X126826Y360499D01*
X128159Y359166D01*
Y356500D01*
Y358499D01*
X125494D01*
X129492Y356500D02*
Y360499D01*
X130825Y359166D01*
X132158Y360499D01*
Y356500D01*
X133491Y360499D02*
Y356500D01*
X135490D01*
X136157Y357166D01*
Y357833D01*
X135490Y358499D01*
X133491D01*
X135490D01*
X136157Y359166D01*
Y359832D01*
X135490Y360499D01*
X133491D01*
X137490D02*
Y357166D01*
X138156Y356500D01*
X139489D01*
X140155Y357166D01*
Y360499D01*
X141488Y356500D02*
Y360499D01*
X143488D01*
X144154Y359832D01*
Y358499D01*
X143488Y357833D01*
X141488D01*
X142821D02*
X144154Y356500D01*
X148153Y359832D02*
X147486Y360499D01*
X146153D01*
X145487Y359832D01*
Y357166D01*
X146153Y356500D01*
X147486D01*
X148153Y357166D01*
Y358499D01*
X146820D01*
X125500Y354499D02*
Y350500D01*
X127499D01*
X128166Y351166D01*
Y351833D01*
X127499Y352499D01*
X125500D01*
X127499D01*
X128166Y353166D01*
Y353832D01*
X127499Y354499D01*
X125500D01*
X129499Y350500D02*
Y354499D01*
X131498D01*
X132165Y353832D01*
Y352499D01*
X131498Y351833D01*
X129499D01*
X133497Y354499D02*
Y350500D01*
Y352499D01*
X136163D01*
Y354499D01*
Y350500D01*
X137496Y352499D02*
X140162D01*
X141495Y350500D02*
X142828D01*
X142161D01*
Y354499D01*
X141495Y353832D01*
X144827Y350500D02*
Y353166D01*
X146160Y354499D01*
X147493Y353166D01*
Y350500D01*
Y352499D01*
X144827D01*
D43*
X298534Y288666D02*
G03*
X297003Y289300I-1531J-1531D01*
G01*
X299100Y287300D02*
G03*
X298534Y288666I-1931J0D01*
G01*
X299100Y289851D02*
G03*
X298500Y291300I-2049J0D01*
G01*
X302339Y289500D02*
G03*
X300736Y288836I0J-2266D01*
G01*
D02*
G03*
X300100Y287300I1536J-1536D01*
G01*
X301905Y277695D02*
G03*
X303100Y277200I1195J1195D01*
G01*
X301300Y279000D02*
G03*
X301795Y277805I1690J0D01*
G01*
X299100Y287300D02*
Y289851D01*
X301795Y277805D02*
X301905Y277695D01*
D44*
X246499Y140999D02*
X243500D01*
Y138749D01*
X245000Y139499D01*
X245749D01*
X246499Y138749D01*
Y137250D01*
X245749Y136500D01*
X244250D01*
X243500Y137250D01*
X247998Y140999D02*
Y137999D01*
X249498Y136500D01*
X250998Y137999D01*
Y140999D01*
X243500Y146749D02*
X244250Y147499D01*
X245749D01*
X246499Y146749D01*
Y145999D01*
X245749Y145249D01*
X245000D01*
X245749D01*
X246499Y144500D01*
Y143750D01*
X245749Y143000D01*
X244250D01*
X243500Y143750D01*
X247998Y147499D02*
Y144500D01*
X249498Y143000D01*
X250998Y144500D01*
Y147499D01*
D52*
X173807Y181930D02*
G03*
X173807Y181930I-492J0D01*
G01*
X181555Y143480D02*
G03*
X181555Y143480I-492J0D01*
G01*
X204906Y132260D02*
G03*
X204906Y132260I-492J0D01*
G01*
X244557Y202966D02*
G03*
X244557Y202966I-492J0D01*
G01*
X262012Y129063D02*
G03*
X262012Y129063I-492J0D01*
G01*
D53*
X236669Y231362D02*
G03*
X237653Y231362I492J0D01*
G01*
X279500Y219500D02*
G03*
X277500Y221500I-2000J0D01*
G01*
X277500Y221500D02*
G03*
X275500Y219500I0J-2000D01*
G01*
X276000Y186000D02*
G03*
X274000Y188000I-2000J0D01*
G01*
X274000Y188000D02*
G03*
X272000Y186000I0J-2000D01*
G01*
X174398Y185670D02*
Y187639D01*
X186602Y185670D02*
Y187639D01*
X174398Y185670D02*
X186602D01*
X174398Y187639D02*
X186602D01*
X229681Y231362D02*
X236669D01*
X237653D02*
X245035D01*
X229681Y218370D02*
X245035D01*
X229681D02*
Y219551D01*
X245035Y218370D02*
Y219551D01*
X229681Y230575D02*
Y231362D01*
X245035Y230575D02*
Y231362D01*
X256921Y193925D02*
Y197075D01*
X247079Y193925D02*
Y197075D01*
X252610Y223569D02*
Y226719D01*
X262847Y223569D02*
Y226719D01*
X282000Y219500D02*
Y230500D01*
X273000D02*
X282000D01*
X273000Y219500D02*
Y230500D01*
Y219500D02*
X275500D01*
X279500D02*
X282000D01*
X231500Y127000D02*
X241500D01*
X231500D02*
Y137000D01*
X241500D02*
Y147000D01*
X231500D02*
Y157000D01*
X241500D01*
X187559Y130252D02*
Y132851D01*
X184350Y130252D02*
X187559D01*
Y139150D02*
Y141748D01*
X184350D02*
X187559D01*
X205595Y136394D02*
Y138756D01*
X208744D01*
X217406Y136394D02*
Y138756D01*
X214256D02*
X217406D01*
X244374Y181945D02*
Y200055D01*
X228626Y181945D02*
Y200055D01*
X243474D02*
X244374D01*
X243474Y181945D02*
X244374D01*
X228626Y200055D02*
X229526D01*
X228626Y181945D02*
X229526D01*
X215000Y110000D02*
X220000D01*
X215000D02*
Y116000D01*
X220000D01*
X157488Y140106D02*
Y140894D01*
X168512Y140106D02*
Y140894D01*
X271106Y320488D02*
X271894D01*
X271106Y331512D02*
X271894D01*
X267851Y110149D02*
X272851D01*
X267851D02*
Y116149D01*
X272851D01*
X242851Y110149D02*
X247851D01*
X242851D02*
Y116149D01*
X247851D01*
X159000Y110000D02*
X164000D01*
X159000D02*
Y116000D01*
X164000D01*
X272150Y135559D02*
X274748D01*
Y132350D02*
Y135559D01*
X263252D02*
X265850D01*
X263252Y132350D02*
Y135559D01*
X278500Y186000D02*
Y197000D01*
X269500D02*
X278500D01*
X269500Y186000D02*
Y197000D01*
Y186000D02*
X272000D01*
X276000D02*
X278500D01*
D54*
X204153Y212862D02*
G03*
X204153Y212862I-197J0D01*
G01*
Y232862D02*
G03*
X204153Y232862I-197J0D01*
G01*
Y222862D02*
G03*
X204153Y222862I-197J0D01*
G01*
D55*
X198309Y146400D02*
X201691D01*
X198309Y157600D02*
X201691D01*
X203191Y150943D02*
Y153057D01*
D56*
X264500Y338809D02*
Y345200D01*
X276500Y338800D02*
Y345191D01*
X268900Y338800D02*
X272100D01*
D57*
X294000Y252516D02*
X316500D01*
Y304484D01*
X294000D02*
X316500D01*
X270539Y296217D02*
Y304484D01*
X277000D01*
X270539Y252516D02*
Y260784D01*
Y252516D02*
X277000D01*
M02*
