G04 Layer_Color=20142*
%FSLAX25Y25*%
%MOIN*%
G70*
G01*
G75*
%ADD58R,0.03159X0.04931*%
%ADD59R,0.05324X0.02765*%
%ADD60R,0.03400X0.05400*%
%ADD61R,0.06309X0.01663*%
%ADD62O,0.06309X0.01663*%
%ADD63R,0.11230X0.05521*%
%ADD64R,0.11624X0.05915*%
%ADD65R,0.03947X0.03356*%
%ADD66R,0.04734X0.04340*%
%ADD67R,0.06309X0.01781*%
%ADD68R,0.14100X0.05600*%
%ADD69R,0.11072X0.03750*%
%ADD70R,0.04143X0.03750*%
%ADD71R,0.02962X0.04143*%
%ADD72R,0.04331X0.04331*%
%ADD73R,0.06299X0.05709*%
%ADD74R,0.05906X0.06299*%
%ADD75R,0.07480X0.01969*%
%ADD76R,0.11939X0.05009*%
%ADD77R,0.01781X0.02175*%
%ADD78R,0.02962X0.06112*%
%ADD79R,0.11399X0.09100*%
%ADD80R,0.03750X0.03750*%
%ADD81R,0.04537X0.04931*%
%ADD82R,0.12411X0.07883*%
%ADD83R,0.04340X0.04734*%
%ADD84R,0.07883X0.12411*%
%ADD85R,0.04931X0.04537*%
%ADD86R,0.03750X0.04143*%
%ADD87R,0.03356X0.03947*%
%ADD88O,0.08100X0.05600*%
%ADD89C,0.25010*%
%ADD90C,0.14600*%
%ADD91O,0.08100X0.05600*%
%ADD92R,0.08100X0.05600*%
%ADD93C,0.03400*%
D58*
X176760Y181930D02*
D03*
X180500D02*
D03*
X184240D02*
D03*
Y191379D02*
D03*
X176760D02*
D03*
D59*
X194881Y155740D02*
D03*
Y152000D02*
D03*
Y148260D02*
D03*
X205119D02*
D03*
Y155740D02*
D03*
D60*
X274240Y347118D02*
D03*
X270500D02*
D03*
X266700D02*
D03*
Y336800D02*
D03*
X274240D02*
D03*
D61*
X228500Y229000D02*
D03*
D62*
Y227032D02*
D03*
Y225063D02*
D03*
Y223095D02*
D03*
Y221126D02*
D03*
X245823Y229000D02*
D03*
Y227032D02*
D03*
Y225063D02*
D03*
Y223095D02*
D03*
Y221126D02*
D03*
D63*
X252000Y201110D02*
D03*
Y189890D02*
D03*
D64*
X257728Y219337D02*
D03*
Y230951D02*
D03*
D65*
X200000Y133539D02*
D03*
Y138461D02*
D03*
D66*
X135500Y146854D02*
D03*
Y141146D02*
D03*
D67*
X268839Y228937D02*
D03*
Y226968D02*
D03*
Y225000D02*
D03*
Y223031D02*
D03*
Y221063D02*
D03*
X286161Y228937D02*
D03*
Y226968D02*
D03*
Y225000D02*
D03*
Y223031D02*
D03*
Y221063D02*
D03*
X265339Y195437D02*
D03*
Y193468D02*
D03*
Y191500D02*
D03*
Y189531D02*
D03*
Y187563D02*
D03*
X282661Y195437D02*
D03*
Y193468D02*
D03*
Y191500D02*
D03*
Y189531D02*
D03*
Y187563D02*
D03*
D68*
X242250Y152000D02*
D03*
X230750Y142000D02*
D03*
X242250Y132000D02*
D03*
D69*
X285000Y175500D02*
D03*
Y154500D02*
D03*
X258000Y145500D02*
D03*
Y175500D02*
D03*
D70*
X188937Y136000D02*
D03*
X181063Y132260D02*
D03*
Y139740D02*
D03*
D71*
X190047Y113000D02*
D03*
X195953D02*
D03*
D72*
X315000Y333437D02*
D03*
Y325563D02*
D03*
D73*
Y313457D02*
D03*
Y345543D02*
D03*
D74*
X304370Y316705D02*
D03*
Y342295D02*
D03*
D75*
X303701Y324382D02*
D03*
Y326941D02*
D03*
Y329500D02*
D03*
Y332059D02*
D03*
Y334618D02*
D03*
D76*
X271406Y264721D02*
D03*
Y274563D02*
D03*
Y282437D02*
D03*
Y292280D02*
D03*
D77*
X203957Y210500D02*
D03*
X207500D02*
D03*
X203957Y230500D02*
D03*
X207500D02*
D03*
X203957Y220500D02*
D03*
X207500D02*
D03*
D78*
X207760Y132260D02*
D03*
X215240D02*
D03*
X211500Y139740D02*
D03*
D79*
X236500Y199701D02*
D03*
Y182299D02*
D03*
D80*
X223953Y113000D02*
D03*
X218047D02*
D03*
X276803Y113149D02*
D03*
X270898D02*
D03*
X251803D02*
D03*
X245898D02*
D03*
X167953Y113000D02*
D03*
X162047D02*
D03*
D81*
X147500Y140654D02*
D03*
Y147346D02*
D03*
X280500Y336654D02*
D03*
Y343346D02*
D03*
X181000Y155846D02*
D03*
Y149153D02*
D03*
X218500Y155846D02*
D03*
Y149153D02*
D03*
D82*
X163000Y134890D02*
D03*
Y146110D02*
D03*
D83*
X234146Y237000D02*
D03*
X239854D02*
D03*
X275354Y236500D02*
D03*
X269646D02*
D03*
X269854Y201500D02*
D03*
X264146D02*
D03*
X264646Y312000D02*
D03*
X270354D02*
D03*
X183354Y198655D02*
D03*
X177646D02*
D03*
D84*
X277110Y326000D02*
D03*
X265890D02*
D03*
D85*
X177575Y174948D02*
D03*
X184267D02*
D03*
D86*
X269000Y136937D02*
D03*
X272740Y129063D02*
D03*
X265260D02*
D03*
D87*
X237961Y174500D02*
D03*
X233039D02*
D03*
X237961Y169000D02*
D03*
X233039D02*
D03*
X237961Y163500D02*
D03*
X233039D02*
D03*
X181961Y169000D02*
D03*
X177039D02*
D03*
X276311Y107149D02*
D03*
X271390D02*
D03*
X251311D02*
D03*
X246390D02*
D03*
X167461Y107000D02*
D03*
X162539D02*
D03*
X195461D02*
D03*
X190539D02*
D03*
X223461D02*
D03*
X218539D02*
D03*
D88*
X118921Y133622D02*
D03*
X108921D02*
D03*
X118921Y143622D02*
D03*
X108921D02*
D03*
X118921Y153622D02*
D03*
X108921D02*
D03*
X118921Y163622D02*
D03*
X108921D02*
D03*
X118921Y173622D02*
D03*
X108921D02*
D03*
X118921Y183622D02*
D03*
X108921D02*
D03*
X118921Y193622D02*
D03*
X108921D02*
D03*
X118921Y203622D02*
D03*
X108921D02*
D03*
X118921Y213622D02*
D03*
X108921D02*
D03*
X118921Y223622D02*
D03*
X108921D02*
D03*
X118921Y233622D02*
D03*
X108921D02*
D03*
X118921Y243622D02*
D03*
X108921D02*
D03*
X118921Y253622D02*
D03*
X108921D02*
D03*
X118921Y263622D02*
D03*
X108921D02*
D03*
X118921Y273622D02*
D03*
X108921D02*
D03*
X118921Y283622D02*
D03*
X108921D02*
D03*
X118921Y293622D02*
D03*
X108921D02*
D03*
X118921Y303622D02*
D03*
X108921D02*
D03*
X118921Y313622D02*
D03*
X108921D02*
D03*
X118921Y323622D02*
D03*
X108921D02*
D03*
D89*
X114000Y114500D02*
D03*
Y342846D02*
D03*
X306913Y114500D02*
D03*
D90*
X285500Y252634D02*
D03*
Y304366D02*
D03*
D91*
X306500Y147000D02*
D03*
Y157000D02*
D03*
Y167000D02*
D03*
Y177000D02*
D03*
Y187000D02*
D03*
Y197000D02*
D03*
Y207000D02*
D03*
Y217000D02*
D03*
Y227000D02*
D03*
Y237000D02*
D03*
X296500Y147000D02*
D03*
Y157000D02*
D03*
Y167000D02*
D03*
Y177000D02*
D03*
Y187000D02*
D03*
Y197000D02*
D03*
Y207000D02*
D03*
Y217000D02*
D03*
Y227000D02*
D03*
X156500Y350500D02*
D03*
Y340500D02*
D03*
Y330500D02*
D03*
Y320500D02*
D03*
Y310500D02*
D03*
Y300500D02*
D03*
Y290500D02*
D03*
Y280500D02*
D03*
Y270500D02*
D03*
Y260500D02*
D03*
Y250500D02*
D03*
Y240500D02*
D03*
Y230500D02*
D03*
Y220500D02*
D03*
Y210500D02*
D03*
Y200500D02*
D03*
Y190500D02*
D03*
Y180500D02*
D03*
Y170500D02*
D03*
X216500Y360500D02*
D03*
Y350500D02*
D03*
Y340500D02*
D03*
Y330500D02*
D03*
Y320500D02*
D03*
Y310500D02*
D03*
Y300500D02*
D03*
Y290500D02*
D03*
Y280500D02*
D03*
Y270500D02*
D03*
Y260500D02*
D03*
Y250500D02*
D03*
Y240500D02*
D03*
Y230500D02*
D03*
Y220500D02*
D03*
Y210500D02*
D03*
Y200500D02*
D03*
Y190500D02*
D03*
Y180500D02*
D03*
Y170500D02*
D03*
X192500Y311000D02*
D03*
Y301000D02*
D03*
X202500Y321000D02*
D03*
Y311000D02*
D03*
Y301000D02*
D03*
D92*
X296500Y237000D02*
D03*
X156500Y360500D02*
D03*
X192500Y321000D02*
D03*
D93*
X178000Y145000D02*
D03*
X263500Y117500D02*
D03*
X132144Y204644D02*
D03*
X133000Y223500D02*
D03*
X132144Y214144D02*
D03*
X146500Y204700D02*
D03*
X208500Y160000D02*
D03*
X252000Y156000D02*
D03*
X198000Y177500D02*
D03*
X174500Y270500D02*
D03*
X178500D02*
D03*
X182500D02*
D03*
X186800D02*
D03*
X285300Y163300D02*
D03*
X282500Y166000D02*
D03*
X276500Y164000D02*
D03*
X126000Y285000D02*
D03*
X190700Y283000D02*
D03*
X195000D02*
D03*
X260500Y179500D02*
D03*
X178500Y129000D02*
D03*
X130500Y171000D02*
D03*
X280500Y205000D02*
D03*
X153000Y120000D02*
D03*
X149000D02*
D03*
X153000Y124000D02*
D03*
X142193Y135500D02*
D03*
X239000Y330500D02*
D03*
Y326500D02*
D03*
X257000Y225000D02*
D03*
X250300Y242200D02*
D03*
X259500Y243500D02*
D03*
X250500Y248000D02*
D03*
X193500Y235500D02*
D03*
X205000D02*
D03*
X191500Y218500D02*
D03*
Y208500D02*
D03*
X201000Y186500D02*
D03*
X223500Y233000D02*
D03*
X183000Y204000D02*
D03*
X252000Y160000D02*
D03*
X191500Y214500D02*
D03*
X230976Y243976D02*
D03*
X237500Y244000D02*
D03*
X259000Y183800D02*
D03*
X264146Y207354D02*
D03*
X269500Y207500D02*
D03*
X259000Y196500D02*
D03*
X288000Y314500D02*
D03*
X288500Y333000D02*
D03*
X259500Y312000D02*
D03*
X269500Y119500D02*
D03*
X194000Y143000D02*
D03*
X135500Y159000D02*
D03*
X165000Y155500D02*
D03*
X171000D02*
D03*
X159000D02*
D03*
X201000Y168000D02*
D03*
X277500Y149500D02*
D03*
X260500Y137500D02*
D03*
X280000Y130000D02*
D03*
X246500Y215000D02*
D03*
X269500Y242000D02*
D03*
X142000Y159000D02*
D03*
X184500Y116500D02*
D03*
X198000Y172500D02*
D03*
X211500Y163500D02*
D03*
X265500Y242000D02*
D03*
X283500Y183500D02*
D03*
X244000Y244000D02*
D03*
X177646Y204354D02*
D03*
X171000Y193500D02*
D03*
M02*
