G04 Layer_Physical_Order=1*
G04 Layer_Color=25308*
%FSLAX25Y25*%
%MOIN*%
G70*
G01*
G75*
%ADD10R,0.02559X0.04331*%
%ADD11R,0.04724X0.02165*%
%ADD12R,0.02800X0.04800*%
%ADD13R,0.05709X0.01063*%
%ADD14O,0.05709X0.01063*%
%ADD15R,0.10630X0.04921*%
%ADD16R,0.11024X0.05315*%
%ADD17R,0.03347X0.02756*%
%ADD18R,0.04134X0.03740*%
%ADD19R,0.05709X0.01181*%
%ADD20R,0.13500X0.05000*%
%ADD21R,0.10472X0.03150*%
%ADD22R,0.03543X0.03150*%
%ADD23R,0.02362X0.03543*%
%ADD24R,0.03937X0.03937*%
%ADD25R,0.05906X0.05315*%
%ADD26R,0.05512X0.05906*%
%ADD27R,0.07087X0.01575*%
%ADD28R,0.11339X0.04409*%
%ADD29R,0.01181X0.01575*%
%ADD30R,0.02362X0.05512*%
%ADD31R,0.10799X0.08500*%
%ADD32R,0.03150X0.03150*%
%ADD33R,0.03937X0.04331*%
%ADD34R,0.11811X0.07284*%
%ADD35R,0.03740X0.04134*%
%ADD36R,0.07284X0.11811*%
%ADD37R,0.04331X0.03937*%
%ADD38R,0.03150X0.03543*%
%ADD39R,0.02756X0.03347*%
%ADD40C,0.01600*%
%ADD41C,0.01000*%
%ADD42C,0.01400*%
%ADD43C,0.01500*%
%ADD44C,0.01200*%
%ADD45C,0.02000*%
%ADD46O,0.07500X0.05000*%
%ADD47C,0.24410*%
%ADD48C,0.14000*%
%ADD49O,0.07500X0.05000*%
%ADD50R,0.07500X0.05000*%
%ADD51C,0.02800*%
G36*
X114580Y221556D02*
X115042Y220993D01*
X115606Y220531D01*
X116248Y220187D01*
X116946Y219975D01*
X117671Y219904D01*
X120171D01*
X120896Y219975D01*
X121285Y220093D01*
X122046Y219687D01*
X122285Y219423D01*
Y217595D01*
X121931Y217261D01*
X121285Y216941D01*
X120857Y217071D01*
X120171Y217139D01*
X119521D01*
Y213622D01*
X118321D01*
Y217139D01*
X117671D01*
X116985Y217071D01*
X116325Y216871D01*
X115717Y216546D01*
X115184Y216109D01*
X114747Y215576D01*
X114583Y215269D01*
X114176Y215176D01*
X113718Y215200D01*
X113481Y215278D01*
X113262Y215688D01*
X112800Y216251D01*
X112237Y216713D01*
X111594Y217057D01*
X110897Y217268D01*
X110171Y217340D01*
X107671D01*
X106946Y217268D01*
X106386Y217099D01*
X105941Y217297D01*
X105386Y217730D01*
Y219514D01*
X105941Y219947D01*
X106386Y220145D01*
X106946Y219975D01*
X107671Y219904D01*
X110171D01*
X110897Y219975D01*
X111594Y220187D01*
X112237Y220531D01*
X112800Y220993D01*
X113262Y221556D01*
X113354Y221728D01*
X114488D01*
X114580Y221556D01*
D02*
G37*
G36*
X272385Y209659D02*
X271385Y209301D01*
X271347Y209347D01*
X270952Y209672D01*
X270500Y209914D01*
X270010Y210062D01*
X269500Y210113D01*
X268990Y210062D01*
X268500Y209914D01*
X268049Y209672D01*
X267653Y209347D01*
X267328Y208951D01*
X267237Y208783D01*
X266368Y208677D01*
X266114Y208739D01*
X265851Y209060D01*
X265486Y209359D01*
X265069Y209582D01*
X264746Y209680D01*
Y207354D01*
X263546D01*
Y209680D01*
X263223Y209582D01*
X263010Y209468D01*
X262770Y209362D01*
X261932Y209414D01*
X261627Y209627D01*
X261619Y209634D01*
X259443Y211810D01*
Y215480D01*
X264440D01*
Y218415D01*
X264784Y219272D01*
X272385D01*
Y209659D01*
D02*
G37*
G36*
X212159Y238435D02*
X212621Y237871D01*
X213184Y237409D01*
X213827Y237065D01*
X214525Y236854D01*
X215250Y236782D01*
X217750D01*
X218475Y236854D01*
X219173Y237065D01*
X219815Y237409D01*
X220379Y237871D01*
X220785Y238366D01*
X221024Y238366D01*
X221785Y238079D01*
Y234956D01*
X221653Y234847D01*
X221328Y234452D01*
X221086Y234000D01*
X221041Y233850D01*
X220196Y233500D01*
X219931Y233496D01*
X219815Y233591D01*
X219173Y233935D01*
X218475Y234146D01*
X217750Y234218D01*
X215250D01*
X214525Y234146D01*
X213827Y233935D01*
X213184Y233591D01*
X212621Y233129D01*
X212159Y232565D01*
X211971Y232215D01*
X209291D01*
Y232487D01*
X206576D01*
X206326Y233487D01*
X206340Y233495D01*
X206705Y233795D01*
X207005Y234160D01*
X207228Y234577D01*
X207326Y234900D01*
X205000D01*
Y236100D01*
X207326D01*
X207228Y236423D01*
X207005Y236840D01*
X206705Y237205D01*
X206340Y237505D01*
X205923Y237728D01*
X205734Y237785D01*
X205882Y238785D01*
X211971D01*
X212159Y238435D01*
D02*
G37*
G36*
X204557Y228713D02*
X204792D01*
X205709Y228513D01*
X205710Y228513D01*
X205710Y228513D01*
X205710Y228513D01*
X209291D01*
Y228785D01*
X211971D01*
X212159Y228434D01*
X212621Y227871D01*
X213184Y227409D01*
X213827Y227065D01*
X214525Y226853D01*
X215250Y226782D01*
X217750D01*
X217789Y226786D01*
X219889Y224686D01*
X219287Y223874D01*
X219173Y223935D01*
X218475Y224147D01*
X217750Y224218D01*
X215250D01*
X214525Y224147D01*
X213827Y223935D01*
X213184Y223591D01*
X212621Y223129D01*
X212159Y222566D01*
X211971Y222215D01*
X209291D01*
Y222487D01*
X205710D01*
Y222487D01*
X205547Y222287D01*
X204557D01*
Y220500D01*
Y218713D01*
X204792D01*
X205709Y218513D01*
X205710Y218513D01*
X206673Y218513D01*
X209291D01*
Y218785D01*
X211971D01*
X212159Y218435D01*
X212621Y217871D01*
X213184Y217409D01*
X213827Y217065D01*
X214525Y216853D01*
X215250Y216782D01*
X217750D01*
X217789Y216786D01*
X219889Y214686D01*
X219287Y213874D01*
X219173Y213935D01*
X218475Y214146D01*
X217750Y214218D01*
X215250D01*
X214525Y214146D01*
X213827Y213935D01*
X213184Y213591D01*
X212621Y213129D01*
X212159Y212565D01*
X211971Y212215D01*
X209291D01*
Y212487D01*
X205710D01*
Y212487D01*
X205547Y212287D01*
X204557D01*
Y210500D01*
Y208713D01*
X204792D01*
X205709Y208513D01*
X205710Y208513D01*
X206673Y208513D01*
X209291D01*
Y208785D01*
X211971D01*
X212159Y208435D01*
X212621Y207871D01*
X213184Y207409D01*
X213827Y207065D01*
X214525Y206854D01*
X215250Y206782D01*
X217750D01*
X217789Y206786D01*
X219889Y204686D01*
X219287Y203874D01*
X219173Y203935D01*
X218475Y204147D01*
X217750Y204218D01*
X215250D01*
X214525Y204147D01*
X213827Y203935D01*
X213184Y203591D01*
X212621Y203129D01*
X212159Y202566D01*
X211815Y201923D01*
X211603Y201225D01*
X211532Y200500D01*
X211603Y199775D01*
X211815Y199077D01*
X212159Y198434D01*
X212621Y197871D01*
X213184Y197409D01*
X213827Y197065D01*
X214525Y196853D01*
X215250Y196782D01*
X217750D01*
X218475Y196853D01*
X219173Y197065D01*
X219815Y197409D01*
X220379Y197871D01*
X220841Y198434D01*
X221185Y199077D01*
X221396Y199775D01*
X222385Y199665D01*
Y191335D01*
X221396Y191225D01*
X221185Y191923D01*
X220841Y192566D01*
X220379Y193129D01*
X219815Y193591D01*
X219173Y193935D01*
X218475Y194147D01*
X217750Y194218D01*
X215250D01*
X214525Y194147D01*
X213827Y193935D01*
X213184Y193591D01*
X212621Y193129D01*
X212159Y192566D01*
X211815Y191923D01*
X211603Y191225D01*
X211532Y190500D01*
X211603Y189775D01*
X211815Y189077D01*
X212159Y188434D01*
X212621Y187871D01*
X213184Y187409D01*
X213827Y187065D01*
X214525Y186854D01*
X215250Y186782D01*
X217750D01*
X218475Y186854D01*
X219173Y187065D01*
X219815Y187409D01*
X220379Y187871D01*
X220841Y188434D01*
X221185Y189077D01*
X221396Y189775D01*
X222385Y189665D01*
Y181335D01*
X221396Y181225D01*
X221185Y181923D01*
X220841Y182566D01*
X220379Y183129D01*
X219815Y183591D01*
X219173Y183935D01*
X218475Y184146D01*
X217750Y184218D01*
X215250D01*
X214525Y184146D01*
X213827Y183935D01*
X213184Y183591D01*
X212621Y183129D01*
X212159Y182566D01*
X211815Y181923D01*
X211603Y181225D01*
X211532Y180500D01*
X211603Y179775D01*
X211815Y179077D01*
X212159Y178434D01*
X212621Y177871D01*
X213184Y177409D01*
X213827Y177065D01*
X214525Y176854D01*
X215250Y176782D01*
X217750D01*
X218475Y176854D01*
X219173Y177065D01*
X219815Y177409D01*
X220379Y177871D01*
X220841Y178434D01*
X221185Y179077D01*
X221396Y179775D01*
X222385Y179665D01*
Y172439D01*
X222415Y172218D01*
X222444Y171996D01*
X222565Y171703D01*
X222615Y171582D01*
X222888Y171227D01*
X230462Y163653D01*
Y162215D01*
X228710D01*
X227912Y163012D01*
X227557Y163285D01*
X227436Y163335D01*
X227144Y163456D01*
X226922Y163486D01*
X226700Y163515D01*
X214111D01*
X214062Y164010D01*
X213914Y164500D01*
X213672Y164952D01*
X213347Y165347D01*
X212951Y165672D01*
X212500Y165914D01*
X212010Y166062D01*
X211500Y166113D01*
X210990Y166062D01*
X210500Y165914D01*
X210049Y165672D01*
X210015Y165645D01*
X209015Y166114D01*
Y199307D01*
X208985Y199529D01*
X208956Y199750D01*
X208835Y200043D01*
X208785Y200164D01*
X208512Y200519D01*
X202715Y206317D01*
Y208005D01*
X203357Y208648D01*
Y210500D01*
Y212287D01*
X202715D01*
Y218005D01*
X203357Y218648D01*
Y220500D01*
Y222287D01*
X202715D01*
Y228006D01*
X203357Y228648D01*
Y230500D01*
X204557D01*
Y228713D01*
D02*
G37*
G36*
X191519Y156340D02*
X194881D01*
Y155140D01*
X191519D01*
Y154282D01*
X191319D01*
Y154017D01*
X183968D01*
Y155246D01*
X178032D01*
Y152681D01*
X177831Y152519D01*
X177831D01*
Y147684D01*
X177734Y147586D01*
X177490Y147562D01*
X177000Y147414D01*
X176549Y147172D01*
X176153Y146847D01*
X175828Y146451D01*
X175586Y146000D01*
X175438Y145510D01*
X175387Y145000D01*
X175438Y144490D01*
X175586Y144000D01*
X175828Y143549D01*
X176153Y143153D01*
X176549Y142828D01*
X177000Y142586D01*
X177490Y142438D01*
X178000Y142387D01*
X178091Y142305D01*
Y136965D01*
X184035D01*
Y140110D01*
X190319Y146394D01*
X191319Y146180D01*
Y145977D01*
X192285D01*
Y144956D01*
X192153Y144847D01*
X191828Y144451D01*
X191586Y144000D01*
X191438Y143510D01*
X191387Y143000D01*
X191438Y142490D01*
X191586Y142000D01*
X191828Y141549D01*
X192153Y141153D01*
X192549Y140828D01*
X193000Y140586D01*
X193490Y140438D01*
X194000Y140387D01*
X194510Y140438D01*
X195000Y140586D01*
X195451Y140828D01*
X195847Y141153D01*
X196172Y141549D01*
X196414Y142000D01*
X196562Y142490D01*
X196613Y143000D01*
X196562Y143510D01*
X196414Y144000D01*
X196172Y144451D01*
X195847Y144847D01*
X195715Y144956D01*
Y145977D01*
X198443D01*
Y149717D01*
Y149983D01*
X201557D01*
Y145977D01*
X208681D01*
Y149983D01*
X214164D01*
X215332Y148816D01*
Y145788D01*
X221669D01*
Y152481D01*
Y153829D01*
X231818D01*
X234300Y151347D01*
Y148300D01*
X243000D01*
Y144215D01*
X238700D01*
Y145700D01*
X222800D01*
Y138300D01*
X238700D01*
Y140785D01*
X243000D01*
Y135700D01*
X234300D01*
Y134017D01*
X225336D01*
X218186Y141167D01*
X217768Y141487D01*
X217282Y141689D01*
X216760Y141758D01*
X213881D01*
Y143696D01*
X209119D01*
Y136216D01*
X205379D01*
Y135830D01*
X205236Y135625D01*
X204407Y135197D01*
X204379Y135199D01*
X204183Y135225D01*
X203961Y135254D01*
X202873D01*
Y136117D01*
X202673D01*
Y137861D01*
X197327D01*
Y136117D01*
X197127D01*
Y135215D01*
X194710D01*
X192712Y137213D01*
X192712Y137213D01*
X192357Y137485D01*
X192124Y137582D01*
X191944Y137656D01*
X191944Y137656D01*
X191944D01*
X191909Y137661D01*
Y138775D01*
X185965D01*
Y133225D01*
X191850D01*
X192788Y132288D01*
X192788Y132288D01*
X193143Y132015D01*
X193376Y131918D01*
X193556Y131844D01*
X193556Y131844D01*
X193556D01*
X193639Y131833D01*
X194000Y131785D01*
X194000D01*
X194000D01*
X197127D01*
Y130961D01*
X202873D01*
Y130961D01*
X203873Y131202D01*
X204028Y131047D01*
X204229Y130893D01*
X204383Y130775D01*
X204796Y130604D01*
X205240Y130545D01*
X205379D01*
Y128304D01*
X210141D01*
Y135077D01*
X210848Y135784D01*
X212089D01*
X213059Y135586D01*
X213059D01*
Y135586D01*
X213059Y135586D01*
Y132860D01*
X217421D01*
Y134812D01*
X218421Y135226D01*
X223074Y130574D01*
X223491Y130253D01*
X223693Y130169D01*
X223978Y130052D01*
X224500Y129983D01*
X224500Y129983D01*
X234300D01*
Y128300D01*
X243000D01*
Y105742D01*
X226746D01*
X226039Y106449D01*
Y109873D01*
X226728Y110225D01*
X226728D01*
Y115775D01*
X223603D01*
X214165Y125212D01*
X213810Y125485D01*
X213397Y125656D01*
X212953Y125715D01*
X212509Y125656D01*
X212095Y125485D01*
X211953Y125375D01*
X211810Y125485D01*
X211689Y125535D01*
X211397Y125656D01*
X211175Y125686D01*
X210953Y125715D01*
X179990D01*
X179740Y126715D01*
X179952Y126828D01*
X180347Y127153D01*
X180672Y127549D01*
X180914Y128000D01*
X181062Y128490D01*
X181113Y129000D01*
X181552Y129485D01*
X184035D01*
Y135035D01*
X178091D01*
Y131713D01*
X177919Y131541D01*
X177500Y131414D01*
X177049Y131172D01*
X176653Y130847D01*
X176328Y130452D01*
X176086Y130000D01*
X175938Y129510D01*
X175887Y129000D01*
X175938Y128490D01*
X176086Y128000D01*
X176328Y127549D01*
X176653Y127153D01*
X177049Y126828D01*
X177260Y126715D01*
X177009Y125715D01*
X154956D01*
X154847Y125847D01*
X154452Y126172D01*
X154000Y126414D01*
X153510Y126562D01*
X153000Y126613D01*
X152490Y126562D01*
X152000Y126414D01*
X151549Y126172D01*
X151153Y125847D01*
X150828Y125452D01*
X150586Y125000D01*
X150438Y124510D01*
X150387Y124000D01*
X150438Y123490D01*
X150502Y123279D01*
X150305Y122940D01*
X150060Y122695D01*
X149721Y122498D01*
X149510Y122562D01*
X149000Y122613D01*
X148490Y122562D01*
X148000Y122414D01*
X147548Y122172D01*
X147153Y121847D01*
X146828Y121451D01*
X146586Y121000D01*
X146438Y120510D01*
X146387Y120000D01*
X146438Y119490D01*
X146586Y119000D01*
X146828Y118549D01*
X147153Y118153D01*
X147548Y117828D01*
X148000Y117586D01*
X148490Y117438D01*
X149000Y117387D01*
X149171Y117404D01*
X150787Y115788D01*
X150895Y115705D01*
X151143Y115515D01*
X151385Y115415D01*
X151556Y115344D01*
X151778Y115314D01*
X152000Y115285D01*
X159272D01*
Y110225D01*
X159272D01*
X159961Y109873D01*
Y104127D01*
X168375D01*
X168635Y103767D01*
X168123Y102767D01*
X122361D01*
X122030Y103767D01*
X122514Y104125D01*
X123490Y105010D01*
X124374Y105986D01*
X125159Y107044D01*
X125836Y108173D01*
X126399Y109364D01*
X126843Y110604D01*
X127163Y111882D01*
X127356Y113184D01*
X127421Y114500D01*
X127356Y115815D01*
X127163Y117118D01*
X126843Y118396D01*
X126399Y119636D01*
X125836Y120827D01*
X125159Y121956D01*
X124374Y123014D01*
X123490Y123990D01*
X122514Y124874D01*
X121456Y125659D01*
X120327Y126336D01*
X119136Y126899D01*
X117896Y127343D01*
X116618Y127663D01*
X115315Y127856D01*
X114000Y127921D01*
X112685Y127856D01*
X111382Y127663D01*
X110104Y127343D01*
X108864Y126899D01*
X107673Y126336D01*
X106544Y125659D01*
X105486Y124874D01*
X104510Y123990D01*
X103767Y123170D01*
X103191Y123277D01*
X102767Y123535D01*
Y149000D01*
X114000D01*
Y146005D01*
X113414Y145727D01*
X113000Y145692D01*
X112658Y146109D01*
X112125Y146546D01*
X111517Y146871D01*
X110857Y147071D01*
X110171Y147139D01*
X109521D01*
Y143622D01*
X108921D01*
Y143022D01*
X104213D01*
X104222Y142936D01*
X104422Y142276D01*
X104747Y141668D01*
X105184Y141135D01*
X105717Y140698D01*
X106325Y140373D01*
X106985Y140173D01*
X107106Y140161D01*
Y137083D01*
X106985Y137071D01*
X106325Y136871D01*
X105717Y136546D01*
X105184Y136109D01*
X104747Y135576D01*
X104422Y134968D01*
X104222Y134308D01*
X104213Y134222D01*
X108921D01*
Y133622D01*
X109521D01*
Y130105D01*
X110171D01*
X110857Y130173D01*
X111517Y130373D01*
X112125Y130698D01*
X112658Y131135D01*
X113000Y131552D01*
X113414Y131517D01*
X114000Y131239D01*
Y130000D01*
X114500Y130500D01*
X115663D01*
X116248Y130187D01*
X116946Y129975D01*
X117671Y129904D01*
X120171D01*
X120896Y129975D01*
X121594Y130187D01*
X122179Y130500D01*
X155894D01*
Y130048D01*
X170106D01*
Y139732D01*
X169000D01*
Y141269D01*
X170106D01*
Y150952D01*
X169000D01*
Y152529D01*
X169012Y152547D01*
X170000Y153086D01*
X170000Y153086D01*
X170490Y152938D01*
X171000Y152887D01*
X171510Y152938D01*
X172000Y153086D01*
X172451Y153328D01*
X172847Y153653D01*
X173172Y154049D01*
X173414Y154500D01*
X173562Y154990D01*
X173613Y155500D01*
X173596Y155671D01*
X175710Y157785D01*
X177324D01*
X178032Y157078D01*
Y156446D01*
X183968D01*
Y157785D01*
X191519D01*
Y156340D01*
D02*
G37*
G36*
X127961Y170367D02*
X127967Y170321D01*
X128229Y169689D01*
X128646Y169146D01*
X129189Y168729D01*
X129821Y168467D01*
X130500Y168378D01*
X131179Y168467D01*
X131811Y168729D01*
X132354Y169146D01*
X132636Y169513D01*
X132798Y169555D01*
X133767Y168995D01*
Y160947D01*
X133646Y160854D01*
X133229Y160311D01*
X132967Y159679D01*
X132878Y159000D01*
X132967Y158321D01*
X133229Y157689D01*
X133646Y157146D01*
X134189Y156729D01*
X134821Y156467D01*
X135500Y156378D01*
X136179Y156467D01*
X136811Y156729D01*
X137354Y157146D01*
X137771Y157689D01*
X138033Y158321D01*
X138122Y159000D01*
X138033Y159679D01*
X137771Y160311D01*
X137354Y160854D01*
X137233Y160947D01*
Y168509D01*
X138157Y168892D01*
X142248Y164801D01*
X142810Y164425D01*
X143473Y164294D01*
X164520D01*
X164903Y163370D01*
X159580Y158046D01*
X159000Y158122D01*
X158321Y158033D01*
X157689Y157771D01*
X157146Y157354D01*
X156729Y156811D01*
X156467Y156179D01*
X156378Y155500D01*
X156467Y154821D01*
X156729Y154189D01*
X157146Y153646D01*
X157689Y153229D01*
X158321Y152967D01*
X159000Y152878D01*
X159679Y152967D01*
X160311Y153229D01*
X160854Y153646D01*
X161271Y154189D01*
X161477Y154687D01*
X162000Y154799D01*
X162492Y154694D01*
X162527Y154677D01*
X162729Y154189D01*
X163146Y153646D01*
X163689Y153229D01*
X164321Y152967D01*
X165000Y152878D01*
X165679Y152967D01*
X166311Y153229D01*
X166854Y153646D01*
X167042Y153891D01*
X167900Y154113D01*
X168076Y154071D01*
X168059Y153314D01*
X168037Y153272D01*
X168003Y153239D01*
X167991Y153221D01*
X167941Y153103D01*
X167870Y152997D01*
X167855Y152923D01*
X167838Y152891D01*
X167835Y152857D01*
X167803Y152782D01*
X167801Y152654D01*
X167777Y152529D01*
Y150952D01*
X155894D01*
Y149098D01*
X150669D01*
Y150712D01*
X144332D01*
Y149098D01*
X142222D01*
X141839Y150021D01*
X143586Y151768D01*
X144072Y152496D01*
X144243Y153354D01*
Y157652D01*
X144271Y157689D01*
X144533Y158321D01*
X144622Y159000D01*
X144533Y159679D01*
X144271Y160311D01*
X143854Y160854D01*
X143311Y161271D01*
X142679Y161533D01*
X142000Y161622D01*
X141321Y161533D01*
X140689Y161271D01*
X140146Y160854D01*
X139729Y160311D01*
X139467Y159679D01*
X139378Y159000D01*
X139467Y158321D01*
X139729Y157689D01*
X139757Y157652D01*
Y154283D01*
X135398Y149925D01*
X132233D01*
Y143784D01*
X132433D01*
Y141746D01*
X135500D01*
Y141146D01*
X136100D01*
Y138276D01*
X138567D01*
Y139412D01*
X143824D01*
X144532Y138705D01*
Y138323D01*
Y138323D01*
X144532Y138313D01*
X144532Y138043D01*
Y137983D01*
X144494Y137964D01*
X144425Y137931D01*
X144342Y137890D01*
X143889Y137667D01*
X143889Y137667D01*
X143532Y137492D01*
X143129Y137761D01*
X142793Y137828D01*
Y136100D01*
X144520D01*
X144454Y136436D01*
X144376Y136553D01*
X144588Y136897D01*
X144588Y136897D01*
X144854Y137328D01*
X144906Y137411D01*
X144938Y137463D01*
X144953Y137488D01*
X145034D01*
X145327Y137488D01*
X145327D01*
X145327D01*
X146900D01*
Y140654D01*
X147500D01*
Y141254D01*
X150469D01*
Y143819D01*
X150469Y143819D01*
D01*
X150669Y143981D01*
X150669D01*
X151407Y144611D01*
X155894D01*
Y141269D01*
X167777D01*
Y139732D01*
X167612Y139532D01*
X163600D01*
Y134890D01*
X163000D01*
Y134290D01*
X156095D01*
Y131888D01*
X155894Y131723D01*
X124256D01*
X123581Y132708D01*
X123583Y132723D01*
X123622Y133022D01*
X118921D01*
Y133622D01*
X118321D01*
Y137152D01*
X117671D01*
X116758Y137032D01*
X115906Y136679D01*
X115175Y136118D01*
X115000Y135890D01*
X114000Y136230D01*
Y140686D01*
X115000Y141025D01*
X115032Y140983D01*
X115805Y140390D01*
X116705Y140017D01*
X117671Y139890D01*
X120171D01*
X121137Y140017D01*
X122037Y140390D01*
X122810Y140983D01*
X123403Y141756D01*
X123776Y142656D01*
X123903Y143622D01*
X123776Y144588D01*
X123403Y145488D01*
X122810Y146261D01*
X122037Y146854D01*
X121137Y147227D01*
X120171Y147354D01*
X117671D01*
X116705Y147227D01*
X116224Y147027D01*
X115224Y147579D01*
Y149000D01*
X115155Y149345D01*
X115259Y149665D01*
X115725Y150378D01*
X115805Y150390D01*
X116705Y150017D01*
X117671Y149890D01*
X120171D01*
X121137Y150017D01*
X122037Y150390D01*
X122810Y150983D01*
X123403Y151756D01*
X123776Y152656D01*
X123903Y153622D01*
X123776Y154588D01*
X123403Y155488D01*
X122810Y156261D01*
X122037Y156854D01*
X121137Y157227D01*
X120171Y157354D01*
X117671D01*
X116705Y157227D01*
X115805Y156854D01*
X115032Y156261D01*
X115000Y156219D01*
X114000Y156558D01*
Y160686D01*
X115000Y161025D01*
X115032Y160983D01*
X115805Y160390D01*
X116705Y160017D01*
X117671Y159890D01*
X120171D01*
X121137Y160017D01*
X122037Y160390D01*
X122810Y160983D01*
X123403Y161756D01*
X123776Y162656D01*
X123903Y163622D01*
X123776Y164588D01*
X123403Y165488D01*
X122810Y166261D01*
X122037Y166854D01*
X121137Y167227D01*
X120171Y167354D01*
X117671D01*
X116705Y167227D01*
X115848Y166872D01*
X115796Y166858D01*
X114725Y167286D01*
X114704Y167375D01*
X117272Y169943D01*
X117671Y169890D01*
X120171D01*
X121137Y170017D01*
X122037Y170390D01*
X122810Y170983D01*
X123114Y171379D01*
X126949D01*
X127961Y170367D01*
D02*
G37*
G36*
X143449Y205619D02*
X143908Y204907D01*
X143887Y204700D01*
X143938Y204190D01*
X144086Y203700D01*
X144328Y203249D01*
X144653Y202853D01*
X145048Y202528D01*
X145500Y202286D01*
X145990Y202138D01*
X146500Y202087D01*
X147010Y202138D01*
X147500Y202286D01*
X147951Y202528D01*
X148347Y202853D01*
X148456Y202985D01*
X151249D01*
X151848Y201985D01*
X151815Y201923D01*
X151603Y201225D01*
X151532Y200500D01*
X151603Y199775D01*
X151815Y199077D01*
X152159Y198434D01*
X152621Y197871D01*
X153184Y197409D01*
X153827Y197065D01*
X154525Y196853D01*
X155250Y196782D01*
X157750D01*
X158475Y196853D01*
X159173Y197065D01*
X159585Y197285D01*
X170906D01*
X171293Y196888D01*
X171273Y196660D01*
X171237Y196559D01*
X170756Y195888D01*
X170529Y195865D01*
X170077Y195728D01*
X169660Y195505D01*
X169295Y195205D01*
X168995Y194840D01*
X168772Y194423D01*
X168674Y194100D01*
X171000D01*
Y193500D01*
X171600D01*
Y190966D01*
X171705Y190916D01*
X172285Y190374D01*
Y172039D01*
X172315Y171818D01*
X172344Y171596D01*
X172465Y171303D01*
X172515Y171182D01*
X172788Y170827D01*
X174461Y169153D01*
Y167742D01*
X161308D01*
X161009Y168120D01*
X160779Y168742D01*
X160999Y169154D01*
X161199Y169814D01*
X161208Y169900D01*
X151799D01*
X151817Y169759D01*
X151951Y169319D01*
X152082Y169002D01*
X152221Y168742D01*
X151991Y168120D01*
X151692Y167742D01*
X144183D01*
X126215Y185710D01*
Y198043D01*
X126163Y198435D01*
X126156Y198487D01*
X126117Y198581D01*
X125985Y198900D01*
X125795Y199148D01*
X125712Y199256D01*
X123314Y201654D01*
X123606Y202199D01*
X123818Y202897D01*
X123889Y203622D01*
X123818Y204347D01*
X123648Y204907D01*
X123846Y205353D01*
X124279Y205907D01*
X129000D01*
X129476Y205422D01*
X129574Y205244D01*
X134713D01*
X134811Y205422D01*
X135287Y205907D01*
X143104D01*
X143449Y205619D01*
D02*
G37*
G36*
X256426Y186135D02*
X256625Y185697D01*
X256701Y185057D01*
X256684Y184983D01*
X256586Y184800D01*
X256438Y184310D01*
X256387Y183800D01*
X256438Y183290D01*
X256586Y182800D01*
X256828Y182349D01*
X257153Y181953D01*
X257548Y181628D01*
X257756Y181517D01*
X258036Y181261D01*
X258270Y180429D01*
X258242Y180323D01*
X258174Y180100D01*
X262826D01*
X262728Y180423D01*
X262505Y180840D01*
X262205Y181205D01*
X261865Y181484D01*
X261855Y181623D01*
X262372Y182484D01*
X268448D01*
X269348Y181584D01*
Y161562D01*
X269403Y161147D01*
X269410Y161092D01*
X269485Y160911D01*
X269591Y160654D01*
X269880Y160278D01*
X272942Y157216D01*
X272944Y157215D01*
X272605Y156215D01*
X270710D01*
X254924Y172001D01*
X255306Y172925D01*
X257400D01*
Y175500D01*
X258000D01*
Y176100D01*
X264236D01*
Y178075D01*
X263593D01*
X263458Y178154D01*
X262953Y178900D01*
X258174D01*
X258178Y178886D01*
X257508Y178075D01*
X251764D01*
Y176468D01*
X250840Y176085D01*
X246212Y180712D01*
X245857Y180985D01*
X245736Y181035D01*
X245444Y181156D01*
X245222Y181185D01*
X245000Y181215D01*
X243100D01*
Y184675D01*
X244520Y186095D01*
X245485Y186229D01*
Y186229D01*
X245485Y186229D01*
X256336D01*
X256426Y186135D01*
D02*
G37*
G36*
X285929Y328730D02*
X286558Y328310D01*
X287299Y328163D01*
X289701D01*
X289909Y328204D01*
X290156Y327743D01*
X282214Y319802D01*
X281752Y319993D01*
Y325400D01*
X272468D01*
Y319094D01*
X273912D01*
X274103Y318633D01*
X270954Y315484D01*
Y312000D01*
X269754D01*
Y315067D01*
X267716D01*
Y315267D01*
X267623D01*
Y318895D01*
X270731D01*
Y329130D01*
X271194Y329321D01*
X272468Y328046D01*
Y326600D01*
X281752D01*
Y332200D01*
X282252Y332407D01*
X285929Y328730D01*
D02*
G37*
G36*
X255438Y258027D02*
X262506D01*
Y251780D01*
X262535Y251558D01*
X262564Y251336D01*
X262685Y251043D01*
X262735Y250922D01*
X263008Y250567D01*
X265860Y247715D01*
X265770Y247212D01*
X265482Y246715D01*
X260985D01*
X260592Y246663D01*
X260541Y246656D01*
X260447Y246617D01*
X260127Y246485D01*
X259880Y246295D01*
X259772Y246212D01*
X259657Y246097D01*
X259500Y246113D01*
X258990Y246062D01*
X258500Y245914D01*
X258049Y245672D01*
X257653Y245347D01*
X257328Y244952D01*
X257086Y244500D01*
X256938Y244010D01*
X256887Y243500D01*
X256938Y242990D01*
X257086Y242500D01*
X257328Y242049D01*
X257653Y241653D01*
X258049Y241328D01*
X258285Y241201D01*
Y234809D01*
X251017D01*
Y232451D01*
X250093Y232068D01*
X248715Y233446D01*
Y238965D01*
X248845Y239149D01*
X249715Y239661D01*
X249790Y239638D01*
X250300Y239587D01*
X250810Y239638D01*
X251300Y239786D01*
X251751Y240028D01*
X252147Y240353D01*
X252472Y240749D01*
X252714Y241200D01*
X252862Y241690D01*
X252913Y242200D01*
X252862Y242710D01*
X252714Y243200D01*
X252472Y243652D01*
X252147Y244047D01*
X251751Y244372D01*
X251300Y244614D01*
X251121Y244668D01*
X251063Y245041D01*
X251175Y245697D01*
X251423Y245772D01*
X251840Y245995D01*
X252205Y246295D01*
X252505Y246660D01*
X252728Y247077D01*
X252826Y247400D01*
X250500D01*
Y248000D01*
X249900D01*
Y250326D01*
X249577Y250228D01*
X249160Y250005D01*
X248795Y249705D01*
X248743Y249642D01*
X247781Y249461D01*
X247455Y249516D01*
X246958Y250012D01*
X246603Y250285D01*
X246482Y250335D01*
X246189Y250456D01*
X245968Y250485D01*
X245746Y250515D01*
X232456D01*
X229515Y253456D01*
Y289200D01*
X229463Y289592D01*
X229456Y289644D01*
X229417Y289738D01*
X229285Y290057D01*
X229095Y290305D01*
X229012Y290412D01*
X220893Y298532D01*
X221185Y299077D01*
X221396Y299775D01*
X221468Y300500D01*
X221396Y301225D01*
X221185Y301923D01*
X220841Y302566D01*
X220379Y303129D01*
X219815Y303591D01*
X219173Y303935D01*
X218475Y304147D01*
X217750Y304218D01*
X215250D01*
X214525Y304147D01*
X213827Y303935D01*
X213184Y303591D01*
X212621Y303129D01*
X212159Y302566D01*
X211815Y301923D01*
X211603Y301225D01*
X211532Y300500D01*
X211603Y299775D01*
X211815Y299077D01*
X212159Y298434D01*
X212621Y297871D01*
X213184Y297409D01*
X213827Y297065D01*
X214525Y296853D01*
X215250Y296782D01*
X217750D01*
X217789Y296786D01*
X219889Y294686D01*
X219287Y293874D01*
X219173Y293935D01*
X218475Y294146D01*
X217750Y294218D01*
X215250D01*
X214525Y294146D01*
X213827Y293935D01*
X213184Y293591D01*
X212621Y293129D01*
X212159Y292565D01*
X211815Y291923D01*
X211603Y291225D01*
X211532Y290500D01*
X211603Y289775D01*
X211815Y289077D01*
X212159Y288435D01*
X212621Y287871D01*
X213184Y287409D01*
X213827Y287065D01*
X214525Y286854D01*
X215250Y286782D01*
X217750D01*
X217789Y286786D01*
X219889Y284686D01*
X219287Y283874D01*
X219173Y283935D01*
X218475Y284146D01*
X217750Y284218D01*
X215250D01*
X214525Y284146D01*
X213827Y283935D01*
X213184Y283591D01*
X212621Y283129D01*
X212159Y282565D01*
X211815Y281923D01*
X211603Y281225D01*
X211532Y280500D01*
X211603Y279775D01*
X211815Y279077D01*
X212159Y278434D01*
X212621Y277871D01*
X213184Y277409D01*
X213827Y277065D01*
X214525Y276853D01*
X215250Y276782D01*
X217750D01*
X217789Y276786D01*
X219889Y274686D01*
X219287Y273874D01*
X219173Y273935D01*
X218475Y274147D01*
X217750Y274218D01*
X215250D01*
X214525Y274147D01*
X213827Y273935D01*
X213184Y273591D01*
X212621Y273129D01*
X212159Y272566D01*
X211815Y271923D01*
X211603Y271225D01*
X211532Y270500D01*
X211603Y269775D01*
X211815Y269077D01*
X212159Y268435D01*
X212621Y267871D01*
X213184Y267409D01*
X213827Y267065D01*
X214525Y266853D01*
X215250Y266782D01*
X217750D01*
X217789Y266786D01*
X219889Y264686D01*
X219287Y263874D01*
X219173Y263935D01*
X218475Y264146D01*
X217750Y264218D01*
X215250D01*
X214525Y264146D01*
X213827Y263935D01*
X213184Y263591D01*
X212621Y263129D01*
X212159Y262565D01*
X211815Y261923D01*
X211603Y261225D01*
X211532Y260500D01*
X211603Y259775D01*
X211815Y259077D01*
X212107Y258532D01*
X195788Y242212D01*
X195515Y241857D01*
X195465Y241736D01*
X195344Y241444D01*
X195315Y241222D01*
X195285Y241000D01*
Y238401D01*
X194731Y237968D01*
X194285Y237770D01*
X194100Y237826D01*
Y235500D01*
Y233174D01*
X194285Y233230D01*
X194731Y233032D01*
X195285Y232599D01*
Y212807D01*
X194285Y212291D01*
X193782Y212609D01*
X193672Y213049D01*
X193914Y213500D01*
X194062Y213990D01*
X194113Y214500D01*
X194062Y215010D01*
X193914Y215500D01*
X193672Y215951D01*
X193418Y216500D01*
X193672Y217049D01*
X193914Y217500D01*
X194062Y217990D01*
X194113Y218500D01*
X194062Y219010D01*
X193914Y219500D01*
X193672Y219952D01*
X193347Y220347D01*
X192952Y220672D01*
X192500Y220914D01*
X192010Y221062D01*
X191500Y221113D01*
X190990Y221062D01*
X190500Y220914D01*
X190049Y220672D01*
X189653Y220347D01*
X189328Y219952D01*
X189086Y219500D01*
X188938Y219010D01*
X188887Y218500D01*
X188025Y218015D01*
X161751D01*
X161152Y219015D01*
X161185Y219077D01*
X161397Y219775D01*
X161468Y220500D01*
X161397Y221225D01*
X161339Y221414D01*
X168162Y228238D01*
X168245Y228345D01*
X168435Y228593D01*
X168567Y228912D01*
X168606Y229006D01*
X168613Y229058D01*
X168665Y229450D01*
Y258885D01*
X183264D01*
X183708Y258944D01*
X184121Y259115D01*
X184476Y259388D01*
X193712Y268624D01*
X193867Y268825D01*
X193985Y268979D01*
X194035Y269100D01*
X194156Y269392D01*
X194215Y269836D01*
Y279685D01*
X194966Y280391D01*
X195000Y280387D01*
X195510Y280438D01*
X196000Y280586D01*
X196451Y280828D01*
X196847Y281153D01*
X197172Y281549D01*
X197414Y282000D01*
X197562Y282490D01*
X197613Y283000D01*
X197562Y283510D01*
X197414Y284000D01*
X197172Y284452D01*
X196847Y284847D01*
X196451Y285172D01*
X196000Y285414D01*
X195510Y285562D01*
X195000Y285613D01*
X194490Y285562D01*
X194000Y285414D01*
X193549Y285172D01*
X193153Y284847D01*
X192547D01*
X192151Y285172D01*
X191700Y285414D01*
X191210Y285562D01*
X190700Y285613D01*
X190190Y285562D01*
X189700Y285414D01*
X189249Y285172D01*
X188853Y284847D01*
X188528Y284452D01*
X188286Y284000D01*
X188138Y283510D01*
X188087Y283000D01*
X188138Y282490D01*
X188286Y282000D01*
X188528Y281549D01*
X188853Y281153D01*
X188985Y281044D01*
Y273364D01*
X188738Y273130D01*
X187985Y272814D01*
X187800Y272914D01*
X187310Y273062D01*
X186800Y273113D01*
X186290Y273062D01*
X185800Y272914D01*
X185348Y272672D01*
X184953Y272347D01*
X184347D01*
X183951Y272672D01*
X183500Y272914D01*
X183010Y273062D01*
X182500Y273113D01*
X181990Y273062D01*
X181500Y272914D01*
X181049Y272672D01*
X180653Y272347D01*
X180347D01*
X179952Y272672D01*
X179500Y272914D01*
X179010Y273062D01*
X178500Y273113D01*
X177990Y273062D01*
X177500Y272914D01*
X177049Y272672D01*
X176653Y272347D01*
X176347D01*
X175952Y272672D01*
X175500Y272914D01*
X175010Y273062D01*
X174500Y273113D01*
X173990Y273062D01*
X173500Y272914D01*
X173048Y272672D01*
X172653Y272347D01*
X172544Y272215D01*
X161029D01*
X160841Y272566D01*
X160379Y273129D01*
X159816Y273591D01*
X159173Y273935D01*
X158475Y274147D01*
X157750Y274218D01*
X155250D01*
X154525Y274147D01*
X153827Y273935D01*
X153184Y273591D01*
X152621Y273129D01*
X152159Y272566D01*
X151815Y271923D01*
X151603Y271225D01*
X151532Y270500D01*
X151603Y269775D01*
X151815Y269077D01*
X152159Y268435D01*
X152621Y267871D01*
X153184Y267409D01*
X153827Y267065D01*
X154525Y266853D01*
X155250Y266782D01*
X157750D01*
X158475Y266853D01*
X159173Y267065D01*
X159816Y267409D01*
X160379Y267871D01*
X160841Y268435D01*
X161029Y268785D01*
X162054D01*
X162436Y267862D01*
X158664Y264089D01*
X158475Y264146D01*
X157750Y264218D01*
X155250D01*
X154525Y264146D01*
X153827Y263935D01*
X153184Y263591D01*
X152621Y263129D01*
X152159Y262565D01*
X151815Y261923D01*
X151603Y261225D01*
X151532Y260500D01*
X151603Y259775D01*
X151815Y259077D01*
X152159Y258435D01*
X152621Y257871D01*
X153184Y257409D01*
X153827Y257065D01*
X154525Y256854D01*
X155250Y256782D01*
X157750D01*
X158475Y256854D01*
X159155Y256030D01*
X159217Y255642D01*
X157789Y254214D01*
X157750Y254218D01*
X155250D01*
X154525Y254147D01*
X153827Y253935D01*
X153184Y253591D01*
X152621Y253129D01*
X152159Y252566D01*
X151815Y251923D01*
X151603Y251225D01*
X151532Y250500D01*
X151603Y249775D01*
X151815Y249077D01*
X152159Y248434D01*
X152621Y247871D01*
X153184Y247409D01*
X153827Y247065D01*
X154525Y246853D01*
X155250Y246782D01*
X157750D01*
X158475Y246853D01*
X159173Y247065D01*
X159287Y247126D01*
X159889Y246314D01*
X157789Y244214D01*
X157750Y244218D01*
X155250D01*
X154525Y244146D01*
X153827Y243935D01*
X153184Y243591D01*
X152621Y243129D01*
X152159Y242565D01*
X151815Y241923D01*
X151603Y241225D01*
X151532Y240500D01*
X151603Y239775D01*
X151815Y239077D01*
X152159Y238435D01*
X152621Y237871D01*
X153184Y237409D01*
X153827Y237065D01*
X154525Y236854D01*
X155250Y236782D01*
X157750D01*
X158475Y236854D01*
X159173Y237065D01*
X159816Y237409D01*
X160379Y237871D01*
X160841Y238435D01*
X161185Y239077D01*
X161397Y239775D01*
X161468Y240500D01*
X161397Y241225D01*
X161185Y241923D01*
X160893Y242468D01*
X162511Y244087D01*
X163435Y243704D01*
Y238860D01*
X158664Y234089D01*
X158475Y234146D01*
X157750Y234218D01*
X155250D01*
X154525Y234146D01*
X153827Y233935D01*
X153184Y233591D01*
X152621Y233129D01*
X152159Y232565D01*
X151815Y231923D01*
X151603Y231225D01*
X151532Y230500D01*
X151603Y229775D01*
X151815Y229077D01*
X152159Y228434D01*
X152621Y227871D01*
X153184Y227409D01*
X153827Y227065D01*
X154525Y226853D01*
X155250Y226782D01*
X157750D01*
X158475Y226853D01*
X159173Y227065D01*
X159816Y227409D01*
X160379Y227871D01*
X160841Y228434D01*
X161185Y229077D01*
X161397Y229775D01*
X161468Y230500D01*
X161397Y231225D01*
X161223Y231798D01*
X164311Y234887D01*
X165235Y234504D01*
Y230160D01*
X159048Y223973D01*
X158475Y224147D01*
X157750Y224218D01*
X155250D01*
X154525Y224147D01*
X153827Y223935D01*
X153184Y223591D01*
X152621Y223129D01*
X152159Y222566D01*
X151815Y221923D01*
X151603Y221225D01*
X151532Y220500D01*
X151603Y219775D01*
X151815Y219077D01*
X151922Y218878D01*
X151961Y218607D01*
X151918Y218060D01*
X151591Y217550D01*
X151542Y217512D01*
X147066Y213037D01*
X135361D01*
X135071Y213253D01*
X134876Y213544D01*
X132144D01*
Y214144D01*
X131544D01*
Y216470D01*
X131221Y216372D01*
X130804Y216149D01*
X130438Y215849D01*
X130139Y215483D01*
X129916Y215067D01*
X129778Y214614D01*
X129732Y214144D01*
X129743Y214037D01*
X129566Y213773D01*
X128341Y213584D01*
X125715Y216210D01*
Y226000D01*
X125663Y226392D01*
X125656Y226444D01*
X125617Y226537D01*
X125485Y226857D01*
X125295Y227105D01*
X125212Y227213D01*
X122739Y229686D01*
X122712Y229719D01*
X122650Y230758D01*
X122712Y230921D01*
X122800Y230993D01*
X123263Y231556D01*
X123606Y232199D01*
X123818Y232897D01*
X123889Y233622D01*
X123818Y234347D01*
X123606Y235045D01*
X123263Y235688D01*
X122800Y236251D01*
X122237Y236713D01*
X121594Y237057D01*
X120896Y237268D01*
X120171Y237340D01*
X117671D01*
X116946Y237268D01*
X116248Y237057D01*
X115606Y236713D01*
X115042Y236251D01*
X114580Y235688D01*
X114488Y235516D01*
X113354D01*
X113262Y235688D01*
X112800Y236251D01*
X112237Y236713D01*
X111594Y237057D01*
X110897Y237268D01*
X110171Y237340D01*
X107671D01*
X106946Y237268D01*
X106386Y237099D01*
X105941Y237297D01*
X105386Y237730D01*
Y239514D01*
X105941Y239947D01*
X106386Y240145D01*
X106946Y239976D01*
X107671Y239904D01*
X110171D01*
X110897Y239976D01*
X111594Y240187D01*
X112237Y240531D01*
X112800Y240993D01*
X113262Y241556D01*
X113354Y241728D01*
X114488D01*
X114580Y241556D01*
X115042Y240993D01*
X115606Y240531D01*
X116248Y240187D01*
X116946Y239976D01*
X117671Y239904D01*
X120171D01*
X120896Y239976D01*
X121594Y240187D01*
X122237Y240531D01*
X122800Y240993D01*
X123263Y241556D01*
X123606Y242199D01*
X123818Y242897D01*
X123889Y243622D01*
X123818Y244347D01*
X123606Y245045D01*
X123263Y245688D01*
X122800Y246251D01*
X122237Y246713D01*
X121594Y247057D01*
X120896Y247269D01*
X120171Y247340D01*
X117671D01*
X116946Y247269D01*
X116248Y247057D01*
X115606Y246713D01*
X115042Y246251D01*
X114580Y245688D01*
X114488Y245516D01*
X113354D01*
X113262Y245688D01*
X112800Y246251D01*
X112237Y246713D01*
X111594Y247057D01*
X110897Y247269D01*
X110171Y247340D01*
X107671D01*
X106946Y247269D01*
X106386Y247099D01*
X105941Y247297D01*
X105386Y247730D01*
Y249514D01*
X105941Y249947D01*
X106386Y250145D01*
X106946Y249975D01*
X107671Y249904D01*
X110171D01*
X110897Y249975D01*
X111594Y250187D01*
X112237Y250531D01*
X112800Y250993D01*
X113262Y251556D01*
X113354Y251728D01*
X114488D01*
X114580Y251556D01*
X115042Y250993D01*
X115606Y250531D01*
X116248Y250187D01*
X116946Y249975D01*
X117671Y249904D01*
X120171D01*
X120896Y249975D01*
X121594Y250187D01*
X122237Y250531D01*
X122800Y250993D01*
X123263Y251556D01*
X123606Y252199D01*
X123818Y252897D01*
X123889Y253622D01*
X123818Y254347D01*
X123606Y255045D01*
X123263Y255688D01*
X122800Y256251D01*
X122237Y256713D01*
X121594Y257057D01*
X120896Y257269D01*
X120171Y257340D01*
X117671D01*
X116946Y257269D01*
X116248Y257057D01*
X115606Y256713D01*
X115042Y256251D01*
X114580Y255688D01*
X114488Y255516D01*
X113354D01*
X113262Y255688D01*
X112800Y256251D01*
X112237Y256713D01*
X111594Y257057D01*
X110897Y257269D01*
X110171Y257340D01*
X107671D01*
X106946Y257269D01*
X106386Y257099D01*
X105941Y257297D01*
X105386Y257730D01*
Y259514D01*
X105941Y259947D01*
X106386Y260145D01*
X106946Y259976D01*
X107671Y259904D01*
X110171D01*
X110897Y259976D01*
X111594Y260187D01*
X112237Y260531D01*
X112800Y260993D01*
X113262Y261556D01*
X113354Y261728D01*
X114488D01*
X114580Y261556D01*
X115042Y260993D01*
X115606Y260531D01*
X116248Y260187D01*
X116946Y259976D01*
X117671Y259904D01*
X120171D01*
X120896Y259976D01*
X121594Y260187D01*
X122237Y260531D01*
X122800Y260993D01*
X123263Y261556D01*
X123606Y262199D01*
X123818Y262897D01*
X123889Y263622D01*
X123818Y264347D01*
X123606Y265045D01*
X123263Y265688D01*
X122800Y266251D01*
X122237Y266713D01*
X121594Y267057D01*
X120896Y267268D01*
X120171Y267340D01*
X117671D01*
X116946Y267268D01*
X116248Y267057D01*
X115606Y266713D01*
X115042Y266251D01*
X114580Y265688D01*
X114488Y265516D01*
X113354D01*
X113262Y265688D01*
X112800Y266251D01*
X112237Y266713D01*
X111594Y267057D01*
X110897Y267268D01*
X110171Y267340D01*
X107671D01*
X106946Y267268D01*
X106386Y267099D01*
X105941Y267297D01*
X105386Y267730D01*
Y269514D01*
X105941Y269947D01*
X106386Y270145D01*
X106946Y269975D01*
X107671Y269904D01*
X110171D01*
X110897Y269975D01*
X111594Y270187D01*
X112237Y270531D01*
X112800Y270993D01*
X113262Y271556D01*
X113354Y271728D01*
X114488D01*
X114580Y271556D01*
X115042Y270993D01*
X115606Y270531D01*
X116248Y270187D01*
X116946Y269975D01*
X117671Y269904D01*
X120171D01*
X120896Y269975D01*
X121594Y270187D01*
X122237Y270531D01*
X122800Y270993D01*
X123263Y271556D01*
X123606Y272199D01*
X123818Y272897D01*
X123889Y273622D01*
X123818Y274347D01*
X123606Y275045D01*
X123263Y275688D01*
X122800Y276251D01*
X122237Y276713D01*
X121594Y277057D01*
X120896Y277269D01*
X120171Y277340D01*
X117671D01*
X116946Y277269D01*
X116248Y277057D01*
X115606Y276713D01*
X115042Y276251D01*
X114580Y275688D01*
X114488Y275516D01*
X113354D01*
X113262Y275688D01*
X112800Y276251D01*
X112237Y276713D01*
X111594Y277057D01*
X110897Y277269D01*
X110171Y277340D01*
X107671D01*
X106946Y277269D01*
X106386Y277099D01*
X105941Y277297D01*
X105386Y277730D01*
Y279514D01*
X105941Y279947D01*
X106386Y280145D01*
X106946Y279976D01*
X107671Y279904D01*
X110171D01*
X110897Y279976D01*
X111594Y280187D01*
X112237Y280531D01*
X112800Y280993D01*
X113262Y281556D01*
X113354Y281728D01*
X114488D01*
X114580Y281556D01*
X115042Y280993D01*
X115606Y280531D01*
X116248Y280187D01*
X116946Y279976D01*
X117671Y279904D01*
X120171D01*
X120896Y279976D01*
X121594Y280187D01*
X122237Y280531D01*
X122800Y280993D01*
X123263Y281556D01*
X123606Y282199D01*
X123632Y282286D01*
X124039Y282526D01*
X124763Y282712D01*
X124766Y282711D01*
X125000Y282586D01*
X125490Y282438D01*
X126000Y282387D01*
X126510Y282438D01*
X126785Y282521D01*
X127399Y282223D01*
X127785Y281872D01*
Y234000D01*
X127815Y233778D01*
X127844Y233556D01*
X127965Y233264D01*
X128015Y233143D01*
X128288Y232788D01*
X131285Y229790D01*
Y225456D01*
X131153Y225347D01*
X130828Y224952D01*
X130586Y224500D01*
X130438Y224010D01*
X130387Y223500D01*
X130438Y222990D01*
X130586Y222500D01*
X130828Y222048D01*
X131153Y221653D01*
X131549Y221328D01*
X132000Y221086D01*
X132490Y220938D01*
X133000Y220887D01*
X133510Y220938D01*
X134000Y221086D01*
X134451Y221328D01*
X134847Y221653D01*
X135172Y222048D01*
X135414Y222500D01*
X135562Y222990D01*
X135613Y223500D01*
X135562Y224010D01*
X135414Y224500D01*
X135172Y224952D01*
X134847Y225347D01*
X134715Y225456D01*
Y230500D01*
X134656Y230944D01*
X134485Y231357D01*
X134367Y231511D01*
X134213Y231712D01*
X131215Y234710D01*
Y294966D01*
X131234Y294985D01*
X153845D01*
X153993Y293985D01*
X153827Y293935D01*
X153184Y293591D01*
X152621Y293129D01*
X152159Y292565D01*
X151815Y291923D01*
X151603Y291225D01*
X151532Y290500D01*
X151603Y289775D01*
X151815Y289077D01*
X152159Y288435D01*
X152621Y287871D01*
X153184Y287409D01*
X153827Y287065D01*
X154525Y286854D01*
X155250Y286782D01*
X157750D01*
X158475Y286854D01*
X159173Y287065D01*
X159816Y287409D01*
X160379Y287871D01*
X160841Y288435D01*
X161185Y289077D01*
X161397Y289775D01*
X161468Y290500D01*
X161397Y291225D01*
X161185Y291923D01*
X160841Y292565D01*
X160379Y293129D01*
X159816Y293591D01*
X159173Y293935D01*
X159007Y293985D01*
X159155Y294985D01*
X159324D01*
X159768Y295044D01*
X160181Y295215D01*
X160537Y295488D01*
X162762Y297713D01*
X162917Y297915D01*
X163035Y298069D01*
X163106Y298240D01*
X163206Y298482D01*
X163265Y298926D01*
Y315450D01*
X163235Y315672D01*
X163206Y315894D01*
X163035Y316307D01*
X162762Y316662D01*
X160893Y318532D01*
X161185Y319077D01*
X161397Y319775D01*
X161468Y320500D01*
X161397Y321225D01*
X161185Y321923D01*
X161804Y322885D01*
X171283D01*
X188381Y305787D01*
X188582Y305633D01*
X188736Y305515D01*
X188857Y305465D01*
X189149Y305344D01*
X189371Y305314D01*
X189593Y305285D01*
X189875D01*
X190023Y304285D01*
X189904Y304249D01*
X189296Y303924D01*
X188763Y303487D01*
X188326Y302954D01*
X188001Y302346D01*
X187801Y301686D01*
X187792Y301600D01*
X192500D01*
Y301000D01*
X193100D01*
Y297483D01*
X193750D01*
X194436Y297551D01*
X195096Y297751D01*
X195704Y298076D01*
X196237Y298513D01*
X196674Y299046D01*
X196971Y299602D01*
X197187Y299654D01*
X197813D01*
X198029Y299602D01*
X198326Y299046D01*
X198763Y298513D01*
X199296Y298076D01*
X199904Y297751D01*
X200564Y297551D01*
X201250Y297483D01*
X201900D01*
Y301000D01*
Y304517D01*
X201250D01*
X200564Y304449D01*
X199904Y304249D01*
X199296Y303924D01*
X198763Y303487D01*
X198326Y302954D01*
X198029Y302398D01*
X197813Y302346D01*
X197187D01*
X196971Y302398D01*
X196674Y302954D01*
X196237Y303487D01*
X195704Y303924D01*
X195096Y304249D01*
X194977Y304285D01*
X195125Y305285D01*
X198500D01*
X198722Y305314D01*
X198944Y305344D01*
X199236Y305465D01*
X199357Y305515D01*
X199712Y305788D01*
X201211Y307286D01*
X201250Y307282D01*
X203750D01*
X204475Y307353D01*
X205173Y307565D01*
X205816Y307909D01*
X206379Y308371D01*
X206841Y308934D01*
X207185Y309577D01*
X207397Y310275D01*
X207468Y311000D01*
X207397Y311725D01*
X207185Y312423D01*
X206841Y313066D01*
X206379Y313629D01*
X205816Y314091D01*
X205173Y314435D01*
X204475Y314647D01*
X203750Y314718D01*
X201250D01*
X200525Y314647D01*
X199827Y314435D01*
X199184Y314091D01*
X198621Y313629D01*
X198159Y313066D01*
X198067Y312894D01*
X196933D01*
X196841Y313066D01*
X196379Y313629D01*
X195816Y314091D01*
X195173Y314435D01*
X194475Y314647D01*
X193750Y314718D01*
X191250D01*
X190525Y314647D01*
X189827Y314435D01*
X189184Y314091D01*
X188621Y313629D01*
X187967Y313597D01*
X173851Y327712D01*
X173496Y327985D01*
X173375Y328035D01*
X173083Y328156D01*
X172861Y328186D01*
X172639Y328215D01*
X161858D01*
X161425Y328769D01*
X161227Y329215D01*
X161397Y329775D01*
X161468Y330500D01*
X161397Y331225D01*
X161227Y331785D01*
X161425Y332231D01*
X161858Y332785D01*
X211142D01*
X211575Y332231D01*
X211773Y331785D01*
X211603Y331225D01*
X211532Y330500D01*
X211603Y329775D01*
X211815Y329077D01*
X212159Y328434D01*
X212621Y327871D01*
X213184Y327409D01*
X213827Y327065D01*
X214525Y326853D01*
X215250Y326782D01*
X217750D01*
X218475Y326853D01*
X219173Y327065D01*
X219815Y327409D01*
X220379Y327871D01*
X220841Y328434D01*
X221185Y329077D01*
X221396Y329775D01*
X221468Y330500D01*
X221396Y331225D01*
X221185Y331923D01*
X220841Y332565D01*
X220379Y333129D01*
X219815Y333591D01*
X219173Y333935D01*
X218475Y334146D01*
X217750Y334218D01*
X215250D01*
X215211Y334214D01*
X213712Y335712D01*
X213357Y335985D01*
X213236Y336035D01*
X212944Y336156D01*
X212722Y336186D01*
X212500Y336215D01*
X159703D01*
X159453Y337215D01*
X159816Y337409D01*
X160379Y337871D01*
X160841Y338435D01*
X161185Y339077D01*
X161397Y339775D01*
X161468Y340500D01*
X161397Y341225D01*
X161287Y341585D01*
X161724Y342381D01*
X161965Y342585D01*
X211262D01*
X211569Y342278D01*
X211922Y341585D01*
X211801Y341186D01*
X211792Y341100D01*
X221208D01*
X221199Y341186D01*
X221078Y341585D01*
X221431Y342278D01*
X221738Y342585D01*
X255438D01*
Y258027D01*
D02*
G37*
%LPC*%
G36*
X108321Y147139D02*
X107671D01*
X106985Y147071D01*
X106325Y146871D01*
X105717Y146546D01*
X105184Y146109D01*
X104747Y145576D01*
X104422Y144968D01*
X104222Y144308D01*
X104213Y144222D01*
X108321D01*
Y147139D01*
D02*
G37*
G36*
Y133022D02*
X104213D01*
X104222Y132936D01*
X104422Y132276D01*
X104747Y131668D01*
X105184Y131135D01*
X105717Y130698D01*
X106325Y130373D01*
X106985Y130173D01*
X107671Y130105D01*
X108321D01*
Y133022D01*
D02*
G37*
G36*
X217421Y131660D02*
X215840D01*
Y128504D01*
X217421D01*
Y131660D01*
D02*
G37*
G36*
X155900Y174017D02*
X155250D01*
X154564Y173949D01*
X153904Y173749D01*
X153296Y173424D01*
X152763Y172987D01*
X152326Y172454D01*
X152082Y171998D01*
X151951Y171680D01*
X151817Y171241D01*
X151799Y171100D01*
X155900D01*
Y174017D01*
D02*
G37*
G36*
X217750Y174218D02*
X215250D01*
X214525Y174146D01*
X213827Y173935D01*
X213184Y173591D01*
X212621Y173129D01*
X212159Y172566D01*
X211815Y171923D01*
X211603Y171225D01*
X211532Y170500D01*
X211603Y169775D01*
X211815Y169077D01*
X212159Y168434D01*
X212621Y167871D01*
X213184Y167409D01*
X213827Y167065D01*
X214525Y166853D01*
X215250Y166782D01*
X217750D01*
X218475Y166853D01*
X219173Y167065D01*
X219815Y167409D01*
X220379Y167871D01*
X220841Y168434D01*
X221185Y169077D01*
X221396Y169775D01*
X221468Y170500D01*
X221396Y171225D01*
X221185Y171923D01*
X220841Y172566D01*
X220379Y173129D01*
X219815Y173591D01*
X219173Y173935D01*
X218475Y174146D01*
X217750Y174218D01*
D02*
G37*
G36*
X214640Y131660D02*
X213059D01*
Y128504D01*
X214640D01*
Y131660D01*
D02*
G37*
G36*
X202673Y140839D02*
X200600D01*
Y139061D01*
X202673D01*
Y140839D01*
D02*
G37*
G36*
X150469Y140054D02*
X148100D01*
Y137488D01*
X150469D01*
Y140054D01*
D02*
G37*
G36*
X134900Y140546D02*
X132433D01*
Y138276D01*
X134900D01*
Y140546D01*
D02*
G37*
G36*
X162400Y139532D02*
X156095D01*
Y135490D01*
X162400D01*
Y139532D01*
D02*
G37*
G36*
X141593Y137828D02*
X141256Y137761D01*
X140463Y137230D01*
X139932Y136436D01*
X139865Y136100D01*
X141593D01*
Y137828D01*
D02*
G37*
G36*
X144520Y134900D02*
X142793D01*
Y133172D01*
X143129Y133239D01*
X143923Y133770D01*
X144454Y134564D01*
X144520Y134900D01*
D02*
G37*
G36*
X141593D02*
X139865D01*
X139932Y134564D01*
X140463Y133770D01*
X140537Y133720D01*
X140549Y133702D01*
X141144Y133304D01*
X141165Y133300D01*
X141256Y133239D01*
X141593Y133172D01*
Y134900D01*
D02*
G37*
G36*
X120171Y137152D02*
X119521D01*
Y134222D01*
X123622D01*
X123581Y134536D01*
X123228Y135387D01*
X122667Y136118D01*
X121936Y136679D01*
X121085Y137032D01*
X120171Y137152D01*
D02*
G37*
G36*
X199400Y140839D02*
X197327D01*
Y139061D01*
X199400D01*
Y140839D01*
D02*
G37*
G36*
X157750Y174017D02*
X157100D01*
Y171100D01*
X161208D01*
X161199Y171186D01*
X160999Y171846D01*
X160674Y172454D01*
X160237Y172987D01*
X159704Y173424D01*
X159096Y173749D01*
X158436Y173949D01*
X157750Y174017D01*
D02*
G37*
G36*
X191900Y300400D02*
X187792D01*
X187801Y300314D01*
X188001Y299654D01*
X188326Y299046D01*
X188763Y298513D01*
X189296Y298076D01*
X189904Y297751D01*
X190564Y297551D01*
X191250Y297483D01*
X191900D01*
Y300400D01*
D02*
G37*
G36*
X207208D02*
X203100D01*
Y297483D01*
X203750D01*
X204436Y297551D01*
X205096Y297751D01*
X205704Y298076D01*
X206237Y298513D01*
X206674Y299046D01*
X206999Y299654D01*
X207199Y300314D01*
X207208Y300400D01*
D02*
G37*
G36*
X251100Y250326D02*
Y248600D01*
X252826D01*
X252728Y248923D01*
X252505Y249340D01*
X252205Y249705D01*
X251840Y250005D01*
X251423Y250228D01*
X251100Y250326D01*
D02*
G37*
G36*
X157750Y284218D02*
X155250D01*
X154525Y284146D01*
X153827Y283935D01*
X153184Y283591D01*
X152621Y283129D01*
X152159Y282565D01*
X151815Y281923D01*
X151603Y281225D01*
X151532Y280500D01*
X151603Y279775D01*
X151815Y279077D01*
X152159Y278434D01*
X152621Y277871D01*
X153184Y277409D01*
X153827Y277065D01*
X154525Y276853D01*
X155250Y276782D01*
X157750D01*
X158475Y276853D01*
X159173Y277065D01*
X159816Y277409D01*
X160379Y277871D01*
X160841Y278434D01*
X161185Y279077D01*
X161397Y279775D01*
X161468Y280500D01*
X161397Y281225D01*
X161185Y281923D01*
X160841Y282565D01*
X160379Y283129D01*
X159816Y283591D01*
X159173Y283935D01*
X158475Y284146D01*
X157750Y284218D01*
D02*
G37*
G36*
X203750Y304517D02*
X203100D01*
Y301600D01*
X207208D01*
X207199Y301686D01*
X206999Y302346D01*
X206674Y302954D01*
X206237Y303487D01*
X205704Y303924D01*
X205096Y304249D01*
X204436Y304449D01*
X203750Y304517D01*
D02*
G37*
G36*
X215900Y339900D02*
X211792D01*
X211801Y339814D01*
X212001Y339154D01*
X212326Y338546D01*
X212763Y338013D01*
X213296Y337576D01*
X213904Y337251D01*
X214564Y337051D01*
X215250Y336983D01*
X215900D01*
Y339900D01*
D02*
G37*
G36*
X221208D02*
X217100D01*
Y336983D01*
X217750D01*
X218436Y337051D01*
X219096Y337251D01*
X219704Y337576D01*
X220237Y338013D01*
X220674Y338546D01*
X220999Y339154D01*
X221199Y339814D01*
X221208Y339900D01*
D02*
G37*
G36*
X239000Y333113D02*
X238490Y333062D01*
X238000Y332914D01*
X237548Y332672D01*
X237153Y332347D01*
X236828Y331951D01*
X236586Y331500D01*
X236438Y331010D01*
X236387Y330500D01*
X236404Y330329D01*
X228290Y322215D01*
X221029D01*
X220841Y322566D01*
X220379Y323129D01*
X219815Y323591D01*
X219173Y323935D01*
X218475Y324147D01*
X217750Y324218D01*
X215250D01*
X214525Y324147D01*
X213827Y323935D01*
X213184Y323591D01*
X212621Y323129D01*
X212159Y322566D01*
X211815Y321923D01*
X211603Y321225D01*
X211532Y320500D01*
X211603Y319775D01*
X211815Y319077D01*
X212159Y318435D01*
X212621Y317871D01*
X213184Y317409D01*
X213827Y317065D01*
X214525Y316853D01*
X215250Y316782D01*
X217750D01*
X218475Y316853D01*
X219173Y317065D01*
X219815Y317409D01*
X220379Y317871D01*
X220841Y318435D01*
X221029Y318785D01*
X227554D01*
X227937Y317862D01*
X222290Y312215D01*
X221029D01*
X220841Y312565D01*
X220379Y313129D01*
X219815Y313591D01*
X219173Y313935D01*
X218475Y314146D01*
X217750Y314218D01*
X215250D01*
X214525Y314146D01*
X213827Y313935D01*
X213184Y313591D01*
X212621Y313129D01*
X212159Y312565D01*
X211815Y311923D01*
X211603Y311225D01*
X211532Y310500D01*
X211603Y309775D01*
X211815Y309077D01*
X212159Y308435D01*
X212621Y307871D01*
X213184Y307409D01*
X213827Y307065D01*
X214525Y306854D01*
X215250Y306782D01*
X217750D01*
X218475Y306854D01*
X219173Y307065D01*
X219815Y307409D01*
X220379Y307871D01*
X220841Y308435D01*
X221029Y308785D01*
X223000D01*
X223222Y308815D01*
X223444Y308844D01*
X223736Y308965D01*
X223857Y309015D01*
X224212Y309288D01*
X238829Y323904D01*
X239000Y323887D01*
X239510Y323938D01*
X240000Y324086D01*
X240452Y324328D01*
X240847Y324653D01*
X241172Y325048D01*
X241414Y325500D01*
X241562Y325990D01*
X241613Y326500D01*
X241562Y327010D01*
X241414Y327500D01*
X241172Y327952D01*
X240918Y328500D01*
X241172Y329048D01*
X241414Y329500D01*
X241562Y329990D01*
X241613Y330500D01*
X241562Y331010D01*
X241414Y331500D01*
X241172Y331951D01*
X240847Y332347D01*
X240452Y332672D01*
X240000Y332914D01*
X239510Y333062D01*
X239000Y333113D01*
D02*
G37*
G36*
X203750Y324718D02*
X201250D01*
X200525Y324646D01*
X199827Y324435D01*
X199184Y324091D01*
X198621Y323629D01*
X198450Y323421D01*
X197450Y323778D01*
Y324700D01*
X187550D01*
Y317300D01*
X197450D01*
Y318222D01*
X198450Y318580D01*
X198621Y318371D01*
X199184Y317909D01*
X199827Y317565D01*
X200525Y317354D01*
X201250Y317282D01*
X203750D01*
X204475Y317354D01*
X205173Y317565D01*
X205816Y317909D01*
X206379Y318371D01*
X206841Y318934D01*
X207185Y319577D01*
X207397Y320275D01*
X207468Y321000D01*
X207397Y321725D01*
X207185Y322423D01*
X206841Y323065D01*
X206379Y323629D01*
X205816Y324091D01*
X205173Y324435D01*
X204475Y324646D01*
X203750Y324718D01*
D02*
G37*
G36*
X157750Y194218D02*
X155250D01*
X154525Y194147D01*
X153827Y193935D01*
X153184Y193591D01*
X152621Y193129D01*
X152159Y192566D01*
X151815Y191923D01*
X151603Y191225D01*
X151532Y190500D01*
X151603Y189775D01*
X151815Y189077D01*
X152159Y188434D01*
X152621Y187871D01*
X153184Y187409D01*
X153827Y187065D01*
X154525Y186854D01*
X155250Y186782D01*
X157750D01*
X158475Y186854D01*
X159173Y187065D01*
X159816Y187409D01*
X160379Y187871D01*
X160841Y188434D01*
X161185Y189077D01*
X161397Y189775D01*
X161468Y190500D01*
X161397Y191225D01*
X161185Y191923D01*
X160841Y192566D01*
X160379Y193129D01*
X159816Y193591D01*
X159173Y193935D01*
X158475Y194147D01*
X157750Y194218D01*
D02*
G37*
G36*
X170400Y192900D02*
X168674D01*
X168772Y192577D01*
X168995Y192160D01*
X169295Y191795D01*
X169660Y191495D01*
X170077Y191272D01*
X170400Y191174D01*
Y192900D01*
D02*
G37*
G36*
X264236Y174900D02*
X258600D01*
Y172925D01*
X264236D01*
Y174900D01*
D02*
G37*
G36*
X157750Y184218D02*
X155250D01*
X154525Y184146D01*
X153827Y183935D01*
X153184Y183591D01*
X152621Y183129D01*
X152159Y182566D01*
X151815Y181923D01*
X151603Y181225D01*
X151532Y180500D01*
X151603Y179775D01*
X151815Y179077D01*
X152159Y178434D01*
X152621Y177871D01*
X153184Y177409D01*
X153827Y177065D01*
X154525Y176854D01*
X155250Y176782D01*
X157750D01*
X158475Y176854D01*
X159173Y177065D01*
X159816Y177409D01*
X160379Y177871D01*
X160841Y178434D01*
X161185Y179077D01*
X161397Y179775D01*
X161468Y180500D01*
X161397Y181225D01*
X161185Y181923D01*
X160841Y182566D01*
X160379Y183129D01*
X159816Y183591D01*
X159173Y183935D01*
X158475Y184146D01*
X157750Y184218D01*
D02*
G37*
G36*
X131544Y204044D02*
X129818D01*
X129916Y203721D01*
X130139Y203304D01*
X130438Y202938D01*
X130804Y202639D01*
X131221Y202416D01*
X131544Y202318D01*
Y204044D01*
D02*
G37*
G36*
X192900Y234900D02*
X191174D01*
X191272Y234577D01*
X191495Y234160D01*
X191795Y233795D01*
X192160Y233495D01*
X192577Y233272D01*
X192900Y233174D01*
Y234900D01*
D02*
G37*
G36*
Y237826D02*
X192577Y237728D01*
X192160Y237505D01*
X191795Y237205D01*
X191495Y236840D01*
X191272Y236423D01*
X191174Y236100D01*
X192900D01*
Y237826D01*
D02*
G37*
G36*
X134470Y204044D02*
X132744D01*
Y202318D01*
X133067Y202416D01*
X133484Y202639D01*
X133849Y202938D01*
X134149Y203304D01*
X134372Y203721D01*
X134470Y204044D01*
D02*
G37*
G36*
X132744Y216470D02*
Y214744D01*
X134470D01*
X134372Y215067D01*
X134149Y215483D01*
X133849Y215849D01*
X133484Y216149D01*
X133067Y216372D01*
X132744Y216470D01*
D02*
G37*
%LPD*%
D10*
X176760Y181930D02*
D03*
X180500D02*
D03*
X184240D02*
D03*
Y191379D02*
D03*
X176760D02*
D03*
D11*
X194881Y155740D02*
D03*
Y152000D02*
D03*
Y148260D02*
D03*
X205119D02*
D03*
Y155740D02*
D03*
D12*
X274240Y347118D02*
D03*
X270500D02*
D03*
X266700D02*
D03*
Y336800D02*
D03*
X274240D02*
D03*
D13*
X228500Y229000D02*
D03*
D14*
Y227032D02*
D03*
Y225063D02*
D03*
Y223095D02*
D03*
Y221126D02*
D03*
X245823Y229000D02*
D03*
Y227032D02*
D03*
Y225063D02*
D03*
Y223095D02*
D03*
Y221126D02*
D03*
D15*
X252000Y201110D02*
D03*
Y189890D02*
D03*
D16*
X257728Y219337D02*
D03*
Y230951D02*
D03*
D17*
X200000Y133539D02*
D03*
Y138461D02*
D03*
D18*
X135500Y146854D02*
D03*
Y141146D02*
D03*
D19*
X268839Y228937D02*
D03*
Y226968D02*
D03*
Y225000D02*
D03*
Y223031D02*
D03*
Y221063D02*
D03*
X286161Y228937D02*
D03*
Y226968D02*
D03*
Y225000D02*
D03*
Y223031D02*
D03*
Y221063D02*
D03*
X265339Y195437D02*
D03*
Y193468D02*
D03*
Y191500D02*
D03*
Y189531D02*
D03*
Y187563D02*
D03*
X282661Y195437D02*
D03*
Y193468D02*
D03*
Y191500D02*
D03*
Y189531D02*
D03*
Y187563D02*
D03*
D20*
X242250Y152000D02*
D03*
X230750Y142000D02*
D03*
X242250Y132000D02*
D03*
D21*
X285000Y175500D02*
D03*
Y154500D02*
D03*
X258000Y145500D02*
D03*
Y175500D02*
D03*
D22*
X188937Y136000D02*
D03*
X181063Y132260D02*
D03*
Y139740D02*
D03*
D23*
X190047Y113000D02*
D03*
X195953D02*
D03*
D24*
X315000Y333437D02*
D03*
Y325563D02*
D03*
D25*
Y313457D02*
D03*
Y345543D02*
D03*
D26*
X304370Y316705D02*
D03*
Y342295D02*
D03*
D27*
X303701Y324382D02*
D03*
Y326941D02*
D03*
Y329500D02*
D03*
Y332059D02*
D03*
Y334618D02*
D03*
D28*
X271406Y264721D02*
D03*
Y274563D02*
D03*
Y282437D02*
D03*
Y292280D02*
D03*
D29*
X203957Y210500D02*
D03*
X207500D02*
D03*
X203957Y230500D02*
D03*
X207500D02*
D03*
X203957Y220500D02*
D03*
X207500D02*
D03*
D30*
X207760Y132260D02*
D03*
X215240D02*
D03*
X211500Y139740D02*
D03*
D31*
X236500Y199701D02*
D03*
Y182299D02*
D03*
D32*
X223953Y113000D02*
D03*
X218047D02*
D03*
X276803Y113149D02*
D03*
X270898D02*
D03*
X251803D02*
D03*
X245898D02*
D03*
X167953Y113000D02*
D03*
X162047D02*
D03*
D33*
X147500Y140654D02*
D03*
Y147346D02*
D03*
X280500Y336654D02*
D03*
Y343346D02*
D03*
X181000Y155846D02*
D03*
Y149153D02*
D03*
X218500Y155846D02*
D03*
Y149153D02*
D03*
D34*
X163000Y134890D02*
D03*
Y146110D02*
D03*
D35*
X234146Y237000D02*
D03*
X239854D02*
D03*
X275354Y236500D02*
D03*
X269646D02*
D03*
X269854Y201500D02*
D03*
X264146D02*
D03*
X264646Y312000D02*
D03*
X270354D02*
D03*
X183354Y198655D02*
D03*
X177646D02*
D03*
D36*
X277110Y326000D02*
D03*
X265890D02*
D03*
D37*
X177575Y174948D02*
D03*
X184267D02*
D03*
D38*
X269000Y136937D02*
D03*
X272740Y129063D02*
D03*
X265260D02*
D03*
D39*
X237961Y174500D02*
D03*
X233039D02*
D03*
X237961Y169000D02*
D03*
X233039D02*
D03*
X237961Y163500D02*
D03*
X233039D02*
D03*
X181961Y169000D02*
D03*
X177039D02*
D03*
X276311Y107149D02*
D03*
X271390D02*
D03*
X251311D02*
D03*
X246390D02*
D03*
X167461Y107000D02*
D03*
X162539D02*
D03*
X195461D02*
D03*
X190539D02*
D03*
X223461D02*
D03*
X218539D02*
D03*
D40*
X178000Y145000D02*
X181000Y148000D01*
Y149153D01*
X183847Y152000D01*
X194881D01*
X215000D01*
X217847Y149153D01*
X218500D01*
X205119Y155740D02*
X205225Y155846D01*
X218500D01*
X232654D01*
X236500Y152000D01*
X242250D01*
X211500Y139740D02*
X216760D01*
X224500Y132000D01*
X242250D01*
X288500Y333000D02*
Y335346D01*
X280500Y343346D02*
X288500Y335346D01*
X280500Y343346D02*
Y347500D01*
X276500Y351500D02*
X280500Y347500D01*
X272500Y351500D02*
X276500D01*
X270500Y349500D02*
X272500Y351500D01*
X270500Y347118D02*
Y349500D01*
X285500Y302500D02*
Y304366D01*
X275279Y292280D02*
X285500Y302500D01*
X271406Y292280D02*
X275279D01*
X285500Y304366D02*
X285500D01*
X273413Y292280D02*
X273413Y292280D01*
X271406Y292280D02*
X273413D01*
X288000Y314500D02*
X297882Y324382D01*
X303701D01*
X260500Y178000D02*
Y179500D01*
Y180000D01*
X239854Y230646D02*
X241500Y229000D01*
X244000Y241146D02*
Y244000D01*
X239854Y237000D02*
X244000Y241146D01*
X264146Y201500D02*
Y207354D01*
X282000Y186500D02*
Y186879D01*
Y186500D02*
X283500Y185000D01*
X268500Y236500D02*
X269646D01*
X270354Y312000D02*
X277110Y318756D01*
X265500Y239500D02*
Y242000D01*
X258000Y175500D02*
X260500Y178000D01*
X277110Y318756D02*
Y326000D01*
X264146Y195744D02*
Y201500D01*
X268839Y229700D02*
Y235693D01*
X283500Y183500D02*
Y185000D01*
X265500Y239500D02*
X268500Y236500D01*
X239854Y230646D02*
Y237000D01*
D41*
X238000Y152500D02*
X242250D01*
X175000Y159500D02*
X203389D01*
X171385Y161400D02*
X202602D01*
X167285Y163300D02*
X201815D01*
X171000Y155500D02*
X175000Y159500D01*
X165485Y155500D02*
X171385Y161400D01*
X159485Y155500D02*
X167285Y163300D01*
X315000Y333437D02*
Y345543D01*
X269500Y333000D02*
Y341828D01*
X265890Y329390D02*
X269500Y333000D01*
X270500Y342828D02*
Y347118D01*
X269500Y341828D02*
X270500Y342828D01*
X246500Y142500D02*
X251652Y137348D01*
X230750Y142500D02*
X246500D01*
X251803Y113149D02*
Y137500D01*
X263500Y127303D02*
X265260Y129063D01*
X263500Y117500D02*
Y127303D01*
X156500Y309000D02*
Y310500D01*
X147800Y300300D02*
X156500Y309000D01*
X129033Y300300D02*
X147800D01*
X125900Y297167D02*
X129033Y300300D01*
X125900Y293977D02*
Y297167D01*
X129778Y298500D02*
X154500D01*
X127700Y296422D02*
X129778Y298500D01*
X127700Y286700D02*
Y296422D01*
X130524Y296700D02*
X159324D01*
X129500Y295676D02*
X130524Y296700D01*
X129500Y234000D02*
Y295676D01*
X119545Y287622D02*
X125900Y293977D01*
X126000Y285000D02*
X127700Y286700D01*
X154500Y298500D02*
X156500Y300500D01*
X133000Y223500D02*
Y230500D01*
X129500Y234000D02*
X133000Y230500D01*
X156500Y320500D02*
X161550Y315450D01*
Y298926D02*
Y315450D01*
X159324Y296700D02*
X161550Y298926D01*
X128178Y211322D02*
X147776D01*
X113021Y209522D02*
X148522D01*
X112921Y207622D02*
X152754D01*
X173246Y204700D02*
X175600Y207054D01*
X186820Y188680D02*
X198000Y177500D01*
X184264Y207054D02*
X186820Y204499D01*
Y188680D02*
Y204499D01*
X146500Y204700D02*
X173246D01*
X175600Y207054D02*
X184264D01*
X251500Y156000D02*
X252000D01*
X208500Y160000D02*
X225954D01*
X284634Y303500D02*
X285500Y302634D01*
X285500Y304366D02*
X285500Y304366D01*
X284634Y303500D02*
X285500Y304366D01*
X156500Y270500D02*
X174500D01*
X178318D02*
X178500D01*
X182318D02*
X182500D01*
X180500Y264200D02*
X186800Y270500D01*
X182518Y262400D02*
X190700Y270582D01*
X183264Y260600D02*
X192500Y269836D01*
X159324Y206700D02*
X161478Y208854D01*
X153676Y206700D02*
X159324D01*
X152754Y207622D02*
X153676Y206700D01*
X108921Y203622D02*
X112921Y207622D01*
X164800Y267800D02*
X175618D01*
X157500Y260500D02*
X164800Y267800D01*
X165546Y266000D02*
X177818D01*
X161550Y262004D02*
X165546Y266000D01*
X166291Y264200D02*
X180500D01*
X163350Y261259D02*
X166291Y264200D01*
X167037Y262400D02*
X182518D01*
X165150Y260513D02*
X167037Y262400D01*
X167782Y260600D02*
X183264D01*
X166950Y259768D02*
X167782Y260600D01*
X166950Y229450D02*
Y259768D01*
X175618Y267800D02*
X178318Y270500D01*
X177818Y266000D02*
X182318Y270500D01*
X103671Y181965D02*
Y285279D01*
X223000Y310500D02*
X239000Y326500D01*
X216500Y310500D02*
X223000D01*
X226000Y252000D02*
Y281000D01*
X227800Y252746D02*
Y289200D01*
X216500Y290500D02*
X226000Y281000D01*
X216500Y300500D02*
X227800Y289200D01*
X226700Y161800D02*
X228000Y160500D01*
X213200Y161800D02*
X226700D01*
X211500Y163500D02*
X213200Y161800D01*
X273064Y163618D02*
Y166163D01*
X238500Y179500D02*
X245000D01*
X239000Y183000D02*
X245890Y189890D01*
X239000Y182299D02*
Y183000D01*
X236500Y182299D02*
X239000D01*
X245890Y189890D02*
X252000D01*
X222200Y217487D02*
Y224800D01*
X216500Y230500D02*
X222200Y224800D01*
Y217487D02*
X227700Y211987D01*
X224000Y223508D02*
X225555Y225063D01*
X224000Y218233D02*
Y223508D01*
Y218233D02*
X229500Y212733D01*
Y187500D02*
Y212733D01*
X234701Y182299D02*
X236500D01*
X229500Y187500D02*
X234701Y182299D01*
X265339Y189531D02*
X273032D01*
X273064Y163618D02*
X276282Y160400D01*
X273064Y193155D02*
X274100Y194191D01*
X273064Y166163D02*
Y193155D01*
X274000Y222909D02*
X274100Y222809D01*
Y194191D02*
Y222809D01*
X278524Y228524D02*
Y241491D01*
X274000Y224000D02*
X278524Y228524D01*
X274000Y222909D02*
Y224000D01*
X282270Y228937D02*
X286161D01*
X275900Y193446D02*
Y222568D01*
X282846Y226968D02*
X286161D01*
X277800Y221922D02*
X282846Y226968D01*
X277800Y200000D02*
Y221922D01*
X275900Y222568D02*
X282270Y228937D01*
X274864Y192409D02*
X275900Y193446D01*
X276282Y160400D02*
X288400D01*
X275354Y229354D02*
Y236500D01*
X272968Y226968D02*
X275354Y229354D01*
X268839Y226968D02*
X272968D01*
X274864Y166909D02*
Y192409D01*
X281018Y163300D02*
X285300D01*
X282500Y166000D02*
Y169351D01*
X276664Y167655D02*
X281018Y163300D01*
X276500Y164000D02*
Y165273D01*
X124000Y215500D02*
X128178Y211322D01*
X148522Y209522D02*
X153500Y214500D01*
X147776Y211322D02*
X152754Y216300D01*
X153500Y214500D02*
X191500D01*
X152754Y216300D02*
X189300D01*
X121500Y228500D02*
X124000Y226000D01*
Y215500D02*
Y226000D01*
X114043Y228500D02*
X121500D01*
X189300Y216300D02*
X191500Y218500D01*
X259200Y344300D02*
X266700Y336800D01*
X259200Y344300D02*
X260000Y343500D01*
X153676Y344300D02*
X259200D01*
X151450Y336041D02*
Y342074D01*
X129031Y313622D02*
X151450Y336041D01*
Y342074D02*
X153676Y344300D01*
X172639Y326500D02*
X188139Y311000D01*
X150000Y326500D02*
X172639D01*
X188139Y311000D02*
X192500D01*
X118921Y313622D02*
X129031D01*
X212500Y334500D02*
X216500Y330500D01*
X152454Y334500D02*
X212500D01*
X127776Y309822D02*
X152454Y334500D01*
X112178Y309822D02*
X127776D01*
X108921Y313079D02*
X112178Y309822D01*
X108921Y313079D02*
Y313622D01*
X106014Y287622D02*
X119545D01*
X151000Y330500D02*
X156500D01*
X124122Y303622D02*
X151000Y330500D01*
X118921Y303622D02*
X124122D01*
X158000Y220500D02*
X166950Y229450D01*
X156500Y220500D02*
X158000D01*
X192500Y269836D02*
Y280500D01*
X190700Y270582D02*
Y283000D01*
X165150Y238150D02*
Y260513D01*
X157500Y230500D02*
X165150Y238150D01*
X156500Y230500D02*
X157500D01*
X163350Y247350D02*
Y261259D01*
X156500Y240500D02*
X163350Y247350D01*
X161550Y255550D02*
Y262004D01*
X156500Y250500D02*
X161550Y255550D01*
X156500Y260500D02*
X157500D01*
X192500Y280500D02*
X195000Y283000D01*
X287000Y175500D02*
X290200Y172300D01*
X288400Y160400D02*
X290200Y162200D01*
Y172300D01*
X285500Y252634D02*
Y302634D01*
X178500Y129000D02*
Y129697D01*
X181063Y132260D01*
X135500Y159000D02*
Y170515D01*
X128015Y178000D02*
X135500Y170515D01*
X275015Y245000D02*
X278524Y241491D01*
X260985Y245000D02*
X275015D01*
X260000Y244015D02*
X260985Y245000D01*
X279700Y201800D02*
Y219200D01*
X281500Y200000D02*
X287000D01*
X279700Y201800D02*
X281500Y200000D01*
X287000D02*
X289000Y198000D01*
X186753Y122200D02*
X195953Y113000D01*
X155200Y122200D02*
X186753D01*
X153000Y120000D02*
X155200Y122200D01*
X167953Y113000D02*
Y114047D01*
X165000Y117000D02*
X167953Y114047D01*
X152000Y117000D02*
X165000D01*
X149000Y120000D02*
X152000Y117000D01*
X153000Y124000D02*
X210953D01*
X211953Y123000D01*
X212953Y124000D01*
X189593Y307000D02*
X198500D01*
X229000Y320500D02*
X239000Y330500D01*
X257000Y220066D02*
X257728Y219337D01*
X257000Y220066D02*
Y225000D01*
X248800Y242200D02*
Y245746D01*
X257000Y225000D02*
X257728Y224272D01*
X248800Y242200D02*
X250300D01*
X247000Y232736D02*
Y245000D01*
Y232736D02*
X249977Y229759D01*
X245746Y248800D02*
X248800Y245746D01*
X231746Y248800D02*
X245746D01*
X248904Y227168D02*
X249977Y228241D01*
Y229759D01*
X249095Y223095D02*
X256951Y230951D01*
X245823Y227032D02*
X248767D01*
X248630Y227168D02*
X248767Y227032D01*
X248630Y227168D02*
X248904D01*
X245823Y223095D02*
X249095D01*
X227800Y252746D02*
X231746Y248800D01*
X245000Y247000D02*
X247000Y245000D01*
X231000Y247000D02*
X245000D01*
X226000Y252000D02*
X231000Y247000D01*
X264220Y251780D02*
X267200Y248800D01*
X273902D01*
X278702Y244000D01*
X315500D01*
X259500Y243500D02*
X260000Y243000D01*
X216500Y320500D02*
X229000D01*
X203957Y234457D02*
X205000Y235500D01*
X203957Y230500D02*
Y234457D01*
X227700Y176800D02*
X230000Y174500D01*
X225900Y173600D02*
X230500Y169000D01*
X224100Y172439D02*
Y202900D01*
Y172439D02*
X233039Y163500D01*
X195200Y203628D02*
Y208618D01*
X192618Y211200D02*
X195200Y208618D01*
X156500Y210500D02*
X157200Y211200D01*
X192618D01*
X195200Y203628D02*
X201000Y197828D01*
Y186500D02*
Y197828D01*
X161478Y208854D02*
X191146D01*
X203700Y165185D02*
Y197674D01*
X205500Y164298D02*
Y198561D01*
X207300Y163411D02*
Y199307D01*
X201815Y163300D02*
X203700Y165185D01*
X197000Y204374D02*
X203700Y197674D01*
X202602Y161400D02*
X205500Y164298D01*
X199000Y205061D02*
X205500Y198561D01*
X203389Y159500D02*
X207300Y163411D01*
X201000Y205607D02*
X207300Y199307D01*
X216500Y210500D02*
X224100Y202900D01*
X228000Y160500D02*
X251500D01*
X201000Y205607D02*
Y237500D01*
X204000Y240500D01*
X199000Y205061D02*
Y238500D01*
X211000Y250500D01*
X197000Y204374D02*
Y241000D01*
X216500Y260500D01*
X225900Y173600D02*
Y211100D01*
X227700Y176800D02*
Y211987D01*
X216500Y220500D02*
X225900Y211100D01*
X230500Y169000D02*
X233039D01*
X230000Y174500D02*
X233039D01*
X207500Y210500D02*
X216500D01*
X223500Y233000D02*
Y249409D01*
X222400Y250509D02*
X223500Y249409D01*
X183000Y199009D02*
Y204000D01*
X251500Y160500D02*
X252000Y160000D01*
X253363Y163500D02*
X277663Y139200D01*
X237961Y163500D02*
X253363D01*
X250409Y169000D02*
X278309Y141100D01*
X247454Y174500D02*
X278954Y143000D01*
X245000Y179500D02*
X270000Y154500D01*
X237961Y169000D02*
X250409D01*
X237961Y174500D02*
X247454D01*
X216500Y270500D02*
X222400Y264600D01*
Y250509D02*
Y264600D01*
X234146Y237000D02*
X235500Y235646D01*
Y226313D02*
Y235646D01*
X227500Y229000D02*
X228500D01*
X227500D02*
Y247954D01*
X216500Y280500D02*
X224200Y272800D01*
Y251254D02*
Y272800D01*
Y251254D02*
X227500Y247954D01*
X241500Y229000D02*
X245823D01*
X234146Y240646D02*
X237500Y244000D01*
X257437Y187563D02*
X263839D01*
X255110Y189890D02*
X257437Y187563D01*
X269500Y207500D02*
X269854Y207854D01*
X260621Y198000D02*
Y208207D01*
Y192379D02*
Y195000D01*
X259121Y196500D02*
X260621Y198000D01*
X259121Y196500D02*
X260621Y195000D01*
X259891Y189609D02*
X265261D01*
X258615Y190885D02*
X259891Y189609D01*
X258615Y190885D02*
Y192889D01*
X237000Y153500D02*
X238000Y152500D01*
X277500Y154500D02*
X285000D01*
X257728Y211100D02*
X260414Y208414D01*
X244885Y211100D02*
X257728D01*
X306500Y167000D02*
X307300D01*
X279063Y129063D02*
X280000Y130000D01*
X258000Y145500D02*
X260437D01*
X269000Y136937D01*
X225555Y225063D02*
X228500D01*
X230976Y233524D02*
Y243976D01*
X232187Y223000D02*
X235500Y226313D01*
X260000Y243000D02*
Y244015D01*
Y233223D02*
Y243000D01*
X268839Y223031D02*
Y225000D01*
X241500Y214485D02*
X244885Y211100D01*
X234146Y237000D02*
Y240646D01*
X256951Y230951D02*
X257728D01*
X228637Y223000D02*
X232187D01*
X228500Y221126D02*
X228637Y221263D01*
X200000Y133539D02*
X203961D01*
X205240Y132260D01*
X189760Y148260D02*
X194881D01*
X194000Y143000D02*
Y147379D01*
X119809Y293622D02*
X150787Y324600D01*
X123000Y299500D02*
X150000Y326500D01*
X108921Y303622D02*
X113043Y299500D01*
X171473Y104027D02*
X184500D01*
X168000Y107500D02*
X171473Y104027D01*
X195461Y104066D02*
Y107000D01*
X276000Y106838D02*
X276311Y107149D01*
X304370Y342295D02*
X311752D01*
X315000Y325563D02*
Y333437D01*
Y313457D02*
Y325563D01*
X304370Y316705D02*
X311752D01*
X211000Y250500D02*
X216500D01*
X204000Y240500D02*
X216500D01*
X147008Y141146D02*
X147500Y140654D01*
X135500Y141146D02*
X147008D01*
X207500Y220500D02*
X216500D01*
X259500Y312000D02*
X264646D01*
X265890Y326000D02*
Y329390D01*
Y313244D02*
Y326000D01*
X184267Y174948D02*
Y175998D01*
X302500Y143000D02*
X306500Y147000D01*
X114543Y178000D02*
X128015D01*
X118921Y203622D02*
X124500Y198043D01*
X177575Y174948D02*
X181961Y170562D01*
Y169000D02*
Y170562D01*
X124500Y185000D02*
Y198043D01*
X156500Y200500D02*
X158000Y199000D01*
X108921Y233622D02*
X114043Y228500D01*
X306500Y157000D02*
X311750Y151750D01*
Y145343D02*
Y151750D01*
X308294Y139200D02*
X313650Y144556D01*
X286161Y225000D02*
X291593D01*
X264220Y264720D02*
X271406D01*
X183000Y199009D02*
X183354Y198655D01*
X280500Y343346D02*
X281154D01*
X159000Y155500D02*
X159485D01*
X269500Y242000D02*
X272500D01*
X252000Y195232D02*
Y201110D01*
X274864Y166909D02*
X276500Y165273D01*
X253582Y193650D02*
X257853D01*
X258615Y192889D01*
X275963Y195437D02*
X282661D01*
X279700Y219200D02*
X281563Y221063D01*
X315500Y244000D02*
X317500Y242000D01*
Y143032D02*
Y242000D01*
X308781Y137000D02*
X315550Y143769D01*
Y218450D01*
X293593Y223000D02*
X311000D01*
X278464Y173387D02*
X282500Y169351D01*
X278464Y173387D02*
Y190918D01*
X279200Y191500D02*
X282661D01*
X278464Y190918D02*
X279123Y191577D01*
X286468Y193468D02*
X287000Y194000D01*
Y197000D01*
X184240Y181930D02*
Y191379D01*
Y181930D02*
X188570D01*
X198000Y172500D01*
X278954Y143000D02*
X302500D01*
X277663Y139200D02*
X308294D01*
X205240Y132260D02*
X207760D01*
X188937Y136000D02*
X191500D01*
X194000Y133500D01*
X200000D02*
Y133539D01*
X291593Y225000D02*
X293593Y223000D01*
X311000D02*
X315550Y218450D01*
X294000Y137000D02*
X308781D01*
X276500Y119500D02*
X294000Y137000D01*
X269500Y119500D02*
X276500D01*
X279123Y191577D02*
X279200Y191500D01*
X218047Y113000D02*
X218539Y112508D01*
Y107000D02*
Y112508D01*
X190047Y113000D02*
X190539Y112508D01*
Y107000D02*
Y112508D01*
X162047Y113000D02*
X162539Y112508D01*
Y107000D02*
Y112508D01*
X245898Y113149D02*
X246390Y112657D01*
Y107149D02*
Y112657D01*
X270898Y113149D02*
X271390Y112657D01*
Y107149D02*
Y112657D01*
X176760Y181930D02*
X177304Y181386D01*
Y175218D02*
Y181386D01*
Y175218D02*
X177575Y174948D01*
X276803Y113149D02*
Y116803D01*
X295100Y135100D01*
X309568D01*
X317500Y143032D01*
X264220Y251780D02*
Y264720D01*
X181240Y139740D02*
X189760Y148260D01*
X181063Y139740D02*
X181240D01*
X108921Y183622D02*
X114543Y178000D01*
X165000Y155500D02*
X165485D01*
X212953Y124000D02*
X223953Y113000D01*
X277800Y200000D02*
X280300Y197500D01*
X286500D01*
X287000Y197000D01*
X282661Y193468D02*
X286468D01*
X278468D02*
X282661D01*
X276664Y191664D02*
X278468Y193468D01*
X276664Y167655D02*
Y191664D01*
X199027Y166027D02*
X201000Y168000D01*
X143473Y166027D02*
X199027D01*
X124500Y185000D02*
X143473Y166027D01*
X103671Y285279D02*
X106014Y287622D01*
X103671Y181965D02*
X108921Y176715D01*
Y173622D02*
Y176715D01*
X237909Y201110D02*
X252000D01*
X272222Y221131D02*
X274000Y222909D01*
X268839Y221063D02*
Y221131D01*
X257728Y230951D02*
X260000Y233223D01*
X230976Y233524D02*
X233500Y231000D01*
Y228000D02*
Y231000D01*
X232532Y227032D02*
X233500Y228000D01*
X228500Y227032D02*
X232532D01*
X285000Y175500D02*
X287000D01*
X265261Y189609D02*
X265339Y189531D01*
X252000Y195232D02*
X253582Y193650D01*
X252000Y189890D02*
X255110D01*
X251803Y137500D02*
X260500D01*
X270000Y154500D02*
X277500D01*
Y149500D02*
Y154500D01*
X261423Y223031D02*
X268839D01*
X257728Y219337D02*
X261423Y223031D01*
X257728Y211100D02*
Y219337D01*
X241500Y214485D02*
Y224500D01*
X242063Y225063D01*
X245823D01*
X260414Y208414D02*
X260621Y208207D01*
Y192379D02*
X261491Y191509D01*
X265339Y191500D02*
Y191509D01*
X174000Y172039D02*
X177039Y169000D01*
X174000Y172039D02*
Y196951D01*
X171951Y199000D02*
X174000Y196951D01*
X158000Y199000D02*
X171951D01*
X207500Y230500D02*
X216500D01*
X108921Y213622D02*
X113021Y209522D01*
X307507Y141100D02*
X311750Y145343D01*
X278309Y141100D02*
X307507D01*
X307300Y167000D02*
X313650Y160650D01*
Y144556D02*
Y160650D01*
X113043Y299500D02*
X123000D01*
X198500Y307000D02*
X202500Y311000D01*
X171993Y324600D02*
X189593Y307000D01*
X150787Y324600D02*
X171993D01*
X118921Y293622D02*
X119809D01*
X286161Y221063D02*
Y223031D01*
X282739Y189609D02*
X287609D01*
X282661Y189531D02*
X282739Y189609D01*
X303701Y317374D02*
Y324382D01*
X272740Y129063D02*
X279063D01*
X251311Y104311D02*
Y107149D01*
X269781Y193468D02*
X270468Y194155D01*
X265339Y193468D02*
X269781D01*
X279500Y344346D02*
X280500Y343346D01*
X245823Y215677D02*
Y221126D01*
Y215677D02*
X246500Y215000D01*
X228637Y221263D02*
Y223000D01*
X272500Y242000D02*
X275354Y239146D01*
Y236500D02*
Y239146D01*
X183354Y197089D02*
Y198655D01*
X180500Y194235D02*
X183354Y197089D01*
X180500Y181930D02*
Y194235D01*
Y179765D02*
Y181930D01*
Y179765D02*
X184267Y175998D01*
X276000Y104027D02*
Y106838D01*
X195461Y104066D02*
X195500Y104027D01*
X184500D02*
Y116500D01*
X223461Y104461D02*
Y107000D01*
X311752Y342295D02*
X315000Y345543D01*
X311752Y316705D02*
X315000Y313457D01*
X194775Y155846D02*
X194881Y155740D01*
X176760Y191379D02*
Y197769D01*
X194000Y133500D02*
X200000D01*
X268839Y221131D02*
X272222D01*
X184500Y104027D02*
X195500D01*
X276000D01*
X270468Y194155D02*
Y201500D01*
X281563Y221063D02*
X286161D01*
X289000Y191000D02*
Y198000D01*
X269854Y201500D02*
Y207854D01*
X261491Y191509D02*
X265339D01*
X194000Y133500D02*
X200000D01*
X218500Y155846D02*
X218606Y155740D01*
X287609Y189609D02*
X289000Y191000D01*
X248800Y158700D02*
X251500Y156000D01*
X225954Y160000D02*
X227254Y158700D01*
X248800D01*
D42*
X270354Y308312D02*
Y312000D01*
X259236Y297194D02*
X270354Y308312D01*
X259236Y276737D02*
Y297194D01*
Y276737D02*
X265115Y270858D01*
X271406D01*
Y264721D02*
Y270858D01*
X280500Y336654D02*
X280745D01*
X274387D02*
X280500D01*
X280745D02*
X287299Y330100D01*
X289701D01*
X294219Y334618D01*
X303701D01*
X274240Y343740D02*
Y347118D01*
D43*
X261486Y278478D02*
Y296262D01*
X297283Y332059D01*
X303701D01*
X263986Y279514D02*
Y295227D01*
Y279514D02*
X264982Y278518D01*
X269500D01*
X298260Y329500D02*
X303701D01*
X263986Y295227D02*
X298260Y329500D01*
X269500Y274563D02*
X271406D01*
X264651Y275313D02*
X270656D01*
X261486Y278478D02*
X264651Y275313D01*
X269500Y274563D02*
X270656Y275313D01*
X269500Y278518D02*
X272413Y281430D01*
X272491Y281509D01*
X269500Y278518D02*
X272413Y281430D01*
D44*
X271440Y331670D02*
X277110Y326000D01*
X271440Y331670D02*
Y340940D01*
X274240Y343740D01*
X271164Y161562D02*
Y182336D01*
X269200Y184300D02*
X271164Y182336D01*
X259500Y184300D02*
X269200D01*
X271164Y161562D02*
X274226Y158500D01*
X295000D01*
X141846Y135000D02*
Y135846D01*
X259000Y183800D02*
X259500Y184300D01*
X108921Y133622D02*
Y143622D01*
X295000Y158500D02*
X296500Y157000D01*
X108921Y133622D02*
X110878D01*
X177646Y198655D02*
Y204354D01*
D45*
X118921Y173622D02*
X127878D01*
X117779D02*
X118921D01*
X127878D02*
X130500Y171000D01*
X112079Y167922D02*
X117779Y173622D01*
X105890Y167922D02*
X112079D01*
X103371Y165403D02*
X105890Y167922D01*
X103371Y159214D02*
Y165403D01*
X103350Y159193D02*
X103371Y159214D01*
X103350Y159193D02*
X108921Y153622D01*
X142000Y153354D02*
Y159000D01*
X135500Y146854D02*
X142000Y153354D01*
X135500Y146854D02*
X162256D01*
D46*
X118921Y133622D02*
D03*
X108921D02*
D03*
X118921Y143622D02*
D03*
X108921D02*
D03*
X118921Y153622D02*
D03*
X108921D02*
D03*
X118921Y163622D02*
D03*
X108921D02*
D03*
X118921Y173622D02*
D03*
X108921D02*
D03*
X118921Y183622D02*
D03*
X108921D02*
D03*
X118921Y193622D02*
D03*
X108921D02*
D03*
X118921Y203622D02*
D03*
X108921D02*
D03*
X118921Y213622D02*
D03*
X108921D02*
D03*
X118921Y223622D02*
D03*
X108921D02*
D03*
X118921Y233622D02*
D03*
X108921D02*
D03*
X118921Y243622D02*
D03*
X108921D02*
D03*
X118921Y253622D02*
D03*
X108921D02*
D03*
X118921Y263622D02*
D03*
X108921D02*
D03*
X118921Y273622D02*
D03*
X108921D02*
D03*
X118921Y283622D02*
D03*
X108921D02*
D03*
X118921Y293622D02*
D03*
X108921D02*
D03*
X118921Y303622D02*
D03*
X108921D02*
D03*
X118921Y313622D02*
D03*
X108921D02*
D03*
X118921Y323622D02*
D03*
X108921D02*
D03*
D47*
X114000Y114500D02*
D03*
Y342846D02*
D03*
X306913Y114500D02*
D03*
D48*
X285500Y252634D02*
D03*
Y304366D02*
D03*
D49*
X306500Y147000D02*
D03*
Y157000D02*
D03*
Y167000D02*
D03*
Y177000D02*
D03*
Y187000D02*
D03*
Y197000D02*
D03*
Y207000D02*
D03*
Y217000D02*
D03*
Y227000D02*
D03*
Y237000D02*
D03*
X296500Y147000D02*
D03*
Y157000D02*
D03*
Y167000D02*
D03*
Y177000D02*
D03*
Y187000D02*
D03*
Y197000D02*
D03*
Y207000D02*
D03*
Y217000D02*
D03*
Y227000D02*
D03*
X156500Y350500D02*
D03*
Y340500D02*
D03*
Y330500D02*
D03*
Y320500D02*
D03*
Y310500D02*
D03*
Y300500D02*
D03*
Y290500D02*
D03*
Y280500D02*
D03*
Y270500D02*
D03*
Y260500D02*
D03*
Y250500D02*
D03*
Y240500D02*
D03*
Y230500D02*
D03*
Y220500D02*
D03*
Y210500D02*
D03*
Y200500D02*
D03*
Y190500D02*
D03*
Y180500D02*
D03*
Y170500D02*
D03*
X216500Y360500D02*
D03*
Y350500D02*
D03*
Y340500D02*
D03*
Y330500D02*
D03*
Y320500D02*
D03*
Y310500D02*
D03*
Y300500D02*
D03*
Y290500D02*
D03*
Y280500D02*
D03*
Y270500D02*
D03*
Y260500D02*
D03*
Y250500D02*
D03*
Y240500D02*
D03*
Y230500D02*
D03*
Y220500D02*
D03*
Y210500D02*
D03*
Y200500D02*
D03*
Y190500D02*
D03*
Y180500D02*
D03*
Y170500D02*
D03*
X192500Y311000D02*
D03*
Y301000D02*
D03*
X202500Y321000D02*
D03*
Y311000D02*
D03*
Y301000D02*
D03*
D50*
X296500Y237000D02*
D03*
X156500Y360500D02*
D03*
X192500Y321000D02*
D03*
D51*
X178000Y145000D02*
D03*
X263500Y117500D02*
D03*
X132144Y204644D02*
D03*
X133000Y223500D02*
D03*
X132144Y214144D02*
D03*
X146500Y204700D02*
D03*
X208500Y160000D02*
D03*
X252000Y156000D02*
D03*
X198000Y177500D02*
D03*
X174500Y270500D02*
D03*
X178500D02*
D03*
X182500D02*
D03*
X186800D02*
D03*
X285300Y163300D02*
D03*
X282500Y166000D02*
D03*
X276500Y164000D02*
D03*
X126000Y285000D02*
D03*
X190700Y283000D02*
D03*
X195000D02*
D03*
X260500Y179500D02*
D03*
X178500Y129000D02*
D03*
X130500Y171000D02*
D03*
X280500Y205000D02*
D03*
X153000Y120000D02*
D03*
X149000D02*
D03*
X153000Y124000D02*
D03*
X142193Y135500D02*
D03*
X239000Y330500D02*
D03*
Y326500D02*
D03*
X257000Y225000D02*
D03*
X250300Y242200D02*
D03*
X259500Y243500D02*
D03*
X250500Y248000D02*
D03*
X193500Y235500D02*
D03*
X205000D02*
D03*
X191500Y218500D02*
D03*
Y208500D02*
D03*
X201000Y186500D02*
D03*
X223500Y233000D02*
D03*
X183000Y204000D02*
D03*
X252000Y160000D02*
D03*
X191500Y214500D02*
D03*
X230976Y243976D02*
D03*
X237500Y244000D02*
D03*
X259000Y183800D02*
D03*
X264146Y207354D02*
D03*
X269500Y207500D02*
D03*
X259000Y196500D02*
D03*
X288000Y314500D02*
D03*
X288500Y333000D02*
D03*
X259500Y312000D02*
D03*
X269500Y119500D02*
D03*
X194000Y143000D02*
D03*
X135500Y159000D02*
D03*
X165000Y155500D02*
D03*
X171000D02*
D03*
X159000D02*
D03*
X201000Y168000D02*
D03*
X277500Y149500D02*
D03*
X260500Y137500D02*
D03*
X280000Y130000D02*
D03*
X246500Y215000D02*
D03*
X269500Y242000D02*
D03*
X142000Y159000D02*
D03*
X184500Y116500D02*
D03*
X198000Y172500D02*
D03*
X211500Y163500D02*
D03*
X265500Y242000D02*
D03*
X283500Y183500D02*
D03*
X244000Y244000D02*
D03*
X177646Y204354D02*
D03*
X171000Y193500D02*
D03*
M02*
